0
SECTION
2
HEADER
9
$INSUNITS
70
4
0
ENDSEC
0
SECTION
2
TABLES
0
TABLE
2
LTYPE
0
LTYPE
72
65
70
64
2
CONTINUOUS
3
______
73
0
40
0
0
ENDTAB
0
TABLE
2
LAYER
0
ENDTAB
0
ENDSEC
0
SECTION
2
ENTITIES
0
LINE
8
0
10
235.5663201
20
-226.463146
11
203.3460543
21
-226.463146
0
LINE
8
0
10
200.1665385
20
-227.3748575
11
182.1242121
21
-238.6489543
0
LINE
8
0
10
174.1486893
20
-237.1659836
11
155.1472621
21
-211.8891595
0
LINE
8
0
10
154.1900743
20
-210.8832445
11
111.345165
21
-175.2151522
0
LINE
8
0
10
109.5458284
20
-168.5517987
11
113.7081587
21
-157.1158902
0
LINE
8
0
10
116.235974
20
-154.0371453
11
142.8392796
21
-137.91017
0
LINE
8
0
10
148.8584777
20
-137.7933173
11
193.4365449
21
-162.5033435
0
LINE
8
0
10
196.3454025
20
-163.2556253
11
242.5669719
21
-163.2556253
0
LINE
8
0
10
245.4758295
20
-162.5033435
11
290.0538967
21
-137.7933173
0
LINE
8
0
10
296.0730948
20
-137.91017
11
322.6764004
21
-154.0371453
0
LINE
8
0
10
325.2042157
20
-157.1158902
11
329.366546
21
-168.5517987
0
LINE
8
0
10
327.5672094
20
-175.2151522
11
284.7223001
21
-210.8832445
0
LINE
8
0
10
283.7651123
20
-211.8891595
11
264.7636851
21
-237.1659836
0
LINE
8
0
10
256.7881623
20
-238.6489543
11
238.7458359
21
-227.3748575
0
ARC
8
0
10
203.3460543
20
-232.463146
40
6
50
90
51
122.0000016
0
ARC
8
0
10
178.9446963
20
-233.5606658
40
6
50
216.9334009
51
302.0000016
0
ARC
8
0
10
150.3512551
20
-215.4944773
40
6
50
36.9334009
51
50.2228543
0
ARC
8
0
10
115.1839842
20
-170.6039194
40
6
50
160.0000019
51
230.2228543
0
ARC
8
0
10
119.3463145
20
-159.1680109
40
6
50
121.2243232
51
160.0000019
0
ARC
8
0
10
145.9496201
20
-143.0410356
40
6
50
61.0000008
51
121.2243232
0
ARC
8
0
10
196.3454025
20
-157.2556253
40
6
50
241.0000008
51
270
0
ARC
8
0
10
242.5669719
20
-157.2556253
40
6
50
270
51
298.9999992
0
ARC
8
0
10
292.9627543
20
-143.0410356
40
6
50
58.7756768
51
118.9999992
0
ARC
8
0
10
319.5660599
20
-159.1680109
40
6
50
19.9999981
51
58.7756768
0
ARC
8
0
10
323.7283902
20
-170.6039194
40
6
50
309.7771457
51
19.9999981
0
ARC
8
0
10
288.5611193
20
-215.4944773
40
6
50
129.7771457
51
143.0665991
0
ARC
8
0
10
259.9676781
20
-233.5606658
40
6
50
237.9999984
51
323.0665991
0
ARC
8
0
10
235.5663201
20
-232.463146
40
6
50
57.9999984
51
90
0
LINE
8
0
10
110.0255315
20
-171.619532
11
126.4701523
21
-177.6048845
0
LINE
8
0
10
126.4701523
20
-177.6048845
11
132.1134847
21
-162.0999562
0
LINE
8
0
10
132.1134847
20
-162.0999562
11
115.6688639
21
-156.1146037
0
LINE
8
0
10
115.6688639
20
-156.1146037
11
110.0255315
21
-171.619532
0
LINE
8
0
10
129.2198661
20
-173.1487534
11
144.8124803
21
-181.0935871
0
LINE
8
0
10
144.8124803
20
-181.0935871
11
152.3033235
21
-166.3919794
0
LINE
8
0
10
152.3033235
20
-166.3919794
11
136.7107093
21
-158.4471457
0
LINE
8
0
10
136.7107093
20
-158.4471457
11
129.2198661
21
-173.1487534
0
LINE
8
0
10
137.1646998
20
-157.5561392
11
152.757314
21
-165.5009729
0
LINE
8
0
10
152.757314
20
-165.5009729
11
160.2481572
21
-150.7993652
0
LINE
8
0
10
160.2481572
20
-150.7993652
11
144.655543
21
-142.8545315
0
LINE
8
0
10
144.655543
20
-142.8545315
11
137.1646998
21
-157.5561392
0
LINE
8
0
10
147.4085757
20
-177.578693
11
162.7144206
21
-186.0628614
0
LINE
8
0
10
162.7144206
20
-186.0628614
11
170.7137793
21
-171.6316362
0
LINE
8
0
10
170.7137793
20
-171.6316362
11
155.4079344
21
-163.1474678
0
LINE
8
0
10
155.4079344
20
-163.1474678
11
147.4085757
21
-177.578693
0
LINE
8
0
10
155.892744
20
-162.2728481
11
171.1985889
21
-170.7570165
0
LINE
8
0
10
171.1985889
20
-170.7570165
11
179.1979476
21
-156.3257913
0
LINE
8
0
10
179.1979476
20
-156.3257913
11
163.8921027
21
-147.8416229
0
LINE
8
0
10
163.8921027
20
-147.8416229
11
155.892744
21
-162.2728481
0
LINE
8
0
10
161.2015174
20
-190.0021456
11
174.6072952
21
-201.2509287
0
LINE
8
0
10
174.6072952
20
-201.2509287
11
185.2132908
21
-188.6111954
0
LINE
8
0
10
185.2132908
20
-188.6111954
11
171.807513
21
-177.3624123
0
LINE
8
0
10
171.807513
20
-177.3624123
11
161.2015174
21
-190.0021456
0
LINE
8
0
10
172.4503005
20
-176.5963678
11
185.8560783
21
-187.8451509
0
LINE
8
0
10
185.8560783
20
-187.8451509
11
196.4620739
21
-175.2054176
0
LINE
8
0
10
196.4620739
20
-175.2054176
11
183.0562961
21
-163.9566345
0
LINE
8
0
10
183.0562961
20
-163.9566345
11
172.4503005
21
-176.5963678
0
LINE
8
0
10
312.4422221
20
-177.6048845
11
328.8868429
21
-171.619532
0
LINE
8
0
10
328.8868429
20
-171.619532
11
323.2435105
21
-156.1146037
0
LINE
8
0
10
323.2435105
20
-156.1146037
11
306.7988897
21
-162.0999562
0
LINE
8
0
10
306.7988897
20
-162.0999562
11
312.4422221
21
-177.6048845
0
LINE
8
0
10
294.0998941
20
-181.0935871
11
309.6925083
21
-173.1487534
0
LINE
8
0
10
309.6925083
20
-173.1487534
11
302.2016651
21
-158.4471457
0
LINE
8
0
10
302.2016651
20
-158.4471457
11
286.6090509
21
-166.3919794
0
LINE
8
0
10
286.6090509
20
-166.3919794
11
294.0998941
21
-181.0935871
0
LINE
8
0
10
286.1550604
20
-165.5009729
11
301.7476746
21
-157.5561392
0
LINE
8
0
10
301.7476746
20
-157.5561392
11
294.2568314
21
-142.8545315
0
LINE
8
0
10
294.2568314
20
-142.8545315
11
278.6642172
21
-150.7993652
0
LINE
8
0
10
278.6642172
20
-150.7993652
11
286.1550604
21
-165.5009729
0
LINE
8
0
10
276.1979538
20
-186.0628614
11
291.5037987
21
-177.578693
0
LINE
8
0
10
291.5037987
20
-177.578693
11
283.50444
21
-163.1474678
0
LINE
8
0
10
283.50444
20
-163.1474678
11
268.1985951
21
-171.6316362
0
LINE
8
0
10
268.1985951
20
-171.6316362
11
276.1979538
21
-186.0628614
0
LINE
8
0
10
267.7137855
20
-170.7570165
11
283.0196304
21
-162.2728481
0
LINE
8
0
10
283.0196304
20
-162.2728481
11
275.0202717
21
-147.8416229
0
LINE
8
0
10
275.0202717
20
-147.8416229
11
259.7144268
21
-156.3257913
0
LINE
8
0
10
259.7144268
20
-156.3257913
11
267.7137855
21
-170.7570165
0
LINE
8
0
10
264.3050792
20
-201.2509287
11
277.710857
21
-190.0021456
0
LINE
8
0
10
277.710857
20
-190.0021456
11
267.1048614
21
-177.3624123
0
LINE
8
0
10
267.1048614
20
-177.3624123
11
253.6990836
21
-188.6111954
0
LINE
8
0
10
253.6990836
20
-188.6111954
11
264.3050792
21
-201.2509287
0
LINE
8
0
10
253.0562961
20
-187.8451509
11
266.4620739
21
-176.5963678
0
LINE
8
0
10
266.4620739
20
-176.5963678
11
255.8560783
21
-163.9566345
0
LINE
8
0
10
255.8560783
20
-163.9566345
11
242.4503005
21
-175.2054176
0
LINE
8
0
10
242.4503005
20
-175.2054176
11
253.0562961
21
-187.8451509
0
LINE
8
0
10
156.4555933
20
-211.3083869
11
168.3905646
21
-224.1070767
0
LINE
8
0
10
168.3905646
20
-224.1070767
11
180.4579007
21
-212.8541037
0
LINE
8
0
10
180.4579007
20
-212.8541037
11
168.5229294
21
-200.0554139
0
LINE
8
0
10
168.5229294
20
-200.0554139
11
156.4555933
21
-211.3083869
0
LINE
8
0
10
168.6598172
20
-224.6580523
11
177.9334044
21
-239.498894
0
LINE
8
0
10
177.9334044
20
-239.498894
11
191.926198
21
-230.7552261
0
LINE
8
0
10
191.926198
20
-230.7552261
11
182.6526108
21
-215.9143844
0
LINE
8
0
10
182.6526108
20
-215.9143844
11
168.6598172
21
-224.6580523
0
LINE
8
0
10
270.5218098
20
-224.1070767
11
282.4567811
21
-211.3083869
0
LINE
8
0
10
282.4567811
20
-211.3083869
11
270.389445
21
-200.0554139
0
LINE
8
0
10
270.389445
20
-200.0554139
11
258.4544737
21
-212.8541037
0
LINE
8
0
10
258.4544737
20
-212.8541037
11
270.5218098
21
-224.1070767
0
LINE
8
0
10
260.97897
20
-239.498894
11
270.2525572
21
-224.6580523
0
LINE
8
0
10
270.2525572
20
-224.6580523
11
256.2597636
21
-215.9143844
0
LINE
8
0
10
256.2597636
20
-215.9143844
11
246.9861764
21
-230.7552261
0
LINE
8
0
10
246.9861764
20
-230.7552261
11
260.97897
21
-239.498894
0
LINE
8
0
10
210.5561872
20
-196.9008927
11
228.3561872
21
-196.9008927
0
LINE
8
0
10
228.3561872
20
-196.9008927
11
228.3561872
21
-175.9008927
0
LINE
8
0
10
228.3561872
20
-175.9008927
11
223.4561872
21
-175.9008927
0
LINE
8
0
10
215.4561872
20
-175.9008927
11
210.5561872
21
-175.9008927
0
LINE
8
0
10
210.5561872
20
-175.9008927
11
210.5561872
21
-196.9008927
0
LINE
8
0
10
223.4561872
20
-175.9008927
11
223.4561872
21
-172.9008927
0
LINE
8
0
10
223.4561872
20
-172.9008927
11
215.4561872
21
-172.9008927
0
LINE
8
0
10
215.4561872
20
-172.9008927
11
215.4561872
21
-175.9008927
0
ENDSEC
0
EOF