0
SECTION
2
HEADER
9
$INSUNITS
70
4
0
ENDSEC
0
SECTION
2
TABLES
0
TABLE
2
LTYPE
0
LTYPE
72
65
70
64
2
CONTINUOUS
3
______
73
0
40
0
0
ENDTAB
0
TABLE
2
LAYER
0
ENDTAB
0
ENDSEC
0
SECTION
2
ENTITIES
0
LINE
8
0
10
-11.1143778
20
-5.4859463
11
4.1841558
21
-11.666955
0
LINE
8
0
10
6.1368415
20
-10.8380891
11
7.6352678
21
-7.1293538
0
LINE
8
0
10
10.187194
20
5.8605529
11
-4.1841558
21
11.666955
0
LINE
8
0
10
-6.1368415
20
10.8380891
11
-11.9432437
21
-3.5332606
0
LINE
8
0
10
9.5879535
20
-6.3004879
11
23.9593033
21
-12.10689
0
LINE
8
0
10
25.911989
20
-11.2780241
11
26.2865955
21
-10.3508404
0
LINE
8
0
10
12.1398797
20
6.6894188
11
20.1939213
21
26.6238716
0
LINE
8
0
10
36.5179568
20
21.6463354
11
22.146607
21
27.4527375
0
LINE
8
0
10
28.2392812
20
-9.5219745
11
41.6834471
21
-14.95377
0
LINE
8
0
10
55.8015144
20
13.3160049
11
56.9253342
21
16.0975565
0
LINE
8
0
10
56.0964683
20
18.0502422
11
40.7979347
21
24.2312509
0
LINE
8
0
10
38.845249
20
23.402385
11
38.4706425
21
22.4752013
0
LINE
8
0
10
42.2173591
20
-21.640693
11
56.5887088
21
-27.4470951
0
LINE
8
0
10
59.843185
20
-26.065652
11
71.830596
21
3.6042314
0
LINE
8
0
10
42.512313
20
-16.9064557
11
41.3884932
21
-19.6880073
0
LINE
8
0
10
71.0017301
20
5.5569171
11
56.6303803
21
11.3633192
0
LINE
8
0
10
208.0905488
20
-11.666955
11
223.3890824
21
-5.4859463
0
LINE
8
0
10
224.2179483
20
-3.5332606
11
218.4115461
21
10.8380891
0
LINE
8
0
10
216.4588604
20
11.666955
11
202.0875106
21
5.8605529
0
LINE
8
0
10
204.6394368
20
-7.1293538
11
206.1378631
21
-10.8380891
0
LINE
8
0
10
188.3154013
20
-12.10689
11
202.6867511
21
-6.3004879
0
LINE
8
0
10
192.0807833
20
26.6238716
11
200.1348249
21
6.6894188
0
LINE
8
0
10
185.9881091
20
-10.3508404
11
186.3627156
21
-11.2780241
0
LINE
8
0
10
190.1280976
20
27.4527375
11
175.7567478
21
21.6463354
0
LINE
8
0
10
170.5912575
20
-14.95377
11
184.0354234
21
-9.5219745
0
LINE
8
0
10
173.8040621
20
22.4752013
11
173.4294556
21
23.402385
0
LINE
8
0
10
171.4767699
20
24.2312509
11
156.1782363
21
18.0502422
0
LINE
8
0
10
155.3493704
20
16.0975565
11
156.4731902
21
13.3160049
0
LINE
8
0
10
155.6859958
20
-27.4470951
11
170.0573455
21
-21.640693
0
LINE
8
0
10
170.8862114
20
-19.6880073
11
169.7623916
21
-16.9064557
0
LINE
8
0
10
140.4441086
20
3.6042314
11
152.4315196
21
-26.065652
0
LINE
8
0
10
155.6443243
20
11.3633192
11
141.2729745
21
5.5569171
0
LINE
8
0
10
52.814645
20
-44.7966324
11
85.2660799
21
-57.9078631
0
LINE
8
0
10
60.6720509
20
-28.0183377
11
92.1963019
21
-40.7549618
0
LINE
8
0
10
57.4175747
20
-29.3997808
11
51.9857791
21
-42.8439467
0
LINE
8
0
10
87.2187656
20
-57.0789972
11
93.0251678
21
-42.7076475
0
LINE
8
0
10
127.0086247
20
-57.9078631
11
159.4600596
21
-44.7966324
0
LINE
8
0
10
160.2889255
20
-42.8439467
11
154.8571299
21
-29.3997808
0
LINE
8
0
10
120.0784027
20
-40.7549618
11
151.6026537
21
-28.0183377
0
LINE
8
0
10
119.2495368
20
-42.7076475
11
125.055939
21
-57.0789972
0
ARC
8
0
10
4.7460657
20
-10.2761792
40
1.5
50
248.0000006
51
338.0000006
0
ARC
8
0
10
9.0260436
20
-7.6912637
40
1.5
50
68.0000006
51
158.0000006
0
ARC
8
0
10
24.5212132
20
-10.7161142
40
1.5
50
248.0000006
51
338.0000006
0
ARC
8
0
10
27.6773713
20
-10.9127503
40
1.5
50
68.0000006
51
158.0000006
0
ARC
8
0
10
41.1215372
20
-16.3445458
40
1.5
50
338.0000006
51
68.0000006
0
ARC
8
0
10
42.779269
20
-20.2499172
40
1.5
50
158.0000006
51
248.0000006
0
ARC
8
0
10
56.0267989
20
-28.8378709
40
1.5
50
338.0000006
51
68.0000006
0
ARC
8
0
10
53.3765549
20
-43.4058566
40
1.5
50
158.0000006
51
248.0000006
0
ARC
8
0
10
85.8279898
20
-56.5170873
40
1.5
50
248.0000006
51
338.0000006
0
ARC
8
0
10
91.634392
20
-42.1457376
40
1.5
50
338.0000006
51
68.0000006
0
ARC
8
0
10
61.2339608
20
-26.6275619
40
1.5
50
158.0000006
51
248.0000006
0
ARC
8
0
10
70.4398202
20
4.1661413
40
1.5
50
338.0000006
51
68.0000006
0
ARC
8
0
10
57.1922902
20
12.754095
40
1.5
50
158.0000006
51
248.0000006
0
ARC
8
0
10
55.5345584
20
16.6594664
40
1.5
50
338.0000006
51
68.0000006
0
ARC
8
0
10
40.2360248
20
22.8404751
40
1.5
50
68.0000006
51
158.0000006
0
ARC
8
0
10
37.0798667
20
23.0371112
40
1.5
50
248.0000006
51
338.0000006
0
ARC
8
0
10
21.5846971
20
26.0619617
40
1.5
50
68.0000006
51
158.0000006
0
ARC
8
0
10
10.7491039
20
7.2513287
40
1.5
50
248.0000006
51
338.0000006
0
ARC
8
0
10
-4.7460657
20
10.2761792
40
1.5
50
68.0000006
51
158.0000006
0
ARC
8
0
10
-10.5524679
20
-4.0951705
40
1.5
50
158.0000006
51
248.0000006
0
ARC
8
0
10
222.8271725
20
-4.0951705
40
1.5
50
291.9999994
51
21.9999994
0
ARC
8
0
10
217.0207703
20
10.2761792
40
1.5
50
21.9999994
51
111.9999994
0
ARC
8
0
10
201.5256007
20
7.2513287
40
1.5
50
201.9999994
51
291.9999994
0
ARC
8
0
10
190.6900075
20
26.0619617
40
1.5
50
21.9999994
51
111.9999994
0
ARC
8
0
10
175.1948379
20
23.0371112
40
1.5
50
201.9999994
51
291.9999994
0
ARC
8
0
10
172.0386798
20
22.8404751
40
1.5
50
21.9999994
51
111.9999994
0
ARC
8
0
10
156.7401462
20
16.6594664
40
1.5
50
111.9999994
51
201.9999994
0
ARC
8
0
10
155.0824144
20
12.754095
40
1.5
50
291.9999994
51
21.9999994
0
ARC
8
0
10
141.8348844
20
4.1661413
40
1.5
50
111.9999994
51
201.9999994
0
ARC
8
0
10
151.0407438
20
-26.6275619
40
1.5
50
291.9999994
51
21.9999994
0
ARC
8
0
10
120.6403126
20
-42.1457376
40
1.5
50
111.9999994
51
201.9999994
0
ARC
8
0
10
126.4467148
20
-56.5170873
40
1.5
50
201.9999994
51
291.9999994
0
ARC
8
0
10
158.8981497
20
-43.4058566
40
1.5
50
291.9999994
51
21.9999994
0
ARC
8
0
10
156.2479057
20
-28.8378709
40
1.5
50
111.9999994
51
201.9999994
0
ARC
8
0
10
169.4954356
20
-20.2499172
40
1.5
50
291.9999994
51
21.9999994
0
ARC
8
0
10
171.1531674
20
-16.3445458
40
1.5
50
111.9999994
51
201.9999994
0
ARC
8
0
10
184.5973333
20
-10.9127503
40
1.5
50
21.9999994
51
111.9999994
0
ARC
8
0
10
187.7534914
20
-10.7161142
40
1.5
50
201.9999994
51
291.9999994
0
ARC
8
0
10
203.248661
20
-7.6912637
40
1.5
50
21.9999994
51
111.9999994
0
ARC
8
0
10
207.5286389
20
-10.2761792
40
1.5
50
201.9999994
51
291.9999994
0
LINE
8
0
10
-11.2033631
20
-4.3714591
11
5.0223543
21
-10.9270745
0
LINE
8
0
10
5.0223543
20
-10.9270745
11
11.2033631
21
4.3714591
0
LINE
8
0
10
11.2033631
20
4.3714591
11
-5.0223543
21
10.9270745
0
LINE
8
0
10
-5.0223543
20
10.9270745
11
-11.2033631
21
-4.3714591
0
LINE
8
0
10
8.5717844
20
-4.8113941
11
24.7975018
21
-11.3670095
0
LINE
8
0
10
24.7975018
20
-11.3670095
11
30.9785106
21
3.9315241
0
LINE
8
0
10
30.9785106
20
3.9315241
11
14.7527932
21
10.4871395
0
LINE
8
0
10
14.7527932
20
10.4871395
11
8.5717844
21
-4.8113941
0
LINE
8
0
10
15.1273997
20
11.4143234
11
31.3531171
21
4.858708
0
LINE
8
0
10
31.3531171
20
4.858708
11
37.5341259
21
20.1572416
0
LINE
8
0
10
37.5341259
20
20.1572416
11
21.3084085
21
26.712857
0
LINE
8
0
10
21.3084085
20
26.712857
11
15.1273997
21
11.4143234
0
LINE
8
0
10
27.223112
20
-8.0328807
11
43.4488294
21
-14.5884961
0
LINE
8
0
10
43.4488294
20
-14.5884961
11
49.6298382
21
0.7100375
0
LINE
8
0
10
49.6298382
20
0.7100375
11
33.4041208
21
7.2656529
0
LINE
8
0
10
33.4041208
20
7.2656529
11
27.223112
21
-8.0328807
0
LINE
8
0
10
33.7787274
20
8.1928368
11
50.0044448
21
1.6372214
0
LINE
8
0
10
50.0044448
20
1.6372214
11
56.1854536
21
16.935755
0
LINE
8
0
10
56.1854536
20
16.935755
11
39.9597362
21
23.4913704
0
LINE
8
0
10
39.9597362
20
23.4913704
11
33.7787274
21
8.1928368
0
LINE
8
0
10
42.1283738
20
-20.5262058
11
58.3540912
21
-27.0818212
0
LINE
8
0
10
58.3540912
20
-27.0818212
11
64.5351
21
-11.7832876
0
LINE
8
0
10
64.5351
20
-11.7832876
11
48.3093826
21
-5.2276722
0
LINE
8
0
10
48.3093826
20
-5.2276722
11
42.1283738
21
-20.5262058
0
LINE
8
0
10
48.6839892
20
-4.3004883
11
64.9097066
21
-10.8561037
0
LINE
8
0
10
64.9097066
20
-10.8561037
11
71.0907154
21
4.4424299
0
LINE
8
0
10
71.0907154
20
4.4424299
11
54.864998
21
10.9980453
0
LINE
8
0
10
54.864998
20
10.9980453
11
48.6839892
21
-4.3004883
0
LINE
8
0
10
207.2523503
20
-10.9270745
11
223.4780677
21
-4.3714591
0
LINE
8
0
10
223.4780677
20
-4.3714591
11
217.2970589
21
10.9270745
0
LINE
8
0
10
217.2970589
20
10.9270745
11
201.0713415
21
4.3714591
0
LINE
8
0
10
201.0713415
20
4.3714591
11
207.2523503
21
-10.9270745
0
LINE
8
0
10
187.4772028
20
-11.3670095
11
203.7029202
21
-4.8113941
0
LINE
8
0
10
203.7029202
20
-4.8113941
11
197.5219114
21
10.4871395
0
LINE
8
0
10
197.5219114
20
10.4871395
11
181.296194
21
3.9315241
0
LINE
8
0
10
181.296194
20
3.9315241
11
187.4772028
21
-11.3670095
0
LINE
8
0
10
180.9215875
20
4.858708
11
197.1473049
21
11.4143234
0
LINE
8
0
10
197.1473049
20
11.4143234
11
190.9662961
21
26.712857
0
LINE
8
0
10
190.9662961
20
26.712857
11
174.7405787
21
20.1572416
0
LINE
8
0
10
174.7405787
20
20.1572416
11
180.9215875
21
4.858708
0
LINE
8
0
10
168.8258752
20
-14.5884961
11
185.0515926
21
-8.0328807
0
LINE
8
0
10
185.0515926
20
-8.0328807
11
178.8705838
21
7.2656529
0
LINE
8
0
10
178.8705838
20
7.2656529
11
162.6448664
21
0.7100375
0
LINE
8
0
10
162.6448664
20
0.7100375
11
168.8258752
21
-14.5884961
0
LINE
8
0
10
162.2702598
20
1.6372214
11
178.4959772
21
8.1928368
0
LINE
8
0
10
178.4959772
20
8.1928368
11
172.3149684
21
23.4913704
0
LINE
8
0
10
172.3149684
20
23.4913704
11
156.089251
21
16.935755
0
LINE
8
0
10
156.089251
20
16.935755
11
162.2702598
21
1.6372214
0
LINE
8
0
10
153.9206134
20
-27.0818212
11
170.1463308
21
-20.5262058
0
LINE
8
0
10
170.1463308
20
-20.5262058
11
163.965322
21
-5.2276722
0
LINE
8
0
10
163.965322
20
-5.2276722
11
147.7396046
21
-11.7832876
0
LINE
8
0
10
147.7396046
20
-11.7832876
11
153.9206134
21
-27.0818212
0
LINE
8
0
10
147.364998
20
-10.8561037
11
163.5907154
21
-4.3004883
0
LINE
8
0
10
163.5907154
20
-4.3004883
11
157.4097066
21
10.9980453
0
LINE
8
0
10
157.4097066
20
10.9980453
11
141.1839892
21
4.4424299
0
LINE
8
0
10
141.1839892
20
4.4424299
11
147.364998
21
-10.8561037
0
LINE
8
0
10
52.7256597
20
-43.6821452
11
68.9513771
21
-50.2377606
0
LINE
8
0
10
68.9513771
20
-50.2377606
11
75.1323859
21
-34.939227
0
LINE
8
0
10
75.1323859
20
-34.939227
11
58.9066685
21
-28.3836116
0
LINE
8
0
10
58.9066685
20
-28.3836116
11
52.7256597
21
-43.6821452
0
LINE
8
0
10
69.878561
20
-50.6123672
11
86.1042784
21
-57.1679826
0
LINE
8
0
10
86.1042784
20
-57.1679826
11
92.2852872
21
-41.869449
0
LINE
8
0
10
92.2852872
20
-41.869449
11
76.0595698
21
-35.3138336
0
LINE
8
0
10
76.0595698
20
-35.3138336
11
69.878561
21
-50.6123672
0
LINE
8
0
10
143.3233275
20
-50.2377606
11
159.5490449
21
-43.6821452
0
LINE
8
0
10
159.5490449
20
-43.6821452
11
153.3680361
21
-28.3836116
0
LINE
8
0
10
153.3680361
20
-28.3836116
11
137.1423187
21
-34.939227
0
LINE
8
0
10
137.1423187
20
-34.939227
11
143.3233275
21
-50.2377606
0
LINE
8
0
10
126.1704262
20
-57.1679826
11
142.3961436
21
-50.6123672
0
LINE
8
0
10
142.3961436
20
-50.6123672
11
136.2151348
21
-35.3138336
0
LINE
8
0
10
136.2151348
20
-35.3138336
11
119.9894174
21
-41.869449
0
LINE
8
0
10
119.9894174
20
-41.869449
11
126.1704262
21
-57.1679826
0
ENDSEC
0
EOF