0
SECTION
2
HEADER
9
$INSUNITS
70
4
0
ENDSEC
0
SECTION
2
TABLES
0
TABLE
2
LTYPE
0
LTYPE
72
65
70
64
2
CONTINUOUS
3
______
73
0
40
0
0
ENDTAB
0
TABLE
2
LAYER
0
ENDTAB
0
ENDSEC
0
SECTION
2
ENTITIES
0
LINE
8
0
10
-11.1143778
20
-5.4859463
11
54.7156758
21
-32.0830143
0
LINE
8
0
10
10.1871939
20
5.8605528
11
-4.1841558
21
11.666955
0
LINE
8
0
10
-6.1368415
20
10.8380891
11
-11.9432437
21
-3.5332606
0
LINE
8
0
10
19.5243609
20
20.9624505
11
69.1286971
21
0.9209978
0
LINE
8
0
10
12.1398796
20
6.6894187
11
17.5716752
21
20.1335846
0
LINE
8
0
10
57.970152
20
-30.7015712
11
69.957563
21
-1.0316879
0
LINE
8
0
10
153.8129628
20
-32.0830143
11
219.6430164
21
-5.4859463
0
LINE
8
0
10
220.4718823
20
-3.5332606
11
214.6654801
21
10.8380891
0
LINE
8
0
10
212.7127944
20
11.666955
11
198.3414447
21
5.8605528
0
LINE
8
0
10
190.9569634
20
20.1335846
11
196.388759
21
6.6894187
0
LINE
8
0
10
139.3999415
20
0.9209978
11
189.0042777
21
20.9624505
0
LINE
8
0
10
138.5710756
20
-1.0316879
11
150.5584866
21
-30.7015712
0
LINE
8
0
10
50.941612
20
-49.4325516
11
83.3930469
21
-62.5437823
0
LINE
8
0
10
58.7990179
20
-32.6542569
11
90.3232689
21
-45.390881
0
LINE
8
0
10
55.5445417
20
-34.0357
11
50.1127461
21
-47.4798659
0
LINE
8
0
10
85.3457326
20
-61.7149164
11
91.1521348
21
-47.3435667
0
LINE
8
0
10
125.1355917
20
-62.5437823
11
157.5870266
21
-49.4325516
0
LINE
8
0
10
158.4158925
20
-47.4798659
11
152.9840969
21
-34.0357
0
LINE
8
0
10
118.2053697
20
-45.390881
11
149.7296207
21
-32.6542569
0
LINE
8
0
10
117.3765038
20
-47.3435667
11
123.182906
21
-61.7149164
0
ARC
8
0
10
54.1537659
20
-33.4737901
40
1.5
50
338.0000006
51
68.0000006
0
ARC
8
0
10
51.5035219
20
-48.0417758
40
1.5
50
158.0000006
51
248.0000006
0
ARC
8
0
10
83.9549568
20
-61.1530065
40
1.5
50
248.0000006
51
338.0000006
0
ARC
8
0
10
89.761359
20
-46.7816568
40
1.5
50
338.0000006
51
68.0000006
0
ARC
8
0
10
59.3609278
20
-31.2634811
40
1.5
50
158.0000006
51
248.0000006
0
ARC
8
0
10
68.5667872
20
-0.469778
40
1.5
50
338.0000006
51
68.0000006
0
ARC
8
0
10
18.962451
20
19.5716747
40
1.5
50
68.0000006
51
158.0000006
0
ARC
8
0
10
10.7491038
20
7.2513286
40
1.5
50
248.0000006
51
338.0000006
0
ARC
8
0
10
-4.7460657
20
10.2761792
40
1.5
50
68.0000006
51
158.0000006
0
ARC
8
0
10
-10.5524679
20
-4.0951705
40
1.5
50
158.0000006
51
248.0000006
0
ARC
8
0
10
219.0811065
20
-4.0951705
40
1.5
50
291.9999994
51
21.9999994
0
ARC
8
0
10
213.2747043
20
10.2761792
40
1.5
50
21.9999994
51
111.9999994
0
ARC
8
0
10
197.7795348
20
7.2513286
40
1.5
50
201.9999994
51
291.9999994
0
ARC
8
0
10
189.5661876
20
19.5716747
40
1.5
50
21.9999994
51
111.9999994
0
ARC
8
0
10
139.9618514
20
-0.469778
40
1.5
50
111.9999994
51
201.9999994
0
ARC
8
0
10
149.1677108
20
-31.2634811
40
1.5
50
291.9999994
51
21.9999994
0
ARC
8
0
10
118.7672796
20
-46.7816568
40
1.5
50
111.9999994
51
201.9999994
0
ARC
8
0
10
124.5736818
20
-61.1530065
40
1.5
50
201.9999994
51
291.9999994
0
ARC
8
0
10
157.0251167
20
-48.0417758
40
1.5
50
291.9999994
51
21.9999994
0
ARC
8
0
10
154.3748727
20
-33.4737901
40
1.5
50
111.9999994
51
201.9999994
0
LINE
8
0
10
-11.2033631
20
-4.3714591
11
5.0223543
21
-10.9270745
0
LINE
8
0
10
5.0223543
20
-10.9270745
11
11.2033631
21
4.3714591
0
LINE
8
0
10
11.2033631
20
4.3714591
11
-5.0223543
21
10.9270745
0
LINE
8
0
10
-5.0223543
20
10.9270745
11
-11.2033631
21
-4.3714591
0
LINE
8
0
10
5.9495382
20
-11.3016811
11
22.1752556
21
-17.8572965
0
LINE
8
0
10
22.1752556
20
-17.8572965
11
28.3562644
21
-2.5587629
0
LINE
8
0
10
28.3562644
20
-2.5587629
11
12.130547
21
3.9968525
0
LINE
8
0
10
12.130547
20
3.9968525
11
5.9495382
21
-11.3016811
0
LINE
8
0
10
12.5051536
20
4.9240364
11
28.730871
21
-1.631579
0
LINE
8
0
10
28.730871
20
-1.631579
11
34.9118798
21
13.6669546
0
LINE
8
0
10
34.9118798
20
13.6669546
11
18.6861624
21
20.22257
0
LINE
8
0
10
18.6861624
20
20.22257
11
12.5051536
21
4.9240364
0
LINE
8
0
10
23.1024395
20
-18.2319031
11
39.3281569
21
-24.7875185
0
LINE
8
0
10
39.3281569
20
-24.7875185
11
45.5091657
21
-9.4889849
0
LINE
8
0
10
45.5091657
20
-9.4889849
11
29.2834483
21
-2.9333695
0
LINE
8
0
10
29.2834483
20
-2.9333695
11
23.1024395
21
-18.2319031
0
LINE
8
0
10
29.6580549
20
-2.0061856
11
45.8837723
21
-8.561801
0
LINE
8
0
10
45.8837723
20
-8.561801
11
52.0647811
21
6.7367326
0
LINE
8
0
10
52.0647811
20
6.7367326
11
35.8390637
21
13.292348
0
LINE
8
0
10
35.8390637
20
13.292348
11
29.6580549
21
-2.0061856
0
LINE
8
0
10
40.2553408
20
-25.162125
11
56.4810582
21
-31.7177404
0
LINE
8
0
10
56.4810582
20
-31.7177404
11
62.662067
21
-16.4192068
0
LINE
8
0
10
62.662067
20
-16.4192068
11
46.4363496
21
-9.8635914
0
LINE
8
0
10
46.4363496
20
-9.8635914
11
40.2553408
21
-25.162125
0
LINE
8
0
10
46.8109562
20
-8.9364076
11
63.0366736
21
-15.492023
0
LINE
8
0
10
63.0366736
20
-15.492023
11
69.2176824
21
-0.1934894
0
LINE
8
0
10
69.2176824
20
-0.1934894
11
52.991965
21
6.362126
0
LINE
8
0
10
52.991965
20
6.362126
11
46.8109562
21
-8.9364076
0
LINE
8
0
10
203.5062843
20
-10.9270745
11
219.7320017
21
-4.3714591
0
LINE
8
0
10
219.7320017
20
-4.3714591
11
213.5509929
21
10.9270745
0
LINE
8
0
10
213.5509929
20
10.9270745
11
197.3252755
21
4.3714591
0
LINE
8
0
10
197.3252755
20
4.3714591
11
203.5062843
21
-10.9270745
0
LINE
8
0
10
186.353383
20
-17.8572965
11
202.5791004
21
-11.3016811
0
LINE
8
0
10
202.5791004
20
-11.3016811
11
196.3980916
21
3.9968525
0
LINE
8
0
10
196.3980916
20
3.9968525
11
180.1723742
21
-2.5587629
0
LINE
8
0
10
180.1723742
20
-2.5587629
11
186.353383
21
-17.8572965
0
LINE
8
0
10
179.7977676
20
-1.631579
11
196.023485
21
4.9240364
0
LINE
8
0
10
196.023485
20
4.9240364
11
189.8424762
21
20.22257
0
LINE
8
0
10
189.8424762
20
20.22257
11
173.6167588
21
13.6669546
0
LINE
8
0
10
173.6167588
20
13.6669546
11
179.7977676
21
-1.631579
0
LINE
8
0
10
169.2004817
20
-24.7875185
11
185.4261991
21
-18.2319031
0
LINE
8
0
10
185.4261991
20
-18.2319031
11
179.2451903
21
-2.9333695
0
LINE
8
0
10
179.2451903
20
-2.9333695
11
163.0194729
21
-9.4889849
0
LINE
8
0
10
163.0194729
20
-9.4889849
11
169.2004817
21
-24.7875185
0
LINE
8
0
10
162.6448663
20
-8.561801
11
178.8705837
21
-2.0061856
0
LINE
8
0
10
178.8705837
20
-2.0061856
11
172.6895749
21
13.292348
0
LINE
8
0
10
172.6895749
20
13.292348
11
156.4638575
21
6.7367326
0
LINE
8
0
10
156.4638575
20
6.7367326
11
162.6448663
21
-8.561801
0
LINE
8
0
10
152.0475804
20
-31.7177404
11
168.2732978
21
-25.162125
0
LINE
8
0
10
168.2732978
20
-25.162125
11
162.092289
21
-9.8635914
0
LINE
8
0
10
162.092289
20
-9.8635914
11
145.8665716
21
-16.4192068
0
LINE
8
0
10
145.8665716
20
-16.4192068
11
152.0475804
21
-31.7177404
0
LINE
8
0
10
145.491965
20
-15.492023
11
161.7176824
21
-8.9364076
0
LINE
8
0
10
161.7176824
20
-8.9364076
11
155.5366736
21
6.362126
0
LINE
8
0
10
155.5366736
20
6.362126
11
139.3109562
21
-0.1934894
0
LINE
8
0
10
139.3109562
20
-0.1934894
11
145.491965
21
-15.492023
0
LINE
8
0
10
50.8526267
20
-48.3180644
11
67.0783441
21
-54.8736798
0
LINE
8
0
10
67.0783441
20
-54.8736798
11
73.2593529
21
-39.5751462
0
LINE
8
0
10
73.2593529
20
-39.5751462
11
57.0336355
21
-33.0195308
0
LINE
8
0
10
57.0336355
20
-33.0195308
11
50.8526267
21
-48.3180644
0
LINE
8
0
10
68.005528
20
-55.2482864
11
84.2312454
21
-61.8039018
0
LINE
8
0
10
84.2312454
20
-61.8039018
11
90.4122542
21
-46.5053682
0
LINE
8
0
10
90.4122542
20
-46.5053682
11
74.1865368
21
-39.9497528
0
LINE
8
0
10
74.1865368
20
-39.9497528
11
68.005528
21
-55.2482864
0
LINE
8
0
10
141.4502945
20
-54.8736798
11
157.6760119
21
-48.3180644
0
LINE
8
0
10
157.6760119
20
-48.3180644
11
151.4950031
21
-33.0195308
0
LINE
8
0
10
151.4950031
20
-33.0195308
11
135.2692857
21
-39.5751462
0
LINE
8
0
10
135.2692857
20
-39.5751462
11
141.4502945
21
-54.8736798
0
LINE
8
0
10
124.2973932
20
-61.8039018
11
140.5231106
21
-55.2482864
0
LINE
8
0
10
140.5231106
20
-55.2482864
11
134.3421018
21
-39.9497528
0
LINE
8
0
10
134.3421018
20
-39.9497528
11
118.1163844
21
-46.5053682
0
LINE
8
0
10
118.1163844
20
-46.5053682
11
124.2973932
21
-61.8039018
0
ENDSEC
0
EOF