0
SECTION
2
HEADER
9
$INSUNITS
70
4
0
ENDSEC
0
SECTION
2
TABLES
0
TABLE
2
LTYPE
0
LTYPE
72
65
70
64
2
CONTINUOUS
3
______
73
0
40
0
0
ENDTAB
0
TABLE
2
LAYER
0
ENDTAB
0
ENDSEC
0
SECTION
2
ENTITIES
0
LINE
8
0
10
-8.25
20
-9.25
11
63.75
21
-9.25
0
LINE
8
0
10
7.25
20
9.25
11
-8.25
21
9.25
0
LINE
8
0
10
-9.75
20
7.75
11
-9.75
21
-7.75
0
LINE
8
0
10
10.25
20
26.75
11
63.75
21
26.75
0
LINE
8
0
10
8.75
20
10.75
11
8.75
21
25.25
0
LINE
8
0
10
65.25
20
-7.75
11
65.25
21
25.25
0
ARC
8
0
10
63.75
20
-7.75
40
1.5
50
270
51
0
0
ARC
8
0
10
63.75
20
25.25
40
1.5
50
0
51
90
0
ARC
8
0
10
10.25
20
25.25
40
1.5
50
90
51
180
0
ARC
8
0
10
7.25
20
10.75
40
1.5
50
270
51
0
0
ARC
8
0
10
-8.25
20
7.75
40
1.5
50
90
51
180
0
ARC
8
0
10
-8.25
20
-7.75
40
1.5
50
180
51
270
0
LINE
8
0
10
-8.75
20
-8.25
11
8.75
21
-8.25
0
LINE
8
0
10
8.75
20
-8.25
11
8.75
21
8.25
0
LINE
8
0
10
8.75
20
8.25
11
-8.75
21
8.25
0
LINE
8
0
10
-8.75
20
8.25
11
-8.75
21
-8.25
0
LINE
8
0
10
9.75
20
-8.25
11
27.25
21
-8.25
0
LINE
8
0
10
27.25
20
-8.25
11
27.25
21
8.25
0
LINE
8
0
10
27.25
20
8.25
11
9.75
21
8.25
0
LINE
8
0
10
9.75
20
8.25
11
9.75
21
-8.25
0
LINE
8
0
10
9.75
20
9.25
11
27.25
21
9.25
0
LINE
8
0
10
27.25
20
9.25
11
27.25
21
25.75
0
LINE
8
0
10
27.25
20
25.75
11
9.75
21
25.75
0
LINE
8
0
10
9.75
20
25.75
11
9.75
21
9.25
0
LINE
8
0
10
28.25
20
-8.25
11
45.75
21
-8.25
0
LINE
8
0
10
45.75
20
-8.25
11
45.75
21
8.25
0
LINE
8
0
10
45.75
20
8.25
11
28.25
21
8.25
0
LINE
8
0
10
28.25
20
8.25
11
28.25
21
-8.25
0
LINE
8
0
10
28.25
20
9.25
11
45.75
21
9.25
0
LINE
8
0
10
45.75
20
9.25
11
45.75
21
25.75
0
LINE
8
0
10
45.75
20
25.75
11
28.25
21
25.75
0
LINE
8
0
10
28.25
20
25.75
11
28.25
21
9.25
0
LINE
8
0
10
46.75
20
-8.25
11
64.25
21
-8.25
0
LINE
8
0
10
64.25
20
-8.25
11
64.25
21
8.25
0
LINE
8
0
10
64.25
20
8.25
11
46.75
21
8.25
0
LINE
8
0
10
46.75
20
8.25
11
46.75
21
-8.25
0
LINE
8
0
10
46.75
20
9.25
11
64.25
21
9.25
0
LINE
8
0
10
64.25
20
9.25
11
64.25
21
25.75
0
LINE
8
0
10
64.25
20
25.75
11
46.75
21
25.75
0
LINE
8
0
10
46.75
20
25.75
11
46.75
21
9.25
0
ENDSEC
0
EOF