0
SECTION
2
HEADER
9
$INSUNITS
70
4
0
ENDSEC
0
SECTION
2
TABLES
0
TABLE
2
LTYPE
0
LTYPE
72
65
70
64
2
CONTINUOUS
3
______
73
0
40
0
0
ENDTAB
0
TABLE
2
LAYER
0
ENDTAB
0
ENDSEC
0
SECTION
2
ENTITIES
0
LINE
8
0
10
-10.9161504
20
-5.8704905
11
4.5887779
21
-11.5138229
0
LINE
8
0
10
6.5113469
20
-10.6173142
11
11.8126592
21
3.9479215
0
LINE
8
0
10
10.9161504
20
5.8704905
11
-4.5887779
21
11.5138229
0
LINE
8
0
10
-6.5113469
20
10.6173142
11
-11.8126592
21
-3.9479215
0
LINE
8
0
10
11.9870091
20
-5.6139936
11
26.6886167
21
-13.1048368
0
LINE
8
0
10
28.7061122
20
-12.4493128
11
29.2720672
21
-11.3385637
0
LINE
8
0
10
11.3314851
20
-3.5964981
11
26.3131715
21
25.8067172
0
LINE
8
0
10
42.889688
20
19.0440496
11
28.330667
21
26.4622412
0
LINE
8
0
10
31.3357914
20
-10.7076198
11
43.5762268
21
-17.492604
0
LINE
8
0
10
55.463051
20
-1.4809965
11
62.6057927
21
11.4048507
0
LINE
8
0
10
62.0210775
20
13.4439947
11
47.5898524
21
21.4433535
0
LINE
8
0
10
45.5507084
20
20.8586383
11
44.8826033
21
19.6533449
0
LINE
8
0
10
43.7173822
20
-22.4368222
11
56.3571154
21
-33.0428178
0
LINE
8
0
10
58.4703635
20
-32.8579325
11
79.6823547
21
-7.5784659
0
LINE
8
0
10
57.9240472
20
-3.1723923
11
64.7444881
21
4.9558925
0
LINE
8
0
10
43.998079
20
-19.768715
11
43.5324969
21
-20.3235741
0
LINE
8
0
10
79.4974694
20
-5.4652178
11
66.8577362
21
5.1407778
0
LINE
8
0
10
199.8748569
20
-11.5138229
11
215.3797852
21
-5.8704905
0
LINE
8
0
10
216.276294
20
-3.9479215
11
210.9749817
21
10.6173142
0
LINE
8
0
10
209.0524127
20
11.5138229
11
193.5474844
21
5.8704905
0
LINE
8
0
10
192.6509756
20
3.9479215
11
197.9522879
21
-10.6173142
0
LINE
8
0
10
177.7750181
20
-13.1048368
11
192.4766257
21
-5.6139936
0
LINE
8
0
10
178.1504633
20
25.8067172
11
193.1321497
21
-3.5964981
0
LINE
8
0
10
175.1915676
20
-11.3385637
11
175.7575226
21
-12.4493128
0
LINE
8
0
10
176.1329678
20
26.4622412
11
161.5739468
21
19.0440496
0
LINE
8
0
10
160.887408
20
-17.492604
11
173.1278434
21
-10.7076198
0
LINE
8
0
10
141.8578421
20
11.4048507
11
149.0005838
21
-1.4809965
0
LINE
8
0
10
159.5810315
20
19.6533449
11
158.9129264
21
20.8586383
0
LINE
8
0
10
156.8737824
20
21.4433535
11
142.4425573
21
13.4439947
0
LINE
8
0
10
148.1065194
20
-33.0428178
11
160.7462526
21
-22.4368222
0
LINE
8
0
10
160.9311379
20
-20.3235741
11
160.4655558
21
-19.768715
0
LINE
8
0
10
139.7191467
20
4.9558925
11
146.5395876
21
-3.1723923
0
LINE
8
0
10
124.7812801
20
-7.5784659
11
145.9932713
21
-32.8579325
0
LINE
8
0
10
137.6058986
20
5.1407778
11
124.9661654
21
-5.4652178
0
LINE
8
0
10
38.8408689
20
-43.7033005
11
50.0432271
21
-55.7163588
0
LINE
8
0
10
57.1057619
20
-51.2829066
11
63.5498524
21
-45.273695
0
LINE
8
0
10
63.6238853
20
-43.1536669
11
52.3709123
21
-31.0863308
0
LINE
8
0
10
50.2508842
20
-31.0122979
11
38.9149018
21
-41.5832724
0
LINE
8
0
10
50.2182686
20
-55.9444775
11
59.5960267
21
-70.9520276
0
LINE
8
0
10
61.6629778
20
-71.4292208
11
74.8077233
21
-63.2154722
0
LINE
8
0
10
75.2849165
20
-61.1485211
11
66.5412487
21
-47.1557276
0
LINE
8
0
10
64.4742976
20
-46.6785344
11
57.1057619
21
-51.2829066
0
LINE
8
0
10
154.4204077
20
-55.7163588
11
165.6227659
21
-43.7033005
0
LINE
8
0
10
165.548733
20
-41.5832724
11
154.2127506
21
-31.0122979
0
LINE
8
0
10
152.0927225
20
-31.0863308
11
140.8397495
21
-43.1536669
0
LINE
8
0
10
140.9137824
20
-45.273695
11
147.3578729
21
-51.2829066
0
LINE
8
0
10
144.8676081
20
-70.9520276
11
154.2453662
21
-55.9444775
0
LINE
8
0
10
147.3578729
20
-51.2829066
11
139.9893372
21
-46.6785344
0
LINE
8
0
10
137.9223861
20
-47.1557276
11
129.1787183
21
-61.1485211
0
LINE
8
0
10
129.6559115
20
-63.2154722
11
142.800657
21
-71.4292208
0
ARC
8
0
10
27.3696025
20
-11.7683271
40
1.5
50
242.9999994
51
332.9999994
0
ARC
8
0
10
30.608577
20
-12.0195494
40
1.5
50
61.0000008
51
152.9999994
0
ARC
8
0
10
42.8490124
20
-18.8045335
40
1.5
50
319.9999988
51
61.0000008
0
ARC
8
0
10
44.6815636
20
-21.2877556
40
1.5
50
139.9999988
51
229.9999988
0
ARC
8
0
10
57.3212968
20
-31.8937511
40
1.5
50
229.9999988
51
319.9999988
0
ARC
8
0
10
78.533288
20
-6.6142845
40
1.5
50
319.9999988
51
49.9999988
0
ARC
8
0
10
65.8935548
20
3.9917111
40
1.5
50
49.9999988
51
139.9999988
0
ARC
8
0
10
56.7749806
20
-2.2082109
40
1.5
50
151.0000008
51
319.9999988
0
ARC
8
0
10
61.2938631
20
12.1320652
40
1.5
50
331.0000008
51
61.0000008
0
ARC
8
0
10
46.8626379
20
20.1314239
40
1.5
50
61.0000008
51
151.0000008
0
ARC
8
0
10
43.5706737
20
20.3805593
40
1.5
50
242.9999994
51
331.0000008
0
ARC
8
0
10
27.6496812
20
25.1257315
40
1.5
50
62.9999994
51
152.9999994
0
ARC
8
0
10
12.6679948
20
-4.2774839
40
1.5
50
152.9999994
51
242.9999994
0
ARC
8
0
10
191.79564
20
-4.2774839
40
1.5
50
297.0000006
51
27.0000006
0
ARC
8
0
10
176.8139536
20
25.1257315
40
1.5
50
27.0000006
51
117.0000006
0
ARC
8
0
10
160.8929611
20
20.3805593
40
1.5
50
208.9999992
51
297.0000006
0
ARC
8
0
10
157.6009969
20
20.1314239
40
1.5
50
28.9999992
51
118.9999992
0
ARC
8
0
10
143.1697717
20
12.1320652
40
1.5
50
118.9999992
51
208.9999992
0
ARC
8
0
10
147.6886542
20
-2.2082109
40
1.5
50
220.0000012
51
28.9999992
0
ARC
8
0
10
138.57008
20
3.9917111
40
1.5
50
40.0000012
51
130.0000012
0
ARC
8
0
10
125.9303468
20
-6.6142845
40
1.5
50
130.0000012
51
220.0000012
0
ARC
8
0
10
147.142338
20
-31.8937511
40
1.5
50
220.0000012
51
310.0000012
0
ARC
8
0
10
159.7820712
20
-21.2877556
40
1.5
50
310.0000012
51
40.0000012
0
ARC
8
0
10
161.6146224
20
-18.8045335
40
1.5
50
118.9999992
51
220.0000012
0
ARC
8
0
10
173.8550578
20
-12.0195494
40
1.5
50
27.0000006
51
118.9999992
0
ARC
8
0
10
177.0940323
20
-11.7683271
40
1.5
50
207.0000006
51
297.0000006
0
ARC
8
0
10
48.9461965
20
-56.7393564
40
1.5
50
32.0000016
51
43.0000017
0
ARC
8
0
10
60.8680988
20
-70.1571487
40
1.5
50
212.0000016
51
302.0000016
0
ARC
8
0
10
74.0128444
20
-61.9434001
40
1.5
50
302.0000016
51
32.0000016
0
ARC
8
0
10
65.2691766
20
-47.9506065
40
1.5
50
32.0000016
51
122.0000016
0
ARC
8
0
10
62.5268548
20
-44.1766645
40
1.5
50
313.0000017
51
43.0000017
0
ARC
8
0
10
51.2738818
20
-32.1093284
40
1.5
50
43.0000017
51
133.0000017
0
ARC
8
0
10
39.9378994
20
-42.6803029
40
1.5
50
133.0000017
51
223.0000017
0
ARC
8
0
10
164.5257354
20
-42.6803029
40
1.5
50
316.9999983
51
46.9999983
0
ARC
8
0
10
153.189753
20
-32.1093284
40
1.5
50
46.9999983
51
136.9999983
0
ARC
8
0
10
141.93678
20
-44.1766645
40
1.5
50
136.9999983
51
226.9999983
0
ARC
8
0
10
139.1944582
20
-47.9506065
40
1.5
50
57.9999984
51
147.9999984
0
ARC
8
0
10
130.4507904
20
-61.9434001
40
1.5
50
147.9999984
51
237.9999984
0
ARC
8
0
10
143.595536
20
-70.1571487
40
1.5
50
237.9999984
51
327.9999984
0
ARC
8
0
10
155.5174383
20
-56.7393564
40
1.5
50
136.9999983
51
147.9999984
0
ARC
8
0
10
5.101808
20
-10.104284
40
1.5
50
250.0000019
51
340.0000019
0
ARC
8
0
10
10.4031203
20
4.4609516
40
1.5
50
340.0000019
51
70.0000019
0
ARC
8
0
10
-5.101808
20
10.104284
40
1.5
50
70.0000019
51
160.0000019
0
ARC
8
0
10
-10.4031203
20
-4.4609516
40
1.5
50
160.0000019
51
250.0000019
0
ARC
8
0
10
214.8667551
20
-4.4609516
40
1.5
50
289.9999981
51
19.9999981
0
ARC
8
0
10
209.5654428
20
10.104284
40
1.5
50
19.9999981
51
109.9999981
0
ARC
8
0
10
194.0605145
20
4.4609516
40
1.5
50
109.9999981
51
199.9999981
0
ARC
8
0
10
199.3618268
20
-10.104284
40
1.5
50
199.9999981
51
289.9999981
0
LINE
8
0
10
-11.0439766
20
-4.7597879
11
5.4006442
21
-10.7451404
0
LINE
8
0
10
5.4006442
20
-10.7451404
11
11.0439766
21
4.7597879
0
LINE
8
0
10
11.0439766
20
4.7597879
11
-5.4006442
21
10.7451404
0
LINE
8
0
10
-5.4006442
20
10.7451404
11
-11.0439766
21
-4.7597879
0
LINE
8
0
10
11.9954963
20
-4.4959919
11
27.5881105
21
-12.4408256
0
LINE
8
0
10
27.5881105
20
-12.4408256
11
35.0789537
21
2.2607821
0
LINE
8
0
10
35.0789537
20
2.2607821
11
19.4863395
21
10.2056158
0
LINE
8
0
10
19.4863395
20
10.2056158
11
11.9954963
21
-4.4959919
0
LINE
8
0
10
19.94033
20
11.0966223
11
35.5329442
21
3.1517886
0
LINE
8
0
10
35.5329442
20
3.1517886
11
43.0237874
21
17.8533963
0
LINE
8
0
10
43.0237874
20
17.8533963
11
27.4311732
21
25.79823
0
LINE
8
0
10
27.4311732
20
25.79823
11
19.94033
21
11.0966223
0
LINE
8
0
10
30.1842059
20
-8.9259315
11
45.4900508
21
-17.4100999
0
LINE
8
0
10
45.4900508
20
-17.4100999
11
53.4894095
21
-2.9788747
0
LINE
8
0
10
53.4894095
20
-2.9788747
11
38.1835646
21
5.5052937
0
LINE
8
0
10
38.1835646
20
5.5052937
11
30.1842059
21
-8.9259315
0
LINE
8
0
10
38.6683742
20
6.3799134
11
53.9742191
21
-2.104255
0
LINE
8
0
10
53.9742191
20
-2.104255
11
61.9735778
21
12.3269702
0
LINE
8
0
10
61.9735778
20
12.3269702
11
46.6677329
21
20.8111386
0
LINE
8
0
10
46.6677329
20
20.8111386
11
38.6683742
21
6.3799134
0
LINE
8
0
10
43.9771475
20
-21.349384
11
57.3829253
21
-32.5981671
0
LINE
8
0
10
57.3829253
20
-32.5981671
11
67.9889209
21
-19.9584338
0
LINE
8
0
10
67.9889209
20
-19.9584338
11
54.5831431
21
-8.7096507
0
LINE
8
0
10
54.5831431
20
-8.7096507
11
43.9771475
21
-21.349384
0
LINE
8
0
10
55.2259307
20
-7.9436062
11
68.6317085
21
-19.1923893
0
LINE
8
0
10
68.6317085
20
-19.1923893
11
79.2377041
21
-6.552656
0
LINE
8
0
10
79.2377041
20
-6.552656
11
65.8319263
21
4.6961271
0
LINE
8
0
10
65.8319263
20
4.6961271
11
55.2259307
21
-7.9436062
0
LINE
8
0
10
199.0629906
20
-10.7451404
11
215.5076114
21
-4.7597879
0
LINE
8
0
10
215.5076114
20
-4.7597879
11
209.864279
21
10.7451404
0
LINE
8
0
10
209.864279
20
10.7451404
11
193.4196582
21
4.7597879
0
LINE
8
0
10
193.4196582
20
4.7597879
11
199.0629906
21
-10.7451404
0
LINE
8
0
10
176.8755243
20
-12.4408256
11
192.4681385
21
-4.4959919
0
LINE
8
0
10
192.4681385
20
-4.4959919
11
184.9772953
21
10.2056158
0
LINE
8
0
10
184.9772953
20
10.2056158
11
169.3846811
21
2.2607821
0
LINE
8
0
10
169.3846811
20
2.2607821
11
176.8755243
21
-12.4408256
0
LINE
8
0
10
168.9306906
20
3.1517886
11
184.5233048
21
11.0966223
0
LINE
8
0
10
184.5233048
20
11.0966223
11
177.0324616
21
25.79823
0
LINE
8
0
10
177.0324616
20
25.79823
11
161.4398474
21
17.8533963
0
LINE
8
0
10
161.4398474
20
17.8533963
11
168.9306906
21
3.1517886
0
LINE
8
0
10
158.973584
20
-17.4100999
11
174.2794289
21
-8.9259315
0
LINE
8
0
10
174.2794289
20
-8.9259315
11
166.2800702
21
5.5052937
0
LINE
8
0
10
166.2800702
20
5.5052937
11
150.9742253
21
-2.9788747
0
LINE
8
0
10
150.9742253
20
-2.9788747
11
158.973584
21
-17.4100999
0
LINE
8
0
10
150.4894157
20
-2.104255
11
165.7952606
21
6.3799134
0
LINE
8
0
10
165.7952606
20
6.3799134
11
157.7959019
21
20.8111386
0
LINE
8
0
10
157.7959019
20
20.8111386
11
142.490057
21
12.3269702
0
LINE
8
0
10
142.490057
20
12.3269702
11
150.4894157
21
-2.104255
0
LINE
8
0
10
147.0807095
20
-32.5981671
11
160.4864873
21
-21.349384
0
LINE
8
0
10
160.4864873
20
-21.349384
11
149.8804917
21
-8.7096507
0
LINE
8
0
10
149.8804917
20
-8.7096507
11
136.4747139
21
-19.9584338
0
LINE
8
0
10
136.4747139
20
-19.9584338
11
147.0807095
21
-32.5981671
0
LINE
8
0
10
135.8319263
20
-19.1923893
11
149.2377041
21
-7.9436062
0
LINE
8
0
10
149.2377041
20
-7.9436062
11
138.6317085
21
4.6961271
0
LINE
8
0
10
138.6317085
20
4.6961271
11
125.2259307
21
-6.552656
0
LINE
8
0
10
125.2259307
20
-6.552656
11
135.8319263
21
-19.1923893
0
LINE
8
0
10
39.2312234
20
-42.6556253
11
51.1661947
21
-55.4543151
0
LINE
8
0
10
51.1661947
20
-55.4543151
11
63.2335308
21
-44.2013421
0
LINE
8
0
10
63.2335308
20
-44.2013421
11
51.2985595
21
-31.4026523
0
LINE
8
0
10
51.2985595
20
-31.4026523
11
39.2312234
21
-42.6556253
0
LINE
8
0
10
51.4354473
20
-56.0052907
11
60.7090345
21
-70.8461324
0
LINE
8
0
10
60.7090345
20
-70.8461324
11
74.7018281
21
-62.1024645
0
LINE
8
0
10
74.7018281
20
-62.1024645
11
65.4282409
21
-47.2616228
0
LINE
8
0
10
65.4282409
20
-47.2616228
11
51.4354473
21
-56.0052907
0
LINE
8
0
10
153.2974401
20
-55.4543151
11
165.2324114
21
-42.6556253
0
LINE
8
0
10
165.2324114
20
-42.6556253
11
153.1650753
21
-31.4026523
0
LINE
8
0
10
153.1650753
20
-31.4026523
11
141.230104
21
-44.2013421
0
LINE
8
0
10
141.230104
20
-44.2013421
11
153.2974401
21
-55.4543151
0
LINE
8
0
10
143.7546003
20
-70.8461324
11
153.0281875
21
-56.0052907
0
LINE
8
0
10
153.0281875
20
-56.0052907
11
139.0353939
21
-47.2616228
0
LINE
8
0
10
139.0353939
20
-47.2616228
11
129.7618067
21
-62.1024645
0
LINE
8
0
10
129.7618067
20
-62.1024645
11
143.7546003
21
-70.8461324
0
ENDSEC
0
EOF