0
SECTION
2
HEADER
9
$INSUNITS
70
4
0
ENDSEC
0
SECTION
2
TABLES
0
TABLE
2
LTYPE
0
LTYPE
72
65
70
64
2
CONTINUOUS
3
______
73
0
40
0
0
ENDTAB
0
TABLE
2
LAYER
0
ENDTAB
0
ENDSEC
0
SECTION
2
ENTITIES
0
LINE
8
0
10
114.4968121
20
-59.6034019
11
82.2765461
21
-59.6034019
0
LINE
8
0
10
79.0970303
20
-60.5151134
11
61.0547039
21
-71.7892102
0
LINE
8
0
10
53.0791811
20
-70.3062395
11
34.0777537
21
-45.0294151
0
LINE
8
0
10
33.1205658
20
-44.0235002
11
-9.7243431
21
-8.3554081
0
LINE
8
0
10
-11.5236797
20
-1.6920547
11
-7.3613494
21
9.7438539
0
LINE
8
0
10
-4.8335341
20
12.8225988
11
21.7697715
21
28.9495741
0
LINE
8
0
10
27.7889696
20
29.0664268
11
72.3670368
21
4.3564006
0
LINE
8
0
10
75.2758944
20
3.6041188
11
121.4974638
21
3.6041188
0
LINE
8
0
10
124.4063214
20
4.3564006
11
168.9843886
21
29.0664268
0
LINE
8
0
10
175.0035867
20
28.9495741
11
201.6068923
21
12.8225988
0
LINE
8
0
10
204.1347076
20
9.7438539
11
208.2970379
21
-1.6920547
0
LINE
8
0
10
206.4977013
20
-8.3554081
11
163.6527924
21
-44.0235002
0
LINE
8
0
10
162.6956045
20
-45.0294151
11
143.6941771
21
-70.3062395
0
LINE
8
0
10
135.7186543
20
-71.7892102
11
117.6763279
21
-60.5151134
0
ARC
8
0
10
82.2765461
20
-65.6034019
40
6
50
90
51
122.0000016
0
ARC
8
0
10
57.8751881
20
-66.7009217
40
6
50
216.9334009
51
302.0000016
0
ARC
8
0
10
29.2817467
20
-48.634733
40
6
50
36.9334009
51
50.2228543
0
ARC
8
0
10
-5.8855239
20
-3.7441754
40
6
50
160.0000019
51
230.2228543
0
ARC
8
0
10
-1.7231936
20
7.6917332
40
6
50
121.2243232
51
160.0000019
0
ARC
8
0
10
24.880112
20
23.8187085
40
6
50
61.0000008
51
121.2243232
0
ARC
8
0
10
75.2758944
20
9.6041188
40
6
50
241.0000008
51
270
0
ARC
8
0
10
121.4974638
20
9.6041188
40
6
50
270
51
298.9999992
0
ARC
8
0
10
171.8932462
20
23.8187085
40
6
50
58.7756768
51
118.9999992
0
ARC
8
0
10
198.4965518
20
7.6917332
40
6
50
19.9999981
51
58.7756768
0
ARC
8
0
10
202.6588821
20
-3.7441754
40
6
50
309.7771457
51
19.9999981
0
ARC
8
0
10
167.4916115
20
-48.634733
40
6
50
129.7771457
51
143.0665991
0
ARC
8
0
10
138.8981701
20
-66.7009217
40
6
50
237.9999984
51
323.0665991
0
ARC
8
0
10
114.4968121
20
-65.6034019
40
6
50
57.9999984
51
90
0
LINE
8
0
10
-11.0439766
20
-4.7597879
11
5.4006442
21
-10.7451404
0
LINE
8
0
10
5.4006442
20
-10.7451404
11
11.0439766
21
4.7597879
0
LINE
8
0
10
11.0439766
20
4.7597879
11
-5.4006442
21
10.7451404
0
LINE
8
0
10
-5.4006442
20
10.7451404
11
-11.0439766
21
-4.7597879
0
LINE
8
0
10
8.150358
20
-6.2890093
11
23.7429722
21
-14.233843
0
LINE
8
0
10
23.7429722
20
-14.233843
11
31.2338154
21
0.4677647
0
LINE
8
0
10
31.2338154
20
0.4677647
11
15.6412012
21
8.4125984
0
LINE
8
0
10
15.6412012
20
8.4125984
11
8.150358
21
-6.2890093
0
LINE
8
0
10
16.0951917
20
9.3036049
11
31.6878059
21
1.3587712
0
LINE
8
0
10
31.6878059
20
1.3587712
11
39.1786491
21
16.0603789
0
LINE
8
0
10
39.1786491
20
16.0603789
11
23.5860349
21
24.0052126
0
LINE
8
0
10
23.5860349
20
24.0052126
11
16.0951917
21
9.3036049
0
LINE
8
0
10
26.3390675
20
-10.7189489
11
41.6449124
21
-19.2031173
0
LINE
8
0
10
41.6449124
20
-19.2031173
11
49.6442711
21
-4.7718921
0
LINE
8
0
10
49.6442711
20
-4.7718921
11
34.3384262
21
3.7122763
0
LINE
8
0
10
34.3384262
20
3.7122763
11
26.3390675
21
-10.7189489
0
LINE
8
0
10
34.8232359
20
4.586896
11
50.1290808
21
-3.8972724
0
LINE
8
0
10
50.1290808
20
-3.8972724
11
58.1284395
21
10.5339528
0
LINE
8
0
10
58.1284395
20
10.5339528
11
42.8225946
21
19.0181212
0
LINE
8
0
10
42.8225946
20
19.0181212
11
34.8232359
21
4.586896
0
LINE
8
0
10
40.1320092
20
-23.1424015
11
53.537787
21
-34.3911846
0
LINE
8
0
10
53.537787
20
-34.3911846
11
64.1437826
21
-21.7514513
0
LINE
8
0
10
64.1437826
20
-21.7514513
11
50.7380048
21
-10.5026682
0
LINE
8
0
10
50.7380048
20
-10.5026682
11
40.1320092
21
-23.1424015
0
LINE
8
0
10
51.3807924
20
-9.7366237
11
64.7865702
21
-20.9854068
0
LINE
8
0
10
64.7865702
20
-20.9854068
11
75.3925658
21
-8.3456735
0
LINE
8
0
10
75.3925658
20
-8.3456735
11
61.986788
21
2.9031096
0
LINE
8
0
10
61.986788
20
2.9031096
11
51.3807924
21
-9.7366237
0
LINE
8
0
10
191.372714
20
-10.7451404
11
207.8173348
21
-4.7597879
0
LINE
8
0
10
207.8173348
20
-4.7597879
11
202.1740024
21
10.7451404
0
LINE
8
0
10
202.1740024
20
10.7451404
11
185.7293816
21
4.7597879
0
LINE
8
0
10
185.7293816
20
4.7597879
11
191.372714
21
-10.7451404
0
LINE
8
0
10
173.030386
20
-14.233843
11
188.6230002
21
-6.2890093
0
LINE
8
0
10
188.6230002
20
-6.2890093
11
181.132157
21
8.4125984
0
LINE
8
0
10
181.132157
20
8.4125984
11
165.5395428
21
0.4677647
0
LINE
8
0
10
165.5395428
20
0.4677647
11
173.030386
21
-14.233843
0
LINE
8
0
10
165.0855523
20
1.3587712
11
180.6781665
21
9.3036049
0
LINE
8
0
10
180.6781665
20
9.3036049
11
173.1873233
21
24.0052126
0
LINE
8
0
10
173.1873233
20
24.0052126
11
157.5947091
21
16.0603789
0
LINE
8
0
10
157.5947091
20
16.0603789
11
165.0855523
21
1.3587712
0
LINE
8
0
10
155.1284458
20
-19.2031173
11
170.4342907
21
-10.7189489
0
LINE
8
0
10
170.4342907
20
-10.7189489
11
162.434932
21
3.7122763
0
LINE
8
0
10
162.434932
20
3.7122763
11
147.1290871
21
-4.7718921
0
LINE
8
0
10
147.1290871
20
-4.7718921
11
155.1284458
21
-19.2031173
0
LINE
8
0
10
146.6442774
20
-3.8972724
11
161.9501223
21
4.586896
0
LINE
8
0
10
161.9501223
20
4.586896
11
153.9507636
21
19.0181212
0
LINE
8
0
10
153.9507636
20
19.0181212
11
138.6449187
21
10.5339528
0
LINE
8
0
10
138.6449187
20
10.5339528
11
146.6442774
21
-3.8972724
0
LINE
8
0
10
143.2355712
20
-34.3911846
11
156.641349
21
-23.1424015
0
LINE
8
0
10
156.641349
20
-23.1424015
11
146.0353534
21
-10.5026682
0
LINE
8
0
10
146.0353534
20
-10.5026682
11
132.6295756
21
-21.7514513
0
LINE
8
0
10
132.6295756
20
-21.7514513
11
143.2355712
21
-34.3911846
0
LINE
8
0
10
131.986788
20
-20.9854068
11
145.3925658
21
-9.7366237
0
LINE
8
0
10
145.3925658
20
-9.7366237
11
134.7865702
21
2.9031096
0
LINE
8
0
10
134.7865702
20
2.9031096
11
121.3807924
21
-8.3456735
0
LINE
8
0
10
121.3807924
20
-8.3456735
11
131.986788
21
-20.9854068
0
LINE
8
0
10
35.3860851
20
-44.4486428
11
47.3210564
21
-57.2473326
0
LINE
8
0
10
47.3210564
20
-57.2473326
11
59.3883925
21
-45.9943596
0
LINE
8
0
10
59.3883925
20
-45.9943596
11
47.4534212
21
-33.1956698
0
LINE
8
0
10
47.4534212
20
-33.1956698
11
35.3860851
21
-44.4486428
0
LINE
8
0
10
47.590309
20
-57.7983082
11
56.8638962
21
-72.6391499
0
LINE
8
0
10
56.8638962
20
-72.6391499
11
70.8566898
21
-63.895482
0
LINE
8
0
10
70.8566898
20
-63.895482
11
61.5831026
21
-49.0546403
0
LINE
8
0
10
61.5831026
20
-49.0546403
11
47.590309
21
-57.7983082
0
LINE
8
0
10
149.4523018
20
-57.2473326
11
161.3872731
21
-44.4486428
0
LINE
8
0
10
161.3872731
20
-44.4486428
11
149.319937
21
-33.1956698
0
LINE
8
0
10
149.319937
20
-33.1956698
11
137.3849657
21
-45.9943596
0
LINE
8
0
10
137.3849657
20
-45.9943596
11
149.4523018
21
-57.2473326
0
LINE
8
0
10
139.909462
20
-72.6391499
11
149.1830492
21
-57.7983082
0
LINE
8
0
10
149.1830492
20
-57.7983082
11
135.1902556
21
-49.0546403
0
LINE
8
0
10
135.1902556
20
-49.0546403
11
125.9166684
21
-63.895482
0
LINE
8
0
10
125.9166684
20
-63.895482
11
139.909462
21
-72.6391499
0
LINE
8
0
10
89.4866791
20
-30.0411486
11
107.2866791
21
-30.0411486
0
LINE
8
0
10
107.2866791
20
-30.0411486
11
107.2866791
21
-9.0411486
0
LINE
8
0
10
107.2866791
20
-9.0411486
11
102.3866791
21
-9.0411486
0
LINE
8
0
10
94.3866791
20
-9.0411486
11
89.4866791
21
-9.0411486
0
LINE
8
0
10
89.4866791
20
-9.0411486
11
89.4866791
21
-30.0411486
0
LINE
8
0
10
102.3866791
20
-9.0411486
11
102.3866791
21
-6.0411486
0
LINE
8
0
10
102.3866791
20
-6.0411486
11
94.3866791
21
-6.0411486
0
LINE
8
0
10
94.3866791
20
-6.0411486
11
94.3866791
21
-9.0411486
0
ENDSEC
0
EOF