0
SECTION
2
HEADER
9
$INSUNITS
70
4
0
ENDSEC
0
SECTION
2
TABLES
0
TABLE
2
LTYPE
0
LTYPE
72
65
70
64
2
CONTINUOUS
3
______
73
0
40
0
0
ENDTAB
0
TABLE
2
LAYER
0
ENDTAB
0
ENDSEC
0
SECTION
2
ENTITIES
0
LINE
8
0
10
-8.25
20
-9.25
11
8.25
21
-9.25
0
LINE
8
0
10
9.75
20
-7.75
11
9.75
21
-2.9405425
0
LINE
8
0
10
7.6259567
20
9.25
11
-8.25
21
9.25
0
LINE
8
0
10
-9.75
20
7.75
11
-9.75
21
-7.75
0
LINE
8
0
10
11.4328039
20
-1.4517233
11
25.5612146
21
-3.186474
0
LINE
8
0
10
27.2328377
20
-1.8804587
11
27.4132919
21
-0.410777
0
LINE
8
0
10
9.1147759
20
10.5671961
11
11.899876
21
33.2500164
0
LINE
8
0
10
13.5714991
20
34.5560317
11
30.6117836
21
32.4637479
0
LINE
8
0
10
29.1883246
20
0.8788599
11
41.5883582
21
-1.5314625
0
LINE
8
0
10
51.5357349
20
30.5988162
11
51.7383733
21
31.6413003
0
LINE
8
0
10
50.552146
20
33.3999546
11
34.3552976
21
36.5483031
0
LINE
8
0
10
32.5966433
20
35.3620758
11
32.2670283
21
33.6663536
0
LINE
8
0
10
43.2504524
20
-6.1900741
11
58.548986
21
-12.3710828
0
LINE
8
0
10
60.5016717
20
-11.5422169
11
72.8636892
21
19.0548503
0
LINE
8
0
10
42.6929205
20
-3.5658132
11
42.4215865
21
-4.2373884
0
LINE
8
0
10
52.4462658
20
28.9218269
11
72.0348233
21
21.007536
0
LINE
8
0
10
206.090891
20
-9.25
11
222.590891
21
-9.25
0
LINE
8
0
10
224.090891
20
-7.75
11
224.090891
21
7.75
0
LINE
8
0
10
222.590891
20
9.25
11
206.7149343
21
9.25
0
LINE
8
0
10
204.590891
20
-2.9405425
11
204.590891
21
-7.75
0
LINE
8
0
10
188.7796764
20
-3.186474
11
202.9080871
21
-1.4517233
0
LINE
8
0
10
202.441015
20
33.2500164
11
205.2261151
21
10.5671961
0
LINE
8
0
10
186.9275991
20
-0.410777
11
187.1080533
21
-1.8804587
0
LINE
8
0
10
183.7291074
20
32.4637479
11
200.7693919
21
34.5560317
0
LINE
8
0
10
172.7525328
20
-1.5314625
11
185.1525664
21
0.8788599
0
LINE
8
0
10
182.0738627
20
33.6663536
11
181.7442477
21
35.3620758
0
LINE
8
0
10
179.9855934
20
36.5483031
11
163.788745
21
33.3999546
0
LINE
8
0
10
162.6025177
20
31.6413003
11
162.8051561
21
30.5988162
0
LINE
8
0
10
155.791905
20
-12.3710828
11
171.0904386
21
-6.1900741
0
LINE
8
0
10
171.9193045
20
-4.2373884
11
171.6479705
21
-3.5658132
0
LINE
8
0
10
141.4772018
20
19.0548503
11
153.8392193
21
-11.5422169
0
LINE
8
0
10
142.3060677
20
21.007536
11
161.8946252
21
28.9218269
0
LINE
8
0
10
45.8546582
20
-27.4711067
11
59.6927224
21
-36.4576507
0
LINE
8
0
10
61.7676869
20
-36.0166033
11
61.7827724
21
-35.9933737
0
LINE
8
0
10
69.3018812
20
-24.4149614
11
70.2095919
21
-23.0172095
0
LINE
8
0
10
69.7685444
20
-20.9422451
11
55.9304802
21
-11.9557011
0
LINE
8
0
10
53.8555157
20
-12.3967485
11
45.4136107
21
-25.3961423
0
LINE
8
0
10
61.7827724
20
-35.9933737
11
72.8359702
21
-46.6673228
0
LINE
8
0
10
74.9569675
20
-46.6303007
11
85.7241722
21
-35.4805338
0
LINE
8
0
10
85.6871501
20
-33.3595365
11
73.8180434
21
-21.8976734
0
LINE
8
0
10
71.6970461
20
-21.9346955
11
69.3018812
21
-24.4149614
0
LINE
8
0
10
154.6481686
20
-36.4576507
11
168.4862328
21
-27.4711067
0
LINE
8
0
10
168.9272803
20
-25.3961423
11
160.4853753
21
-12.3967485
0
LINE
8
0
10
158.4104108
20
-11.9557011
11
144.5723466
21
-20.9422451
0
LINE
8
0
10
144.1312991
20
-23.0172095
11
145.0390098
21
-24.4149614
0
LINE
8
0
10
152.5581186
20
-35.9933737
11
152.5732041
21
-36.0166033
0
LINE
8
0
10
141.5049208
20
-46.6673228
11
152.5581186
21
-35.9933737
0
LINE
8
0
10
145.0390098
20
-24.4149614
11
142.6438449
21
-21.9346955
0
LINE
8
0
10
140.5228476
20
-21.8976734
11
128.6537409
21
-33.3595365
0
LINE
8
0
10
128.6167188
20
-35.4805338
11
139.3839235
21
-46.6303007
0
ARC
8
0
10
222.590891
20
-7.75
40
1.5
50
270
51
0
0
ARC
8
0
10
222.590891
20
7.75
40
1.5
50
0
51
90
0
ARC
8
0
10
206.7149343
20
10.75
40
1.5
50
186.9999972
51
270
0
ARC
8
0
10
200.9521958
20
33.0672125
40
1.5
50
6.9999972
51
96.9999972
0
ARC
8
0
10
183.5463035
20
33.9525671
40
1.5
50
191.0000001
51
276.9999972
0
ARC
8
0
10
180.2718069
20
35.0758623
40
1.5
50
11.0000001
51
101.0000001
0
ARC
8
0
10
164.0749585
20
31.9275138
40
1.5
50
101.0000001
51
191.0000001
0
ARC
8
0
10
161.3327153
20
30.3126027
40
1.5
50
291.9999994
51
11.0000001
0
ARC
8
0
10
142.8679776
20
19.6167602
40
1.5
50
111.9999994
51
201.9999994
0
ARC
8
0
10
155.2299951
20
-10.980307
40
1.5
50
201.9999994
51
291.9999994
0
ARC
8
0
10
170.5285287
20
-4.7992983
40
1.5
50
291.9999994
51
21.9999994
0
ARC
8
0
10
173.0387463
20
-3.0039033
40
1.5
50
101.0000001
51
201.9999994
0
ARC
8
0
10
185.4387799
20
-0.5935809
40
1.5
50
6.9999972
51
101.0000001
0
ARC
8
0
10
188.5968725
20
-1.6976548
40
1.5
50
186.9999972
51
276.9999972
0
ARC
8
0
10
203.090891
20
-2.9405425
40
1.5
50
0
51
96.9999972
0
ARC
8
0
10
206.090891
20
-7.75
40
1.5
50
180
51
270
0
ARC
8
0
10
8.25
20
-7.75
40
1.5
50
270
51
0
0
ARC
8
0
10
11.25
20
-2.9405425
40
1.5
50
83.0000028
51
180
0
ARC
8
0
10
25.7440185
20
-1.6976548
40
1.5
50
263.0000028
51
353.0000028
0
ARC
8
0
10
28.9021111
20
-0.5935809
40
1.5
50
78.9999999
51
173.0000028
0
ARC
8
0
10
41.3021447
20
-3.0039033
40
1.5
50
338.0000006
51
78.9999999
0
ARC
8
0
10
43.8123623
20
-4.7992983
40
1.5
50
158.0000006
51
248.0000006
0
ARC
8
0
10
59.1108959
20
-10.980307
40
1.5
50
248.0000006
51
338.0000006
0
ARC
8
0
10
71.4729134
20
19.6167602
40
1.5
50
338.0000006
51
68.0000006
0
ARC
8
0
10
53.0081757
20
30.3126027
40
1.5
50
168.9999999
51
248.0000006
0
ARC
8
0
10
50.2659325
20
31.9275138
40
1.5
50
348.9999999
51
78.9999999
0
ARC
8
0
10
34.0690841
20
35.0758623
40
1.5
50
78.9999999
51
168.9999999
0
ARC
8
0
10
30.7945875
20
33.9525671
40
1.5
50
263.0000028
51
348.9999999
0
ARC
8
0
10
13.3886952
20
33.0672125
40
1.5
50
83.0000028
51
173.0000028
0
ARC
8
0
10
7.6259567
20
10.75
40
1.5
50
270
51
353.0000028
0
ARC
8
0
10
-8.25
20
7.75
40
1.5
50
90
51
180
0
ARC
8
0
10
-8.25
20
-7.75
40
1.5
50
180
51
270
0
ARC
8
0
10
60.5096809
20
-35.1996448
40
1.5
50
237.0000027
51
327.0000027
0
ARC
8
0
10
73.8779578
20
-45.5883131
40
1.5
50
225.9999988
51
315.9999988
0
ARC
8
0
10
84.6451625
20
-34.4385462
40
1.5
50
315.9999988
51
45.9999988
0
ARC
8
0
10
72.7760558
20
-22.9766831
40
1.5
50
45.9999988
51
135.9999988
0
ARC
8
0
10
68.9515859
20
-22.200251
40
1.5
50
327.0000027
51
57.0000027
0
ARC
8
0
10
55.1135217
20
-13.213707
40
1.5
50
57.0000027
51
147.0000027
0
ARC
8
0
10
46.6716167
20
-26.2131008
40
1.5
50
147.0000027
51
237.0000027
0
ARC
8
0
10
167.6692743
20
-26.2131008
40
1.5
50
302.9999973
51
32.9999973
0
ARC
8
0
10
159.2273693
20
-13.213707
40
1.5
50
32.9999973
51
122.9999973
0
ARC
8
0
10
145.3893051
20
-22.200251
40
1.5
50
122.9999973
51
212.9999973
0
ARC
8
0
10
141.5648352
20
-22.9766831
40
1.5
50
44.0000012
51
134.0000012
0
ARC
8
0
10
129.6957285
20
-34.4385462
40
1.5
50
134.0000012
51
224.0000012
0
ARC
8
0
10
140.4629332
20
-45.5883131
40
1.5
50
224.0000012
51
314.0000012
0
ARC
8
0
10
153.8312101
20
-35.1996448
40
1.5
50
212.9999973
51
302.9999973
0
LINE
8
0
10
-8.75
20
-8.25
11
8.75
21
-8.25
0
LINE
8
0
10
8.75
20
-8.25
11
8.75
21
8.25
0
LINE
8
0
10
8.75
20
8.25
11
-8.75
21
8.25
0
LINE
8
0
10
-8.75
20
8.25
11
-8.75
21
-8.25
0
LINE
8
0
10
8.8097992
20
-0.122149
11
26.1793568
21
-2.2548625
0
LINE
8
0
10
26.1793568
20
-2.2548625
11
28.190201
21
14.122149
0
LINE
8
0
10
28.190201
20
14.122149
11
10.8206434
21
16.2548625
0
LINE
8
0
10
10.8206434
20
16.2548625
11
8.8097992
21
-0.122149
0
LINE
8
0
10
10.9425127
20
17.2474087
11
28.3120703
21
15.1146952
0
LINE
8
0
10
28.3120703
20
15.1146952
11
30.3229145
21
31.4917067
0
LINE
8
0
10
30.3229145
20
31.4917067
11
12.9533569
21
33.6244202
0
LINE
8
0
10
12.9533569
20
33.6244202
11
10.9425127
21
17.2474087
0
LINE
8
0
10
27.1861691
20
2.2867561
11
44.3646448
21
-1.0524013
0
LINE
8
0
10
44.3646448
20
-1.0524013
11
47.5129933
21
15.1444473
0
LINE
8
0
10
47.5129933
20
15.1444473
11
30.3345176
21
18.4836047
0
LINE
8
0
10
30.3345176
20
18.4836047
11
27.1861691
21
2.2867561
0
LINE
8
0
10
30.5253265
20
19.4652318
11
47.7038022
21
16.1260744
0
LINE
8
0
10
47.7038022
20
16.1260744
11
50.8521507
21
32.322923
0
LINE
8
0
10
50.8521507
20
32.322923
11
33.673675
21
35.6620804
0
LINE
8
0
10
33.673675
20
35.6620804
11
30.5253265
21
19.4652318
0
LINE
8
0
10
43.1614671
20
-5.0755869
11
59.3871845
21
-11.6312023
0
LINE
8
0
10
59.3871845
20
-11.6312023
11
65.5681933
21
3.6673313
0
LINE
8
0
10
65.5681933
20
3.6673313
11
49.3424759
21
10.2229467
0
LINE
8
0
10
49.3424759
20
10.2229467
11
43.1614671
21
-5.0755869
0
LINE
8
0
10
49.7170824
20
11.1501306
11
65.9427998
21
4.5945152
0
LINE
8
0
10
65.9427998
20
4.5945152
11
72.1238086
21
19.8930488
0
LINE
8
0
10
72.1238086
20
19.8930488
11
55.8980912
21
26.4486642
0
LINE
8
0
10
55.8980912
20
26.4486642
11
49.7170824
21
11.1501306
0
LINE
8
0
10
205.590891
20
-8.25
11
223.090891
21
-8.25
0
LINE
8
0
10
223.090891
20
-8.25
11
223.090891
21
8.25
0
LINE
8
0
10
223.090891
20
8.25
11
205.590891
21
8.25
0
LINE
8
0
10
205.590891
20
8.25
11
205.590891
21
-8.25
0
LINE
8
0
10
188.1615342
20
-2.2548625
11
205.5310918
21
-0.122149
0
LINE
8
0
10
205.5310918
20
-0.122149
11
203.5202476
21
16.2548625
0
LINE
8
0
10
203.5202476
20
16.2548625
11
186.15069
21
14.122149
0
LINE
8
0
10
186.15069
20
14.122149
11
188.1615342
21
-2.2548625
0
LINE
8
0
10
186.0288207
20
15.1146952
11
203.3983783
21
17.2474087
0
LINE
8
0
10
203.3983783
20
17.2474087
11
201.3875341
21
33.6244202
0
LINE
8
0
10
201.3875341
20
33.6244202
11
184.0179765
21
31.4917067
0
LINE
8
0
10
184.0179765
20
31.4917067
11
186.0288207
21
15.1146952
0
LINE
8
0
10
169.9762462
20
-1.0524013
11
187.1547219
21
2.2867561
0
LINE
8
0
10
187.1547219
20
2.2867561
11
184.0063734
21
18.4836047
0
LINE
8
0
10
184.0063734
20
18.4836047
11
166.8278977
21
15.1444473
0
LINE
8
0
10
166.8278977
20
15.1444473
11
169.9762462
21
-1.0524013
0
LINE
8
0
10
166.6370888
20
16.1260744
11
183.8155645
21
19.4652318
0
LINE
8
0
10
183.8155645
20
19.4652318
11
180.667216
21
35.6620804
0
LINE
8
0
10
180.667216
20
35.6620804
11
163.4887403
21
32.322923
0
LINE
8
0
10
163.4887403
20
32.322923
11
166.6370888
21
16.1260744
0
LINE
8
0
10
154.9537065
20
-11.6312023
11
171.1794239
21
-5.0755869
0
LINE
8
0
10
171.1794239
20
-5.0755869
11
164.9984151
21
10.2229467
0
LINE
8
0
10
164.9984151
20
10.2229467
11
148.7726977
21
3.6673313
0
LINE
8
0
10
148.7726977
20
3.6673313
11
154.9537065
21
-11.6312023
0
LINE
8
0
10
148.3980912
20
4.5945152
11
164.6238086
21
11.1501306
0
LINE
8
0
10
164.6238086
20
11.1501306
11
158.4427998
21
26.4486642
0
LINE
8
0
10
158.4427998
20
26.4486642
11
142.2170824
21
19.8930488
0
LINE
8
0
10
142.2170824
20
19.8930488
11
148.3980912
21
4.5945152
0
LINE
8
0
10
45.9799618
20
-26.3601165
11
60.6566967
21
-35.8912996
0
LINE
8
0
10
60.6566967
20
-35.8912996
11
61.6048017
21
-34.4313459
0
LINE
8
0
10
62.8069179
20
-32.5802493
11
69.6432408
21
-22.0532353
0
LINE
8
0
10
69.6432408
20
-22.0532353
11
54.9665059
21
-12.5220522
0
LINE
8
0
10
54.9665059
20
-12.5220522
11
45.9799618
21
-26.3601165
0
LINE
8
0
10
61.6048017
20
-34.4313459
11
73.8902985
21
-46.2953122
0
LINE
8
0
10
73.8902985
20
-46.2953122
11
85.3521616
21
-34.4262055
0
LINE
8
0
10
85.3521616
20
-34.4262055
11
72.7637151
21
-22.269684
0
LINE
8
0
10
72.7637151
20
-22.269684
11
62.8069179
21
-32.5802493
0
LINE
8
0
10
153.6841943
20
-35.8912996
11
168.3609292
21
-26.3601165
0
LINE
8
0
10
168.3609292
20
-26.3601165
11
159.3743851
21
-12.5220522
0
LINE
8
0
10
159.3743851
20
-12.5220522
11
144.6976502
21
-22.0532353
0
LINE
8
0
10
144.6976502
20
-22.0532353
11
151.5339731
21
-32.5802493
0
LINE
8
0
10
152.7360893
20
-34.4313459
11
153.6841943
21
-35.8912996
0
LINE
8
0
10
140.4505925
20
-46.2953122
11
152.7360893
21
-34.4313459
0
LINE
8
0
10
151.5339731
20
-32.5802493
11
141.5771759
21
-22.269684
0
LINE
8
0
10
141.5771759
20
-22.269684
11
128.9887294
21
-34.4262055
0
LINE
8
0
10
128.9887294
20
-34.4262055
11
140.4505925
21
-46.2953122
0
ENDSEC
0
EOF