0
SECTION
2
HEADER
9
$INSUNITS
70
4
0
ENDSEC
0
SECTION
2
TABLES
0
TABLE
2
LTYPE
0
LTYPE
72
65
70
64
2
CONTINUOUS
3
______
73
0
40
0
0
ENDTAB
0
TABLE
2
LAYER
0
ENDTAB
0
ENDSEC
0
SECTION
2
ENTITIES
0
LINE
8
0
10
118.3419504
20
-57.8103844
11
86.1216844
21
-57.8103844
0
LINE
8
0
10
82.9421686
20
-58.7220959
11
65.0071989
21
-69.9291087
0
LINE
8
0
10
56.9511689
20
-68.3364759
11
39.0996272
21
-43.4331961
0
LINE
8
0
10
37.7227712
20
-42.0552093
11
-9.2726978
21
-8.3087697
0
LINE
8
0
10
-11.4111954
20
-1.3830065
11
-7.7348869
21
8.7175681
0
LINE
8
0
10
-5.066382
20
11.8790041
11
27.0060413
21
30.1475118
0
LINE
8
0
10
32.8859432
20
30.1809008
11
75.7743218
21
6.3925953
0
LINE
8
0
10
78.6845728
20
5.639541
11
125.779062
21
5.639541
0
LINE
8
0
10
128.689313
20
6.3925953
11
171.5776916
21
30.1809008
0
LINE
8
0
10
177.4575935
20
30.1475118
11
209.5300168
21
11.8790041
0
LINE
8
0
10
212.1985217
20
8.7175681
11
215.8748302
21
-1.3830065
0
LINE
8
0
10
213.7363326
20
-8.3087697
11
166.7408636
21
-42.0552093
0
LINE
8
0
10
165.3640076
20
-43.4331961
11
147.5124659
21
-68.3364759
0
LINE
8
0
10
139.4564359
20
-69.9291087
11
121.5214662
21
-58.7220959
0
ARC
8
0
10
86.1216844
20
-63.8103844
40
6
50
90
51
122.0000016
0
ARC
8
0
10
61.8276832
20
-64.8408202
40
6
50
215.6342757
51
302.0000016
0
ARC
8
0
10
34.2231129
20
-46.9288518
40
6
50
35.6342757
51
54.3186831
0
ARC
8
0
10
-5.7730396
20
-3.4351271
40
6
50
160.0000019
51
234.3186831
0
ARC
8
0
10
-2.0967311
20
6.6654474
40
6
50
119.6659134
51
160.0000019
0
ARC
8
0
10
29.9756922
20
24.933955
40
6
50
60.9847871
51
119.6659134
0
ARC
8
0
10
78.6845728
20
11.639541
40
6
50
240.9847871
51
270
0
ARC
8
0
10
125.779062
20
11.639541
40
6
50
270
51
299.0152129
0
ARC
8
0
10
174.4879426
20
24.933955
40
6
50
60.3340866
51
119.0152129
0
ARC
8
0
10
206.5603659
20
6.6654474
40
6
50
19.9999981
51
60.3340866
0
ARC
8
0
10
210.2366744
20
-3.4351271
40
6
50
305.6813169
51
19.9999981
0
ARC
8
0
10
170.2405219
20
-46.9288518
40
6
50
125.6813169
51
144.3657243
0
ARC
8
0
10
142.6359516
20
-64.8408202
40
6
50
237.9999984
51
324.3657243
0
ARC
8
0
10
118.3419504
20
-63.8103844
40
6
50
57.9999984
51
90
0
LINE
8
0
10
-11.0439766
20
-4.7597879
11
5.4006442
21
-10.7451404
0
LINE
8
0
10
5.4006442
20
-10.7451404
11
11.0439766
21
4.7597879
0
LINE
8
0
10
11.0439766
20
4.7597879
11
-5.4006442
21
10.7451404
0
LINE
8
0
10
-5.4006442
20
10.7451404
11
-11.0439766
21
-4.7597879
0
LINE
8
0
10
11.9954963
20
-4.4959919
11
27.5881105
21
-12.4408256
0
LINE
8
0
10
27.5881105
20
-12.4408256
11
35.0789537
21
2.2607821
0
LINE
8
0
10
35.0789537
20
2.2607821
11
19.4863395
21
10.2056158
0
LINE
8
0
10
19.4863395
20
10.2056158
11
11.9954963
21
-4.4959919
0
LINE
8
0
10
19.94033
20
11.0966223
11
35.5329442
21
3.1517886
0
LINE
8
0
10
35.5329442
20
3.1517886
11
43.0237874
21
17.8533963
0
LINE
8
0
10
43.0237874
20
17.8533963
11
27.4311732
21
25.79823
0
LINE
8
0
10
27.4311732
20
25.79823
11
19.94033
21
11.0966223
0
LINE
8
0
10
30.1842059
20
-8.9259315
11
45.4900508
21
-17.4100999
0
LINE
8
0
10
45.4900508
20
-17.4100999
11
53.4894095
21
-2.9788747
0
LINE
8
0
10
53.4894095
20
-2.9788747
11
38.1835646
21
5.5052937
0
LINE
8
0
10
38.1835646
20
5.5052937
11
30.1842059
21
-8.9259315
0
LINE
8
0
10
38.6683742
20
6.3799134
11
53.9742191
21
-2.104255
0
LINE
8
0
10
53.9742191
20
-2.104255
11
61.9735778
21
12.3269702
0
LINE
8
0
10
61.9735778
20
12.3269702
11
46.6677329
21
20.8111386
0
LINE
8
0
10
46.6677329
20
20.8111386
11
38.6683742
21
6.3799134
0
LINE
8
0
10
43.9771475
20
-21.349384
11
57.3829253
21
-32.5981671
0
LINE
8
0
10
57.3829253
20
-32.5981671
11
67.9889209
21
-19.9584338
0
LINE
8
0
10
67.9889209
20
-19.9584338
11
54.5831431
21
-8.7096507
0
LINE
8
0
10
54.5831431
20
-8.7096507
11
43.9771475
21
-21.349384
0
LINE
8
0
10
55.2259307
20
-7.9436062
11
68.6317085
21
-19.1923893
0
LINE
8
0
10
68.6317085
20
-19.1923893
11
79.2377041
21
-6.552656
0
LINE
8
0
10
79.2377041
20
-6.552656
11
65.8319263
21
4.6961271
0
LINE
8
0
10
65.8319263
20
4.6961271
11
55.2259307
21
-7.9436062
0
LINE
8
0
10
199.0629906
20
-10.7451404
11
215.5076114
21
-4.7597879
0
LINE
8
0
10
215.5076114
20
-4.7597879
11
209.864279
21
10.7451404
0
LINE
8
0
10
209.864279
20
10.7451404
11
193.4196582
21
4.7597879
0
LINE
8
0
10
193.4196582
20
4.7597879
11
199.0629906
21
-10.7451404
0
LINE
8
0
10
176.8755243
20
-12.4408256
11
192.4681385
21
-4.4959919
0
LINE
8
0
10
192.4681385
20
-4.4959919
11
184.9772953
21
10.2056158
0
LINE
8
0
10
184.9772953
20
10.2056158
11
169.3846811
21
2.2607821
0
LINE
8
0
10
169.3846811
20
2.2607821
11
176.8755243
21
-12.4408256
0
LINE
8
0
10
168.9306906
20
3.1517886
11
184.5233048
21
11.0966223
0
LINE
8
0
10
184.5233048
20
11.0966223
11
177.0324616
21
25.79823
0
LINE
8
0
10
177.0324616
20
25.79823
11
161.4398474
21
17.8533963
0
LINE
8
0
10
161.4398474
20
17.8533963
11
168.9306906
21
3.1517886
0
LINE
8
0
10
158.973584
20
-17.4100999
11
174.2794289
21
-8.9259315
0
LINE
8
0
10
174.2794289
20
-8.9259315
11
166.2800702
21
5.5052937
0
LINE
8
0
10
166.2800702
20
5.5052937
11
150.9742253
21
-2.9788747
0
LINE
8
0
10
150.9742253
20
-2.9788747
11
158.973584
21
-17.4100999
0
LINE
8
0
10
150.4894157
20
-2.104255
11
165.7952606
21
6.3799134
0
LINE
8
0
10
165.7952606
20
6.3799134
11
157.7959019
21
20.8111386
0
LINE
8
0
10
157.7959019
20
20.8111386
11
142.490057
21
12.3269702
0
LINE
8
0
10
142.490057
20
12.3269702
11
150.4894157
21
-2.104255
0
LINE
8
0
10
147.0807095
20
-32.5981671
11
160.4864873
21
-21.349384
0
LINE
8
0
10
160.4864873
20
-21.349384
11
149.8804917
21
-8.7096507
0
LINE
8
0
10
149.8804917
20
-8.7096507
11
136.4747139
21
-19.9584338
0
LINE
8
0
10
136.4747139
20
-19.9584338
11
147.0807095
21
-32.5981671
0
LINE
8
0
10
135.8319263
20
-19.1923893
11
149.2377041
21
-7.9436062
0
LINE
8
0
10
149.2377041
20
-7.9436062
11
138.6317085
21
4.6961271
0
LINE
8
0
10
138.6317085
20
4.6961271
11
125.2259307
21
-6.552656
0
LINE
8
0
10
125.2259307
20
-6.552656
11
135.8319263
21
-19.1923893
0
LINE
8
0
10
39.2312234
20
-42.6556253
11
51.1661947
21
-55.4543151
0
LINE
8
0
10
51.1661947
20
-55.4543151
11
63.2335308
21
-44.2013421
0
LINE
8
0
10
63.2335308
20
-44.2013421
11
51.2985595
21
-31.4026523
0
LINE
8
0
10
51.2985595
20
-31.4026523
11
39.2312234
21
-42.6556253
0
LINE
8
0
10
51.4354473
20
-56.0052907
11
60.7090345
21
-70.8461324
0
LINE
8
0
10
60.7090345
20
-70.8461324
11
74.7018281
21
-62.1024645
0
LINE
8
0
10
74.7018281
20
-62.1024645
11
65.4282409
21
-47.2616228
0
LINE
8
0
10
65.4282409
20
-47.2616228
11
51.4354473
21
-56.0052907
0
LINE
8
0
10
153.2974401
20
-55.4543151
11
165.2324114
21
-42.6556253
0
LINE
8
0
10
165.2324114
20
-42.6556253
11
153.1650753
21
-31.4026523
0
LINE
8
0
10
153.1650753
20
-31.4026523
11
141.230104
21
-44.2013421
0
LINE
8
0
10
141.230104
20
-44.2013421
11
153.2974401
21
-55.4543151
0
LINE
8
0
10
143.7546003
20
-70.8461324
11
153.0281875
21
-56.0052907
0
LINE
8
0
10
153.0281875
20
-56.0052907
11
139.0353939
21
-47.2616228
0
LINE
8
0
10
139.0353939
20
-47.2616228
11
129.7618067
21
-62.1024645
0
LINE
8
0
10
129.7618067
20
-62.1024645
11
143.7546003
21
-70.8461324
0
LINE
8
0
10
93.3318174
20
-28.2481311
11
111.1318174
21
-28.2481311
0
LINE
8
0
10
111.1318174
20
-28.2481311
11
111.1318174
21
-7.2481311
0
LINE
8
0
10
111.1318174
20
-7.2481311
11
106.2318174
21
-7.2481311
0
LINE
8
0
10
98.2318174
20
-7.2481311
11
93.3318174
21
-7.2481311
0
LINE
8
0
10
93.3318174
20
-7.2481311
11
93.3318174
21
-28.2481311
0
LINE
8
0
10
106.2318174
20
-7.2481311
11
106.2318174
21
-4.2481311
0
LINE
8
0
10
106.2318174
20
-4.2481311
11
98.2318174
21
-4.2481311
0
LINE
8
0
10
98.2318174
20
-4.2481311
11
98.2318174
21
-7.2481311
0
ENDSEC
0
EOF