0
SECTION
2
HEADER
9
$INSUNITS
70
4
0
ENDSEC
0
SECTION
2
TABLES
0
TABLE
2
LTYPE
0
LTYPE
72
65
70
64
2
CONTINUOUS
3
______
73
0
40
0
0
ENDTAB
0
TABLE
2
LAYER
0
ENDTAB
0
ENDSEC
0
SECTION
2
ENTITIES
0
LINE
8
0
10
-8.25
20
-9.25
11
62.75
21
-9.25
0
LINE
8
0
10
7.25
20
9.25
11
-8.25
21
9.25
0
LINE
8
0
10
-9.75
20
7.75
11
-9.75
21
-7.75
0
LINE
8
0
10
10.25
20
26.75
11
63.75
21
26.75
0
LINE
8
0
10
8.75
20
10.75
11
8.75
21
25.25
0
LINE
8
0
10
65.25
20
-6.75
11
65.25
21
25.25
0
LINE
8
0
10
140.75
20
-9.25
11
211.75
21
-9.25
0
LINE
8
0
10
213.25
20
-7.75
11
213.25
21
7.75
0
LINE
8
0
10
211.75
20
9.25
11
196.25
21
9.25
0
LINE
8
0
10
194.75
20
10.75
11
194.75
21
25.25
0
LINE
8
0
10
139.75
20
26.75
11
193.25
21
26.75
0
LINE
8
0
10
138.25
20
-6.75
11
138.25
21
25.25
0
LINE
8
0
10
65.75
20
-26.75
11
137.75
21
-26.75
0
LINE
8
0
10
66.75
20
-8.25
11
136.75
21
-8.25
0
LINE
8
0
10
64.25
20
-10.75
11
64.25
21
-25.25
0
LINE
8
0
10
139.25
20
-25.25
11
139.25
21
-10.75
0
ARC
8
0
10
62.75
20
-10.75
40
1.5
50
0
51
90
0
ARC
8
0
10
65.75
20
-25.25
40
1.5
50
180
51
270
0
ARC
8
0
10
137.75
20
-25.25
40
1.5
50
270
51
0
0
ARC
8
0
10
140.75
20
-10.75
40
1.5
50
90
51
180
0
ARC
8
0
10
211.75
20
-7.75
40
1.5
50
270
51
0
0
ARC
8
0
10
211.75
20
7.75
40
1.5
50
0
51
90
0
ARC
8
0
10
196.25
20
10.75
40
1.5
50
180
51
270
0
ARC
8
0
10
193.25
20
25.25
40
1.5
50
0
51
90
0
ARC
8
0
10
139.75
20
25.25
40
1.5
50
90
51
180
0
ARC
8
0
10
136.75
20
-6.75
40
1.5
50
270
51
0
0
ARC
8
0
10
66.75
20
-6.75
40
1.5
50
180
51
270
0
ARC
8
0
10
63.75
20
25.25
40
1.5
50
0
51
90
0
ARC
8
0
10
10.25
20
25.25
40
1.5
50
90
51
180
0
ARC
8
0
10
7.25
20
10.75
40
1.5
50
270
51
0
0
ARC
8
0
10
-8.25
20
7.75
40
1.5
50
90
51
180
0
ARC
8
0
10
-8.25
20
-7.75
40
1.5
50
180
51
270
0
LINE
8
0
10
-8.75
20
-8.25
11
8.75
21
-8.25
0
LINE
8
0
10
8.75
20
-8.25
11
8.75
21
8.25
0
LINE
8
0
10
8.75
20
8.25
11
-8.75
21
8.25
0
LINE
8
0
10
-8.75
20
8.25
11
-8.75
21
-8.25
0
LINE
8
0
10
9.75
20
-8.25
11
27.25
21
-8.25
0
LINE
8
0
10
27.25
20
-8.25
11
27.25
21
8.25
0
LINE
8
0
10
27.25
20
8.25
11
9.75
21
8.25
0
LINE
8
0
10
9.75
20
8.25
11
9.75
21
-8.25
0
LINE
8
0
10
9.75
20
9.25
11
27.25
21
9.25
0
LINE
8
0
10
27.25
20
9.25
11
27.25
21
25.75
0
LINE
8
0
10
27.25
20
25.75
11
9.75
21
25.75
0
LINE
8
0
10
9.75
20
25.75
11
9.75
21
9.25
0
LINE
8
0
10
28.25
20
-8.25
11
45.75
21
-8.25
0
LINE
8
0
10
45.75
20
-8.25
11
45.75
21
8.25
0
LINE
8
0
10
45.75
20
8.25
11
28.25
21
8.25
0
LINE
8
0
10
28.25
20
8.25
11
28.25
21
-8.25
0
LINE
8
0
10
28.25
20
9.25
11
45.75
21
9.25
0
LINE
8
0
10
45.75
20
9.25
11
45.75
21
25.75
0
LINE
8
0
10
45.75
20
25.75
11
28.25
21
25.75
0
LINE
8
0
10
28.25
20
25.75
11
28.25
21
9.25
0
LINE
8
0
10
46.75
20
-8.25
11
64.25
21
-8.25
0
LINE
8
0
10
64.25
20
-8.25
11
64.25
21
8.25
0
LINE
8
0
10
64.25
20
8.25
11
46.75
21
8.25
0
LINE
8
0
10
46.75
20
8.25
11
46.75
21
-8.25
0
LINE
8
0
10
46.75
20
9.25
11
64.25
21
9.25
0
LINE
8
0
10
64.25
20
9.25
11
64.25
21
25.75
0
LINE
8
0
10
64.25
20
25.75
11
46.75
21
25.75
0
LINE
8
0
10
46.75
20
25.75
11
46.75
21
9.25
0
LINE
8
0
10
194.75
20
-8.25
11
212.25
21
-8.25
0
LINE
8
0
10
212.25
20
-8.25
11
212.25
21
8.25
0
LINE
8
0
10
212.25
20
8.25
11
194.75
21
8.25
0
LINE
8
0
10
194.75
20
8.25
11
194.75
21
-8.25
0
LINE
8
0
10
176.25
20
-8.25
11
193.75
21
-8.25
0
LINE
8
0
10
193.75
20
-8.25
11
193.75
21
8.25
0
LINE
8
0
10
193.75
20
8.25
11
176.25
21
8.25
0
LINE
8
0
10
176.25
20
8.25
11
176.25
21
-8.25
0
LINE
8
0
10
176.25
20
9.25
11
193.75
21
9.25
0
LINE
8
0
10
193.75
20
9.25
11
193.75
21
25.75
0
LINE
8
0
10
193.75
20
25.75
11
176.25
21
25.75
0
LINE
8
0
10
176.25
20
25.75
11
176.25
21
9.25
0
LINE
8
0
10
157.75
20
-8.25
11
175.25
21
-8.25
0
LINE
8
0
10
175.25
20
-8.25
11
175.25
21
8.25
0
LINE
8
0
10
175.25
20
8.25
11
157.75
21
8.25
0
LINE
8
0
10
157.75
20
8.25
11
157.75
21
-8.25
0
LINE
8
0
10
157.75
20
9.25
11
175.25
21
9.25
0
LINE
8
0
10
175.25
20
9.25
11
175.25
21
25.75
0
LINE
8
0
10
175.25
20
25.75
11
157.75
21
25.75
0
LINE
8
0
10
157.75
20
25.75
11
157.75
21
9.25
0
LINE
8
0
10
139.25
20
-8.25
11
156.75
21
-8.25
0
LINE
8
0
10
156.75
20
-8.25
11
156.75
21
8.25
0
LINE
8
0
10
156.75
20
8.25
11
139.25
21
8.25
0
LINE
8
0
10
139.25
20
8.25
11
139.25
21
-8.25
0
LINE
8
0
10
139.25
20
9.25
11
156.75
21
9.25
0
LINE
8
0
10
156.75
20
9.25
11
156.75
21
25.75
0
LINE
8
0
10
156.75
20
25.75
11
139.25
21
25.75
0
LINE
8
0
10
139.25
20
25.75
11
139.25
21
9.25
0
LINE
8
0
10
65.25
20
-25.75
11
82.75
21
-25.75
0
LINE
8
0
10
82.75
20
-25.75
11
82.75
21
-9.25
0
LINE
8
0
10
82.75
20
-9.25
11
65.25
21
-9.25
0
LINE
8
0
10
65.25
20
-9.25
11
65.25
21
-25.75
0
LINE
8
0
10
83.75
20
-25.75
11
101.25
21
-25.75
0
LINE
8
0
10
101.25
20
-25.75
11
101.25
21
-9.25
0
LINE
8
0
10
101.25
20
-9.25
11
83.75
21
-9.25
0
LINE
8
0
10
83.75
20
-9.25
11
83.75
21
-25.75
0
LINE
8
0
10
120.75
20
-25.75
11
138.25
21
-25.75
0
LINE
8
0
10
138.25
20
-25.75
11
138.25
21
-9.25
0
LINE
8
0
10
138.25
20
-9.25
11
120.75
21
-9.25
0
LINE
8
0
10
120.75
20
-9.25
11
120.75
21
-25.75
0
LINE
8
0
10
102.25
20
-25.75
11
119.75
21
-25.75
0
LINE
8
0
10
119.75
20
-25.75
11
119.75
21
-9.25
0
LINE
8
0
10
119.75
20
-9.25
11
102.25
21
-9.25
0
LINE
8
0
10
102.25
20
-9.25
11
102.25
21
-25.75
0
ENDSEC
0
EOF