0
SECTION
2
HEADER
9
$INSUNITS
70
4
0
ENDSEC
0
SECTION
2
TABLES
0
TABLE
2
LTYPE
0
LTYPE
72
65
70
64
2
CONTINUOUS
3
______
73
0
40
0
0
ENDTAB
0
TABLE
2
LAYER
0
ENDTAB
0
ENDSEC
0
SECTION
2
ENTITIES
0
LINE
8
0
10
114.4968121
20
-59.6034019
11
82.2765461
21
-59.6034019
0
LINE
8
0
10
79.0970303
20
-60.5151134
11
61.0547039
21
-71.7892102
0
LINE
8
0
10
53.0791811
20
-70.3062395
11
34.0777537
21
-45.0294151
0
LINE
8
0
10
33.1205661
20
-44.0235004
11
-9.7243433
21
-8.3554079
0
LINE
8
0
10
-11.5236797
20
-1.6920547
11
-7.3613493
21
9.743854
0
LINE
8
0
10
-4.8335342
20
12.8225987
11
21.7697715
21
28.9495741
0
LINE
8
0
10
27.7889696
20
29.0664268
11
72.3670368
21
4.3564006
0
LINE
8
0
10
75.2758944
20
3.6041188
11
121.4974638
21
3.6041188
0
LINE
8
0
10
124.4063214
20
4.3564006
11
168.9843886
21
29.0664268
0
LINE
8
0
10
175.0035867
20
28.9495741
11
201.6068924
21
12.8225987
0
LINE
8
0
10
204.1347075
20
9.743854
11
208.2970379
21
-1.6920547
0
LINE
8
0
10
206.4977015
20
-8.3554079
11
163.6527921
21
-44.0235004
0
LINE
8
0
10
162.6956045
20
-45.0294151
11
143.6941771
21
-70.3062395
0
LINE
8
0
10
135.7186543
20
-71.7892102
11
117.6763279
21
-60.5151134
0
ARC
8
0
10
82.2765461
20
-65.6034019
40
6
50
90
51
122.0000016
0
ARC
8
0
10
57.8751881
20
-66.7009217
40
6
50
216.9334009
51
302.0000016
0
ARC
8
0
10
29.2817467
20
-48.634733
40
6
50
36.9334009
51
50.2228514
0
ARC
8
0
10
-5.8855239
20
-3.7441754
40
6
50
160.0000019
51
230.2228514
0
ARC
8
0
10
-1.7231936
20
7.6917332
40
6
50
121.224325
51
159.9999998
0
ARC
8
0
10
24.880112
20
23.8187085
40
6
50
61.0000008
51
121.2243232
0
ARC
8
0
10
75.2758944
20
9.6041188
40
6
50
241.0000008
51
270
0
ARC
8
0
10
121.4974638
20
9.6041188
40
6
50
270
51
298.9999992
0
ARC
8
0
10
171.8932462
20
23.8187085
40
6
50
58.7756768
51
118.9999992
0
ARC
8
0
10
198.4965518
20
7.6917332
40
6
50
20.0000002
51
58.775675
0
ARC
8
0
10
202.6588821
20
-3.7441754
40
6
50
309.7771486
51
19.9999981
0
ARC
8
0
10
167.4916115
20
-48.634733
40
6
50
129.7771486
51
143.0665991
0
ARC
8
0
10
138.8981701
20
-66.7009217
40
6
50
237.9999984
51
323.0665991
0
ARC
8
0
10
114.4968121
20
-65.6034019
40
6
50
57.9999984
51
90
0
LINE
8
0
10
-8.502143
20
-4.3547174
11
3.713861
21
-8.8009792
0
LINE
8
0
10
4.3547174
20
-8.502143
11
8.8009792
21
3.713861
0
LINE
8
0
10
8.502143
20
4.3547174
11
-3.713861
21
8.8009792
0
LINE
8
0
10
-4.3547174
20
8.502143
11
-8.8009792
21
-3.713861
0
LINE
8
0
10
10.7226108
20
-6.1967298
11
22.3056956
21
-12.0986062
0
LINE
8
0
10
22.9781942
20
-11.8800982
11
28.8800706
21
-0.2970134
0
LINE
8
0
10
28.6615626
20
0.3754852
11
17.0784778
21
6.2773616
0
LINE
8
0
10
16.4059792
20
6.0588536
11
10.5041028
21
-5.5242312
0
LINE
8
0
10
18.6674445
20
9.3958844
11
30.2505293
21
3.494008
0
LINE
8
0
10
30.9230279
20
3.712516
11
36.8249043
21
15.2956008
0
LINE
8
0
10
36.6063963
20
15.9680994
11
25.0233115
21
21.8699758
0
LINE
8
0
10
24.3508129
20
21.6514678
11
18.4489365
21
10.068383
0
LINE
8
0
10
28.9129739
20
-10.7164959
11
40.28303
21
-17.019021
0
LINE
8
0
10
40.9627447
20
-16.8241159
11
47.2652698
21
-5.4540598
0
LINE
8
0
10
47.0703647
20
-4.7743451
11
35.7003086
21
1.52818
0
LINE
8
0
10
35.0205939
20
1.3332749
11
28.7180688
21
-10.0367812
0
LINE
8
0
10
37.3971423
20
4.589349
11
48.7671984
21
-1.7131761
0
LINE
8
0
10
49.4469131
20
-1.518271
11
55.7494382
21
9.8517851
0
LINE
8
0
10
55.5545331
20
10.5314998
11
44.184477
21
16.8340249
0
LINE
8
0
10
43.5047623
20
16.6391198
11
37.2022372
21
5.2690637
0
LINE
8
0
10
42.6590937
20
-23.631118
11
52.6176715
21
-31.987357
0
LINE
8
0
10
53.3220875
20
-31.9257286
11
61.6783265
21
-21.9671508
0
LINE
8
0
10
61.6166981
20
-21.2627348
11
51.6581203
21
-12.9064958
0
LINE
8
0
10
50.9537043
20
-12.9681242
11
42.5974653
21
-22.926702
0
LINE
8
0
10
53.9078769
20
-10.2253402
11
63.8664547
21
-18.5815792
0
LINE
8
0
10
64.5708707
20
-18.5199508
11
72.9271097
21
-8.561373
0
LINE
8
0
10
72.8654813
20
-7.856957
11
62.9069035
21
0.499282
0
LINE
8
0
10
62.2024875
20
0.4376536
11
53.8462485
21
-9.5209242
0
LINE
8
0
10
193.0594972
20
-8.8009792
11
205.2755012
21
-4.3547174
0
LINE
8
0
10
205.5743374
20
-3.713861
11
201.1280756
21
8.502143
0
LINE
8
0
10
200.4872192
20
8.8009792
11
188.2712152
21
4.3547174
0
LINE
8
0
10
187.972379
20
3.713861
11
192.4186408
21
-8.502143
0
LINE
8
0
10
174.4676626
20
-12.0986062
11
186.0507474
21
-6.1967298
0
LINE
8
0
10
186.2692554
20
-5.5242312
11
180.367379
21
6.0588536
0
LINE
8
0
10
179.6948804
20
6.2773616
11
168.1117956
21
0.3754852
0
LINE
8
0
10
167.8932876
20
-0.2970134
11
173.795164
21
-11.8800982
0
LINE
8
0
10
166.5228289
20
3.494008
11
178.1059137
21
9.3958844
0
LINE
8
0
10
178.3244217
20
10.068383
11
172.4225453
21
21.6514678
0
LINE
8
0
10
171.7500467
20
21.8699758
11
160.1669619
21
15.9680994
0
LINE
8
0
10
159.9484539
20
15.2956008
11
165.8503303
21
3.712516
0
LINE
8
0
10
156.4903282
20
-17.019021
11
167.8603843
21
-10.7164959
0
LINE
8
0
10
168.0552894
20
-10.0367812
11
161.7527643
21
1.3332749
0
LINE
8
0
10
161.0730496
20
1.52818
11
149.7029935
21
-4.7743451
0
LINE
8
0
10
149.5080884
20
-5.4540598
11
155.8106135
21
-16.8241159
0
LINE
8
0
10
148.0061598
20
-1.7131761
11
159.3762159
21
4.589349
0
LINE
8
0
10
159.571121
20
5.2690637
11
153.2685959
21
16.6391198
0
LINE
8
0
10
152.5888812
20
16.8340249
11
141.2188251
21
10.5314998
0
LINE
8
0
10
141.02392
20
9.8517851
11
147.3264451
21
-1.518271
0
LINE
8
0
10
144.1556867
20
-31.987357
11
154.1142645
21
-23.631118
0
LINE
8
0
10
154.1758929
20
-22.926702
11
145.8196539
21
-12.9681242
0
LINE
8
0
10
145.1152379
20
-12.9064958
11
135.1566601
21
-21.2627348
0
LINE
8
0
10
135.0950317
20
-21.9671508
11
143.4512707
21
-31.9257286
0
LINE
8
0
10
132.9069035
20
-18.5815792
11
142.8654813
21
-10.2253402
0
LINE
8
0
10
142.9271097
20
-9.5209242
11
134.5708707
21
0.4376536
0
LINE
8
0
10
133.8664547
20
0.499282
11
123.9078769
21
-7.856957
0
LINE
8
0
10
123.8462485
20
-8.561373
11
132.2024875
21
-18.5199508
0
LINE
8
0
10
37.8347736
20
-45.2416907
11
46.7007522
21
-54.7492887
0
LINE
8
0
10
47.4074283
20
-54.7739664
11
56.9150263
21
-45.9079878
0
LINE
8
0
10
56.939704
20
-45.2013117
11
48.0737254
21
-35.6937137
0
LINE
8
0
10
47.3670493
20
-35.669036
11
37.8594513
21
-44.5350146
0
LINE
8
0
10
49.8426875
20
-59.0440173
11
56.731638
21
-70.0686426
0
LINE
8
0
10
57.4206216
20
-70.227707
11
68.4452469
21
-63.3387565
0
LINE
8
0
10
68.6043113
20
-62.6497729
11
61.7153608
21
-51.6251476
0
LINE
8
0
10
61.0263772
20
-51.4660832
11
50.0017519
21
-58.3550337
0
LINE
8
0
10
150.072606
20
-54.7492887
11
158.9385846
21
-45.2416907
0
LINE
8
0
10
158.9139069
20
-44.5350146
11
149.4063089
21
-35.669036
0
LINE
8
0
10
148.6996328
20
-35.6937137
11
139.8336542
21
-45.2013117
0
LINE
8
0
10
139.8583319
20
-45.9079878
11
149.3659299
21
-54.7739664
0
LINE
8
0
10
140.0417202
20
-70.0686426
11
146.9306707
21
-59.0440173
0
LINE
8
0
10
146.7716063
20
-58.3550337
11
135.746981
21
-51.4660832
0
LINE
8
0
10
135.0579974
20
-51.6251476
11
128.1690469
21
-62.6497729
0
LINE
8
0
10
128.3281113
20
-63.3387565
11
139.3527366
21
-70.227707
0
ARC
8
0
10
32.8006645
20
-44.4077698
40
0.5
50
50.2228514
51
50.2228543
0
ARC
8
0
10
-9.4044417
20
-7.9711386
40
0.5
50
230.2228514
51
230.2228543
0
ARC
8
0
10
-6.891503
20
9.572844
40
0.5
50
159.9999998
51
160.0000019
0
ARC
8
0
10
-4.5743392
20
12.3950266
40
0.5
50
121.2243232
51
121.224325
0
ARC
8
0
10
201.3476974
20
12.3950266
40
0.5
50
58.775675
51
58.7756768
0
ARC
8
0
10
203.6648612
20
9.572844
40
0.5
50
19.9999981
51
20.0000002
0
ARC
8
0
10
206.1777999
20
-7.9711386
40
0.5
50
309.7771457
51
309.7771486
0
ARC
8
0
10
163.9726937
20
-44.4077698
40
0.5
50
129.7771457
51
129.7771486
0
ARC
8
0
10
185.8237522
20
-5.7512265
40
0.5
50
297.0000006
51
27.0000006
0
ARC
8
0
10
179.9218757
20
5.8318584
40
0.5
50
27.0000006
51
117.0000006
0
ARC
8
0
10
168.3387908
20
-0.0700181
40
0.5
50
117.0000006
51
207.0000006
0
ARC
8
0
10
174.2406673
20
-11.653103
40
0.5
50
207.0000006
51
297.0000006
0
ARC
8
0
10
177.8789185
20
9.8413877
40
0.5
50
297.0000006
51
27.0000006
0
ARC
8
0
10
171.977042
20
21.4244726
40
0.5
50
27.0000006
51
117.0000006
0
ARC
8
0
10
160.3939571
20
15.5225961
40
0.5
50
117.0000006
51
207.0000006
0
ARC
8
0
10
166.2958336
20
3.9395112
40
0.5
50
207.0000006
51
297.0000006
0
ARC
8
0
10
22.5326909
20
-11.653103
40
0.5
50
242.9999994
51
332.9999994
0
ARC
8
0
10
28.4345674
20
-0.0700181
40
0.5
50
332.9999994
51
62.9999994
0
ARC
8
0
10
16.8514825
20
5.8318584
40
0.5
50
62.9999994
51
152.9999994
0
ARC
8
0
10
10.949606
20
-5.7512265
40
0.5
50
152.9999994
51
242.9999994
0
ARC
8
0
10
30.4775246
20
3.9395112
40
0.5
50
242.9999994
51
332.9999994
0
ARC
8
0
10
36.3794011
20
15.5225961
40
0.5
50
332.9999994
51
62.9999994
0
ARC
8
0
10
24.7963162
20
21.4244726
40
0.5
50
62.9999994
51
152.9999994
0
ARC
8
0
10
18.8944397
20
9.8413877
40
0.5
50
152.9999994
51
242.9999994
0
ARC
8
0
10
52.9390653
20
-31.6043348
40
0.5
50
229.9999988
51
319.9999988
0
ARC
8
0
10
61.2953043
20
-21.645757
40
0.5
50
319.9999988
51
49.9999988
0
ARC
8
0
10
51.3367265
20
-13.289518
40
0.5
50
49.9999988
51
139.9999988
0
ARC
8
0
10
42.9804875
20
-23.2480958
40
0.5
50
139.9999988
51
229.9999988
0
ARC
8
0
10
64.1878485
20
-18.198557
40
0.5
50
229.9999988
51
319.9999988
0
ARC
8
0
10
72.5440875
20
-8.2399792
40
0.5
50
319.9999988
51
49.9999988
0
ARC
8
0
10
62.5855097
20
0.1162598
40
0.5
50
49.9999988
51
139.9999988
0
ARC
8
0
10
54.2292707
20
-9.842318
40
0.5
50
139.9999988
51
229.9999988
0
ARC
8
0
10
142.5440875
20
-9.842318
40
0.5
50
310.0000012
51
40.0000012
0
ARC
8
0
10
134.1878485
20
0.1162598
40
0.5
50
40.0000012
51
130.0000012
0
ARC
8
0
10
124.2292707
20
-8.2399792
40
0.5
50
130.0000012
51
220.0000012
0
ARC
8
0
10
132.5855097
20
-18.198557
40
0.5
50
220.0000012
51
310.0000012
0
ARC
8
0
10
153.7928707
20
-23.2480958
40
0.5
50
310.0000012
51
40.0000012
0
ARC
8
0
10
145.4366317
20
-13.289518
40
0.5
50
40.0000012
51
130.0000012
0
ARC
8
0
10
135.4780539
20
-21.645757
40
0.5
50
130.0000012
51
220.0000012
0
ARC
8
0
10
143.8342929
20
-31.6043348
40
0.5
50
220.0000012
51
310.0000012
0
ARC
8
0
10
49.0096032
20
-1.2758662
40
0.5
50
241.0000008
51
331.0000008
0
ARC
8
0
10
55.3121283
20
10.0941899
40
0.5
50
331.0000008
51
61.0000008
0
ARC
8
0
10
43.9420722
20
16.396715
40
0.5
50
61.0000008
51
151.0000008
0
ARC
8
0
10
37.6395471
20
5.0266589
40
0.5
50
151.0000008
51
241.0000008
0
ARC
8
0
10
40.5254348
20
-16.5817111
40
0.5
50
241.0000008
51
331.0000008
0
ARC
8
0
10
46.8279599
20
-5.211655
40
0.5
50
331.0000008
51
61.0000008
0
ARC
8
0
10
35.4579038
20
1.0908701
40
0.5
50
61.0000008
51
151.0000008
0
ARC
8
0
10
29.1553787
20
-10.279186
40
0.5
50
151.0000008
51
241.0000008
0
ARC
8
0
10
167.6179795
20
-10.279186
40
0.5
50
298.9999992
51
28.9999992
0
ARC
8
0
10
161.3154544
20
1.0908701
40
0.5
50
28.9999992
51
118.9999992
0
ARC
8
0
10
149.9453983
20
-5.211655
40
0.5
50
118.9999992
51
208.9999992
0
ARC
8
0
10
156.2479234
20
-16.5817111
40
0.5
50
208.9999992
51
298.9999992
0
ARC
8
0
10
159.1338111
20
5.0266589
40
0.5
50
298.9999992
51
28.9999992
0
ARC
8
0
10
152.831286
20
16.396715
40
0.5
50
28.9999992
51
118.9999992
0
ARC
8
0
10
141.4612299
20
10.0941899
40
0.5
50
118.9999992
51
208.9999992
0
ARC
8
0
10
147.763755
20
-1.2758662
40
0.5
50
208.9999992
51
298.9999992
0
ARC
8
0
10
57.155662
20
-69.803683
40
0.5
50
212.0000016
51
302.0000016
0
ARC
8
0
10
68.1802873
20
-62.9147325
40
0.5
50
302.0000016
51
32.0000016
0
ARC
8
0
10
61.2913368
20
-51.8901072
40
0.5
50
32.0000016
51
122.0000016
0
ARC
8
0
10
50.2667115
20
-58.7790577
40
0.5
50
122.0000016
51
212.0000016
0
ARC
8
0
10
146.5066467
20
-58.7790577
40
0.5
50
327.9999984
51
57.9999984
0
ARC
8
0
10
135.4820214
20
-51.8901072
40
0.5
50
57.9999984
51
147.9999984
0
ARC
8
0
10
128.5930709
20
-62.9147325
40
0.5
50
147.9999984
51
237.9999984
0
ARC
8
0
10
139.6176962
20
-69.803683
40
0.5
50
237.9999984
51
327.9999984
0
ARC
8
0
10
47.0664291
20
-54.4082895
40
0.5
50
223.0000017
51
313.0000017
0
ARC
8
0
10
56.5740271
20
-45.5423109
40
0.5
50
313.0000017
51
43.0000017
0
ARC
8
0
10
47.7080485
20
-36.0347129
40
0.5
50
43.0000017
51
133.0000017
0
ARC
8
0
10
38.2004505
20
-44.9006915
40
0.5
50
133.0000017
51
223.0000017
0
ARC
8
0
10
158.5729077
20
-44.9006915
40
0.5
50
316.9999983
51
46.9999983
0
ARC
8
0
10
149.0653097
20
-36.0347129
40
0.5
50
46.9999983
51
136.9999983
0
ARC
8
0
10
140.1993311
20
-45.5423109
40
0.5
50
136.9999983
51
226.9999983
0
ARC
8
0
10
149.7069291
20
-54.4082895
40
0.5
50
226.9999983
51
316.9999983
0
ARC
8
0
10
3.8848711
20
-8.3311329
40
0.5
50
250.0000019
51
340.0000019
0
ARC
8
0
10
8.3311329
20
3.8848711
40
0.5
50
340.0000019
51
70.0000019
0
ARC
8
0
10
-3.8848711
20
8.3311329
40
0.5
50
70.0000019
51
160.0000019
0
ARC
8
0
10
-8.3311329
20
-3.8848711
40
0.5
50
160.0000019
51
250.0000019
0
ARC
8
0
10
205.1044911
20
-3.8848711
40
0.5
50
289.9999981
51
19.9999981
0
ARC
8
0
10
200.6582293
20
8.3311329
40
0.5
50
19.9999981
51
109.9999981
0
ARC
8
0
10
188.4422253
20
3.8848711
40
0.5
50
109.9999981
51
199.9999981
0
ARC
8
0
10
192.8884871
20
-8.3311329
40
0.5
50
199.9999981
51
289.9999981
0
LINE
8
0
10
89.4866791
20
-30.0411486
11
107.2866791
21
-30.0411486
0
LINE
8
0
10
107.2866791
20
-30.0411486
11
107.2866791
21
-9.0411486
0
LINE
8
0
10
107.2866791
20
-9.0411486
11
102.3866791
21
-9.0411486
0
LINE
8
0
10
94.3866791
20
-9.0411486
11
89.4866791
21
-9.0411486
0
LINE
8
0
10
89.4866791
20
-9.0411486
11
89.4866791
21
-30.0411486
0
LINE
8
0
10
102.3866791
20
-9.0411486
11
102.3866791
21
-6.0411486
0
LINE
8
0
10
102.3866791
20
-6.0411486
11
94.3866791
21
-6.0411486
0
LINE
8
0
10
94.3866791
20
-6.0411486
11
94.3866791
21
-9.0411486
0
ENDSEC
0
EOF