0
SECTION
2
HEADER
9
$INSUNITS
70
4
0
ENDSEC
0
SECTION
2
TABLES
0
TABLE
2
LTYPE
0
LTYPE
72
65
70
64
2
CONTINUOUS
3
______
73
0
40
0
0
ENDTAB
0
TABLE
2
LAYER
0
ENDTAB
0
ENDSEC
0
SECTION
2
ENTITIES
0
LINE
8
0
10
-8.25
20
-9.25
11
62.75
21
-9.25
0
LINE
8
0
10
7.25
20
9.25
11
-8.25
21
9.25
0
LINE
8
0
10
-9.75
20
7.75
11
-9.75
21
-7.75
0
LINE
8
0
10
10.25
20
26.75
11
63.75
21
26.75
0
LINE
8
0
10
8.75
20
10.75
11
8.75
21
25.25
0
LINE
8
0
10
65.25
20
-6.75
11
65.25
21
25.25
0
LINE
8
0
10
140.75
20
-9.25
11
211.75
21
-9.25
0
LINE
8
0
10
213.25
20
-7.75
11
213.25
21
7.75
0
LINE
8
0
10
211.75
20
9.25
11
196.25
21
9.25
0
LINE
8
0
10
194.75
20
10.75
11
194.75
21
25.25
0
LINE
8
0
10
139.75
20
26.75
11
193.25
21
26.75
0
LINE
8
0
10
138.25
20
-6.75
11
138.25
21
25.25
0
LINE
8
0
10
65.75
20
-26.75
11
137.75
21
-26.75
0
LINE
8
0
10
66.75
20
-8.25
11
136.75
21
-8.25
0
LINE
8
0
10
64.25
20
-10.75
11
64.25
21
-25.25
0
LINE
8
0
10
139.25
20
-25.25
11
139.25
21
-10.75
0
ARC
8
0
10
62.75
20
-10.75
40
1.5
50
0
51
90
0
ARC
8
0
10
65.75
20
-25.25
40
1.5
50
180
51
270
0
ARC
8
0
10
137.75
20
-25.25
40
1.5
50
270
51
0
0
ARC
8
0
10
140.75
20
-10.75
40
1.5
50
90
51
180
0
ARC
8
0
10
211.75
20
-7.75
40
1.5
50
270
51
0
0
ARC
8
0
10
211.75
20
7.75
40
1.5
50
0
51
90
0
ARC
8
0
10
196.25
20
10.75
40
1.5
50
180
51
270
0
ARC
8
0
10
193.25
20
25.25
40
1.5
50
0
51
90
0
ARC
8
0
10
139.75
20
25.25
40
1.5
50
90
51
180
0
ARC
8
0
10
136.75
20
-6.75
40
1.5
50
270
51
0
0
ARC
8
0
10
66.75
20
-6.75
40
1.5
50
180
51
270
0
ARC
8
0
10
63.75
20
25.25
40
1.5
50
0
51
90
0
ARC
8
0
10
10.25
20
25.25
40
1.5
50
90
51
180
0
ARC
8
0
10
7.25
20
10.75
40
1.5
50
270
51
0
0
ARC
8
0
10
-8.25
20
7.75
40
1.5
50
90
51
180
0
ARC
8
0
10
-8.25
20
-7.75
40
1.5
50
180
51
270
0
LINE
8
0
10
-6.5
20
-7
11
6.5
21
-7
0
LINE
8
0
10
7
20
-6.5
11
7
21
6.5
0
LINE
8
0
10
6.5
20
7
11
-6.5
21
7
0
LINE
8
0
10
-7
20
6.5
11
-7
21
-6.5
0
LINE
8
0
10
12
20
-7
11
25
21
-7
0
LINE
8
0
10
25.5
20
-6.5
11
25.5
21
6.5
0
LINE
8
0
10
25
20
7
11
12
21
7
0
LINE
8
0
10
11.5
20
6.5
11
11.5
21
-6.5
0
LINE
8
0
10
12
20
10.5
11
25
21
10.5
0
LINE
8
0
10
25.5
20
11
11
25.5
21
24
0
LINE
8
0
10
25
20
24.5
11
12
21
24.5
0
LINE
8
0
10
11.5
20
24
11
11.5
21
11
0
LINE
8
0
10
30.5
20
-7
11
43.5
21
-7
0
LINE
8
0
10
44
20
-6.5
11
44
21
6.5
0
LINE
8
0
10
43.5
20
7
11
30.5
21
7
0
LINE
8
0
10
30
20
6.5
11
30
21
-6.5
0
LINE
8
0
10
30.5
20
10.5
11
43.5
21
10.5
0
LINE
8
0
10
44
20
11
11
44
21
24
0
LINE
8
0
10
43.5
20
24.5
11
30.5
21
24.5
0
LINE
8
0
10
30
20
24
11
30
21
11
0
LINE
8
0
10
49
20
-7
11
62
21
-7
0
LINE
8
0
10
62.5
20
-6.5
11
62.5
21
6.5
0
LINE
8
0
10
62
20
7
11
49
21
7
0
LINE
8
0
10
48.5
20
6.5
11
48.5
21
-6.5
0
LINE
8
0
10
49
20
10.5
11
62
21
10.5
0
LINE
8
0
10
62.5
20
11
11
62.5
21
24
0
LINE
8
0
10
62
20
24.5
11
49
21
24.5
0
LINE
8
0
10
48.5
20
24
11
48.5
21
11
0
LINE
8
0
10
197
20
-7
11
210
21
-7
0
LINE
8
0
10
210.5
20
-6.5
11
210.5
21
6.5
0
LINE
8
0
10
210
20
7
11
197
21
7
0
LINE
8
0
10
196.5
20
6.5
11
196.5
21
-6.5
0
LINE
8
0
10
178.5
20
-7
11
191.5
21
-7
0
LINE
8
0
10
192
20
-6.5
11
192
21
6.5
0
LINE
8
0
10
191.5
20
7
11
178.5
21
7
0
LINE
8
0
10
178
20
6.5
11
178
21
-6.5
0
LINE
8
0
10
178.5
20
10.5
11
191.5
21
10.5
0
LINE
8
0
10
192
20
11
11
192
21
24
0
LINE
8
0
10
191.5
20
24.5
11
178.5
21
24.5
0
LINE
8
0
10
178
20
24
11
178
21
11
0
LINE
8
0
10
160
20
-7
11
173
21
-7
0
LINE
8
0
10
173.5
20
-6.5
11
173.5
21
6.5
0
LINE
8
0
10
173
20
7
11
160
21
7
0
LINE
8
0
10
159.5
20
6.5
11
159.5
21
-6.5
0
LINE
8
0
10
160
20
10.5
11
173
21
10.5
0
LINE
8
0
10
173.5
20
11
11
173.5
21
24
0
LINE
8
0
10
173
20
24.5
11
160
21
24.5
0
LINE
8
0
10
159.5
20
24
11
159.5
21
11
0
LINE
8
0
10
141.5
20
-7
11
154.5
21
-7
0
LINE
8
0
10
155
20
-6.5
11
155
21
6.5
0
LINE
8
0
10
154.5
20
7
11
141.5
21
7
0
LINE
8
0
10
141
20
6.5
11
141
21
-6.5
0
LINE
8
0
10
141.5
20
10.5
11
154.5
21
10.5
0
LINE
8
0
10
155
20
11
11
155
21
24
0
LINE
8
0
10
154.5
20
24.5
11
141.5
21
24.5
0
LINE
8
0
10
141
20
24
11
141
21
11
0
LINE
8
0
10
67.5
20
-24.5
11
80.5
21
-24.5
0
LINE
8
0
10
81
20
-24
11
81
21
-11
0
LINE
8
0
10
80.5
20
-10.5
11
67.5
21
-10.5
0
LINE
8
0
10
67
20
-11
11
67
21
-24
0
LINE
8
0
10
86
20
-24.5
11
99
21
-24.5
0
LINE
8
0
10
99.5
20
-24
11
99.5
21
-11
0
LINE
8
0
10
99
20
-10.5
11
86
21
-10.5
0
LINE
8
0
10
85.5
20
-11
11
85.5
21
-24
0
LINE
8
0
10
123
20
-24.5
11
136
21
-24.5
0
LINE
8
0
10
136.5
20
-24
11
136.5
21
-11
0
LINE
8
0
10
136
20
-10.5
11
123
21
-10.5
0
LINE
8
0
10
122.5
20
-11
11
122.5
21
-24
0
LINE
8
0
10
104.5
20
-24.5
11
117.5
21
-24.5
0
LINE
8
0
10
118
20
-24
11
118
21
-11
0
LINE
8
0
10
117.5
20
-10.5
11
104.5
21
-10.5
0
LINE
8
0
10
104
20
-11
11
104
21
-24
0
ARC
8
0
10
6.5
20
-6.5
40
0.5
50
270
51
0
0
ARC
8
0
10
6.5
20
6.5
40
0.5
50
0
51
90
0
ARC
8
0
10
-6.5
20
6.5
40
0.5
50
90
51
180
0
ARC
8
0
10
-6.5
20
-6.5
40
0.5
50
180
51
270
0
ARC
8
0
10
25
20
-6.5
40
0.5
50
270
51
0
0
ARC
8
0
10
25
20
6.5
40
0.5
50
0
51
90
0
ARC
8
0
10
12
20
6.5
40
0.5
50
90
51
180
0
ARC
8
0
10
12
20
-6.5
40
0.5
50
180
51
270
0
ARC
8
0
10
25
20
11
40
0.5
50
270
51
0
0
ARC
8
0
10
25
20
24
40
0.5
50
0
51
90
0
ARC
8
0
10
12
20
24
40
0.5
50
90
51
180
0
ARC
8
0
10
12
20
11
40
0.5
50
180
51
270
0
ARC
8
0
10
43.5
20
-6.5
40
0.5
50
270
51
0
0
ARC
8
0
10
43.5
20
6.5
40
0.5
50
0
51
90
0
ARC
8
0
10
30.5
20
6.5
40
0.5
50
90
51
180
0
ARC
8
0
10
30.5
20
-6.5
40
0.5
50
180
51
270
0
ARC
8
0
10
43.5
20
11
40
0.5
50
270
51
0
0
ARC
8
0
10
43.5
20
24
40
0.5
50
0
51
90
0
ARC
8
0
10
30.5
20
24
40
0.5
50
90
51
180
0
ARC
8
0
10
30.5
20
11
40
0.5
50
180
51
270
0
ARC
8
0
10
62
20
-6.5
40
0.5
50
270
51
0
0
ARC
8
0
10
62
20
6.5
40
0.5
50
0
51
90
0
ARC
8
0
10
49
20
6.5
40
0.5
50
90
51
180
0
ARC
8
0
10
49
20
-6.5
40
0.5
50
180
51
270
0
ARC
8
0
10
62
20
11
40
0.5
50
270
51
0
0
ARC
8
0
10
62
20
24
40
0.5
50
0
51
90
0
ARC
8
0
10
49
20
24
40
0.5
50
90
51
180
0
ARC
8
0
10
49
20
11
40
0.5
50
180
51
270
0
ARC
8
0
10
210
20
-6.5
40
0.5
50
270
51
0
0
ARC
8
0
10
210
20
6.5
40
0.5
50
0
51
90
0
ARC
8
0
10
197
20
6.5
40
0.5
50
90
51
180
0
ARC
8
0
10
197
20
-6.5
40
0.5
50
180
51
270
0
ARC
8
0
10
191.5
20
-6.5
40
0.5
50
270
51
0
0
ARC
8
0
10
191.5
20
6.5
40
0.5
50
0
51
90
0
ARC
8
0
10
178.5
20
6.5
40
0.5
50
90
51
180
0
ARC
8
0
10
178.5
20
-6.5
40
0.5
50
180
51
270
0
ARC
8
0
10
191.5
20
11
40
0.5
50
270
51
0
0
ARC
8
0
10
191.5
20
24
40
0.5
50
0
51
90
0
ARC
8
0
10
178.5
20
24
40
0.5
50
90
51
180
0
ARC
8
0
10
178.5
20
11
40
0.5
50
180
51
270
0
ARC
8
0
10
173
20
-6.5
40
0.5
50
270
51
0
0
ARC
8
0
10
173
20
6.5
40
0.5
50
0
51
90
0
ARC
8
0
10
160
20
6.5
40
0.5
50
90
51
180
0
ARC
8
0
10
160
20
-6.5
40
0.5
50
180
51
270
0
ARC
8
0
10
173
20
11
40
0.5
50
270
51
0
0
ARC
8
0
10
173
20
24
40
0.5
50
0
51
90
0
ARC
8
0
10
160
20
24
40
0.5
50
90
51
180
0
ARC
8
0
10
160
20
11
40
0.5
50
180
51
270
0
ARC
8
0
10
154.5
20
-6.5
40
0.5
50
270
51
0
0
ARC
8
0
10
154.5
20
6.5
40
0.5
50
0
51
90
0
ARC
8
0
10
141.5
20
6.5
40
0.5
50
90
51
180
0
ARC
8
0
10
141.5
20
-6.5
40
0.5
50
180
51
270
0
ARC
8
0
10
154.5
20
11
40
0.5
50
270
51
0
0
ARC
8
0
10
154.5
20
24
40
0.5
50
0
51
90
0
ARC
8
0
10
141.5
20
24
40
0.5
50
90
51
180
0
ARC
8
0
10
141.5
20
11
40
0.5
50
180
51
270
0
ARC
8
0
10
80.5
20
-24
40
0.5
50
270
51
0
0
ARC
8
0
10
80.5
20
-11
40
0.5
50
0
51
90
0
ARC
8
0
10
67.5
20
-11
40
0.5
50
90
51
180
0
ARC
8
0
10
67.5
20
-24
40
0.5
50
180
51
270
0
ARC
8
0
10
99
20
-24
40
0.5
50
270
51
0
0
ARC
8
0
10
99
20
-11
40
0.5
50
0
51
90
0
ARC
8
0
10
86
20
-11
40
0.5
50
90
51
180
0
ARC
8
0
10
86
20
-24
40
0.5
50
180
51
270
0
ARC
8
0
10
136
20
-24
40
0.5
50
270
51
0
0
ARC
8
0
10
136
20
-11
40
0.5
50
0
51
90
0
ARC
8
0
10
123
20
-11
40
0.5
50
90
51
180
0
ARC
8
0
10
123
20
-24
40
0.5
50
180
51
270
0
ARC
8
0
10
117.5
20
-24
40
0.5
50
270
51
0
0
ARC
8
0
10
117.5
20
-11
40
0.5
50
0
51
90
0
ARC
8
0
10
104.5
20
-11
40
0.5
50
90
51
180
0
ARC
8
0
10
104.5
20
-24
40
0.5
50
180
51
270
0
ENDSEC
0
EOF