0
SECTION
2
HEADER
9
$INSUNITS
70
4
0
ENDSEC
0
SECTION
2
TABLES
0
TABLE
2
LTYPE
0
LTYPE
72
65
70
64
2
CONTINUOUS
3
______
73
0
40
0
0
ENDTAB
0
TABLE
2
LAYER
0
ENDTAB
0
ENDSEC
0
SECTION
2
ENTITIES
0
LINE
8
0
10
118.3419504
20
-57.8103844
11
86.1216844
21
-57.8103844
0
LINE
8
0
10
82.9421686
20
-58.7220959
11
65.0071989
21
-69.9291087
0
LINE
8
0
10
56.951169
20
-68.336476
11
39.0996271
21
-43.433196
0
LINE
8
0
10
37.7227712
20
-42.0552093
11
-9.2726978
21
-8.3087697
0
LINE
8
0
10
-11.4111954
20
-1.3830065
11
-7.7348869
21
8.7175682
0
LINE
8
0
10
-5.0663821
20
11.8790041
11
27.0060413
21
30.1475118
0
LINE
8
0
10
32.8859432
20
30.1809008
11
75.7743218
21
6.3925953
0
LINE
8
0
10
78.6845728
20
5.639541
11
125.779062
21
5.639541
0
LINE
8
0
10
128.689313
20
6.3925953
11
171.5776916
21
30.1809008
0
LINE
8
0
10
177.4575935
20
30.1475118
11
209.5300169
21
11.8790041
0
LINE
8
0
10
212.1985217
20
8.7175682
11
215.8748302
21
-1.3830065
0
LINE
8
0
10
213.7363326
20
-8.3087697
11
166.7408636
21
-42.0552093
0
LINE
8
0
10
165.3640077
20
-43.433196
11
147.5124658
21
-68.336476
0
LINE
8
0
10
139.4564359
20
-69.9291087
11
121.5214662
21
-58.7220959
0
ARC
8
0
10
86.1216844
20
-63.8103844
40
6
50
90
51
122.0000016
0
ARC
8
0
10
61.8276832
20
-64.8408202
40
6
50
215.6342774
51
302.0000016
0
ARC
8
0
10
34.2231129
20
-46.9288518
40
6
50
35.6342774
51
54.3186831
0
ARC
8
0
10
-5.7730396
20
-3.4351271
40
6
50
160.0000019
51
234.3186831
0
ARC
8
0
10
-2.0967311
20
6.6654474
40
6
50
119.6659141
51
159.9999998
0
ARC
8
0
10
29.9756922
20
24.933955
40
6
50
60.9847871
51
119.6659134
0
ARC
8
0
10
78.6845728
20
11.639541
40
6
50
240.9847871
51
270
0
ARC
8
0
10
125.779062
20
11.639541
40
6
50
270
51
299.0152129
0
ARC
8
0
10
174.4879426
20
24.933955
40
6
50
60.3340866
51
119.0152129
0
ARC
8
0
10
206.5603659
20
6.6654474
40
6
50
20.0000002
51
60.3340859
0
ARC
8
0
10
210.2366744
20
-3.4351271
40
6
50
305.6813169
51
19.9999981
0
ARC
8
0
10
170.2405219
20
-46.9288518
40
6
50
125.6813169
51
144.3657226
0
ARC
8
0
10
142.6359516
20
-64.8408202
40
6
50
237.9999984
51
324.3657226
0
ARC
8
0
10
118.3419504
20
-63.8103844
40
6
50
57.9999984
51
90
0
LINE
8
0
10
-8.502143
20
-4.3547174
11
3.713861
21
-8.8009792
0
LINE
8
0
10
4.3547174
20
-8.502143
11
8.8009792
21
3.713861
0
LINE
8
0
10
8.502143
20
4.3547174
11
-3.713861
21
8.8009792
0
LINE
8
0
10
-4.3547174
20
8.502143
11
-8.8009792
21
-3.713861
0
LINE
8
0
10
14.5677491
20
-4.4037124
11
26.1508339
21
-10.3055888
0
LINE
8
0
10
26.8233325
20
-10.0870808
11
32.7252089
21
1.496004
0
LINE
8
0
10
32.5067009
20
2.1685026
11
20.9236161
21
8.070379
0
LINE
8
0
10
20.2511175
20
7.851871
11
14.3492411
21
-3.7312138
0
LINE
8
0
10
22.5125828
20
11.1889018
11
34.0956676
21
5.2870254
0
LINE
8
0
10
34.7681662
20
5.5055334
11
40.6700426
21
17.0886182
0
LINE
8
0
10
40.4515346
20
17.7611168
11
28.8684498
21
23.6629932
0
LINE
8
0
10
28.1959512
20
23.4444852
11
22.2940748
21
11.8614004
0
LINE
8
0
10
32.7581123
20
-8.9234785
11
44.1281684
21
-15.2260036
0
LINE
8
0
10
44.8078831
20
-15.0310985
11
51.1104082
21
-3.6610424
0
LINE
8
0
10
50.9155031
20
-2.9813277
11
39.545447
21
3.3211974
0
LINE
8
0
10
38.8657323
20
3.1262923
11
32.5632072
21
-8.2437638
0
LINE
8
0
10
41.2422806
20
6.3823664
11
52.6123367
21
0.0798413
0
LINE
8
0
10
53.2920514
20
0.2747464
11
59.5945765
21
11.6448025
0
LINE
8
0
10
59.3996714
20
12.3245172
11
48.0296153
21
18.6270423
0
LINE
8
0
10
47.3499006
20
18.4321372
11
41.0473755
21
7.0620811
0
LINE
8
0
10
46.504232
20
-21.8381005
11
56.4628098
21
-30.1943395
0
LINE
8
0
10
57.1672258
20
-30.1327111
11
65.5234648
21
-20.1741333
0
LINE
8
0
10
65.4618364
20
-19.4697173
11
55.5032586
21
-11.1134783
0
LINE
8
0
10
54.7988426
20
-11.1751067
11
46.4426036
21
-21.1336845
0
LINE
8
0
10
57.7530152
20
-8.4323227
11
67.711593
21
-16.7885617
0
LINE
8
0
10
68.416009
20
-16.7269333
11
76.772248
21
-6.7683555
0
LINE
8
0
10
76.7106196
20
-6.0639395
11
66.7520418
21
2.2922995
0
LINE
8
0
10
66.0476258
20
2.2306711
11
57.6913868
21
-7.7279067
0
LINE
8
0
10
200.7497738
20
-8.8009792
11
212.9657778
21
-4.3547174
0
LINE
8
0
10
213.264614
20
-3.713861
11
208.8183522
21
8.502143
0
LINE
8
0
10
208.1774958
20
8.8009792
11
195.9614918
21
4.3547174
0
LINE
8
0
10
195.6626556
20
3.713861
11
200.1089174
21
-8.502143
0
LINE
8
0
10
178.3128009
20
-10.3055888
11
189.8958857
21
-4.4037124
0
LINE
8
0
10
190.1143937
20
-3.7312138
11
184.2125173
21
7.851871
0
LINE
8
0
10
183.5400187
20
8.070379
11
171.9569339
21
2.1685026
0
LINE
8
0
10
171.7384259
20
1.496004
11
177.6403023
21
-10.0870808
0
LINE
8
0
10
170.3679672
20
5.2870254
11
181.951052
21
11.1889018
0
LINE
8
0
10
182.16956
20
11.8614004
11
176.2676836
21
23.4444852
0
LINE
8
0
10
175.595185
20
23.6629932
11
164.0121002
21
17.7611168
0
LINE
8
0
10
163.7935922
20
17.0886182
11
169.6954686
21
5.5055334
0
LINE
8
0
10
160.3354664
20
-15.2260036
11
171.7055225
21
-8.9234785
0
LINE
8
0
10
171.9004276
20
-8.2437638
11
165.5979025
21
3.1262923
0
LINE
8
0
10
164.9181878
20
3.3211974
11
153.5481317
21
-2.9813277
0
LINE
8
0
10
153.3532266
20
-3.6610424
11
159.6557517
21
-15.0310985
0
LINE
8
0
10
151.8512981
20
0.0798413
11
163.2213542
21
6.3823664
0
LINE
8
0
10
163.4162593
20
7.0620811
11
157.1137342
21
18.4321372
0
LINE
8
0
10
156.4340195
20
18.6270423
11
145.0639634
21
12.3245172
0
LINE
8
0
10
144.8690583
20
11.6448025
11
151.1715834
21
0.2747464
0
LINE
8
0
10
148.000825
20
-30.1943395
11
157.9594028
21
-21.8381005
0
LINE
8
0
10
158.0210312
20
-21.1336845
11
149.6647922
21
-11.1751067
0
LINE
8
0
10
148.9603762
20
-11.1134783
11
139.0017984
21
-19.4697173
0
LINE
8
0
10
138.94017
20
-20.1741333
11
147.296409
21
-30.1327111
0
LINE
8
0
10
136.7520418
20
-16.7885617
11
146.7106196
21
-8.4323227
0
LINE
8
0
10
146.772248
20
-7.7279067
11
138.416009
21
2.2306711
0
LINE
8
0
10
137.711593
20
2.2922995
11
127.7530152
21
-6.0639395
0
LINE
8
0
10
127.6913868
20
-6.7683555
11
136.0476258
21
-16.7269333
0
LINE
8
0
10
41.6799119
20
-43.4486732
11
50.5458905
21
-52.9562712
0
LINE
8
0
10
51.2525666
20
-52.9809489
11
60.7601646
21
-44.1149703
0
LINE
8
0
10
60.7848423
20
-43.4082942
11
51.9188637
21
-33.9006962
0
LINE
8
0
10
51.2121876
20
-33.8760185
11
41.7045896
21
-42.7419971
0
LINE
8
0
10
53.6878258
20
-57.2509998
11
60.5767763
21
-68.2756251
0
LINE
8
0
10
61.2657599
20
-68.4346895
11
72.2903852
21
-61.545739
0
LINE
8
0
10
72.4494496
20
-60.8567554
11
65.5604991
21
-49.8321301
0
LINE
8
0
10
64.8715155
20
-49.6730657
11
53.8468902
21
-56.5620162
0
LINE
8
0
10
153.9177443
20
-52.9562712
11
162.7837229
21
-43.4486732
0
LINE
8
0
10
162.7590452
20
-42.7419971
11
153.2514472
21
-33.8760185
0
LINE
8
0
10
152.5447711
20
-33.9006962
11
143.6787925
21
-43.4082942
0
LINE
8
0
10
143.7034702
20
-44.1149703
11
153.2110682
21
-52.9809489
0
LINE
8
0
10
143.8868585
20
-68.2756251
11
150.775809
21
-57.2509998
0
LINE
8
0
10
150.6167446
20
-56.5620162
11
139.5921193
21
-49.6730657
0
LINE
8
0
10
138.9031357
20
-49.8321301
11
132.0141852
21
-60.8567554
0
LINE
8
0
10
132.1732496
20
-61.545739
11
143.1978749
21
-68.4346895
0
ARC
8
0
10
57.3575452
20
-68.0451714
40
0.5
50
215.6342757
51
215.6342774
0
ARC
8
0
10
38.6932509
20
-43.7245006
40
0.5
50
35.6342757
51
35.6342774
0
ARC
8
0
10
-7.2650405
20
8.5465582
40
0.5
50
159.9999998
51
160.0000019
0
ARC
8
0
10
-4.8189111
20
11.444541
40
0.5
50
119.6659134
51
119.6659141
0
ARC
8
0
10
209.2825459
20
11.444541
40
0.5
50
60.3340859
51
60.3340866
0
ARC
8
0
10
211.7286753
20
8.5465582
40
0.5
50
19.9999981
51
20.0000002
0
ARC
8
0
10
165.7703839
20
-43.7245006
40
0.5
50
144.3657226
51
144.3657243
0
ARC
8
0
10
147.1060896
20
-68.0451714
40
0.5
50
324.3657226
51
324.3657243
0
ARC
8
0
10
34.3226629
20
5.7325286
40
0.5
50
242.9999994
51
332.9999994
0
ARC
8
0
10
40.2245394
20
17.3156135
40
0.5
50
332.9999994
51
62.9999994
0
ARC
8
0
10
28.6414545
20
23.21749
40
0.5
50
62.9999994
51
152.9999994
0
ARC
8
0
10
22.739578
20
11.6344051
40
0.5
50
152.9999994
51
242.9999994
0
ARC
8
0
10
189.6688905
20
-3.9582091
40
0.5
50
297.0000006
51
27.0000006
0
ARC
8
0
10
183.767014
20
7.6248758
40
0.5
50
27.0000006
51
117.0000006
0
ARC
8
0
10
172.1839291
20
1.7229993
40
0.5
50
117.0000006
51
207.0000006
0
ARC
8
0
10
178.0858056
20
-9.8600856
40
0.5
50
207.0000006
51
297.0000006
0
ARC
8
0
10
181.7240568
20
11.6344051
40
0.5
50
297.0000006
51
27.0000006
0
ARC
8
0
10
175.8221803
20
23.21749
40
0.5
50
27.0000006
51
117.0000006
0
ARC
8
0
10
164.2390954
20
17.3156135
40
0.5
50
117.0000006
51
207.0000006
0
ARC
8
0
10
170.1409719
20
5.7325286
40
0.5
50
207.0000006
51
297.0000006
0
ARC
8
0
10
26.3778292
20
-9.8600856
40
0.5
50
242.9999994
51
332.9999994
0
ARC
8
0
10
32.2797057
20
1.7229993
40
0.5
50
332.9999994
51
62.9999994
0
ARC
8
0
10
20.6966208
20
7.6248758
40
0.5
50
62.9999994
51
152.9999994
0
ARC
8
0
10
14.7947443
20
-3.9582091
40
0.5
50
152.9999994
51
242.9999994
0
ARC
8
0
10
68.0329868
20
-16.4055395
40
0.5
50
229.9999988
51
319.9999988
0
ARC
8
0
10
76.3892258
20
-6.4469617
40
0.5
50
319.9999988
51
49.9999988
0
ARC
8
0
10
66.430648
20
1.9092773
40
0.5
50
49.9999988
51
139.9999988
0
ARC
8
0
10
58.074409
20
-8.0493005
40
0.5
50
139.9999988
51
229.9999988
0
ARC
8
0
10
56.7842036
20
-29.8113173
40
0.5
50
229.9999988
51
319.9999988
0
ARC
8
0
10
65.1404426
20
-19.8527395
40
0.5
50
319.9999988
51
49.9999988
0
ARC
8
0
10
55.1818648
20
-11.4965005
40
0.5
50
49.9999988
51
139.9999988
0
ARC
8
0
10
46.8256258
20
-21.4550783
40
0.5
50
139.9999988
51
229.9999988
0
ARC
8
0
10
146.3892258
20
-8.0493005
40
0.5
50
310.0000012
51
40.0000012
0
ARC
8
0
10
138.0329868
20
1.9092773
40
0.5
50
40.0000012
51
130.0000012
0
ARC
8
0
10
128.074409
20
-6.4469617
40
0.5
50
130.0000012
51
220.0000012
0
ARC
8
0
10
136.430648
20
-16.4055395
40
0.5
50
220.0000012
51
310.0000012
0
ARC
8
0
10
157.638009
20
-21.4550783
40
0.5
50
310.0000012
51
40.0000012
0
ARC
8
0
10
149.28177
20
-11.4965005
40
0.5
50
40.0000012
51
130.0000012
0
ARC
8
0
10
139.3231922
20
-19.8527395
40
0.5
50
130.0000012
51
220.0000012
0
ARC
8
0
10
147.6794312
20
-29.8113173
40
0.5
50
220.0000012
51
310.0000012
0
ARC
8
0
10
52.8547415
20
0.5171512
40
0.5
50
241.0000008
51
331.0000008
0
ARC
8
0
10
59.1572666
20
11.8872073
40
0.5
50
331.0000008
51
61.0000008
0
ARC
8
0
10
47.7872105
20
18.1897324
40
0.5
50
61.0000008
51
151.0000008
0
ARC
8
0
10
41.4846854
20
6.8196763
40
0.5
50
151.0000008
51
241.0000008
0
ARC
8
0
10
44.3705732
20
-14.7886937
40
0.5
50
241.0000008
51
331.0000008
0
ARC
8
0
10
50.6730983
20
-3.4186376
40
0.5
50
331.0000008
51
61.0000008
0
ARC
8
0
10
39.3030422
20
2.8838875
40
0.5
50
61.0000008
51
151.0000008
0
ARC
8
0
10
33.0005171
20
-8.4861686
40
0.5
50
151.0000008
51
241.0000008
0
ARC
8
0
10
171.4631177
20
-8.4861686
40
0.5
50
298.9999992
51
28.9999992
0
ARC
8
0
10
165.1605926
20
2.8838875
40
0.5
50
28.9999992
51
118.9999992
0
ARC
8
0
10
153.7905365
20
-3.4186376
40
0.5
50
118.9999992
51
208.9999992
0
ARC
8
0
10
160.0930616
20
-14.7886937
40
0.5
50
208.9999992
51
298.9999992
0
ARC
8
0
10
162.9789494
20
6.8196763
40
0.5
50
298.9999992
51
28.9999992
0
ARC
8
0
10
156.6764243
20
18.1897324
40
0.5
50
28.9999992
51
118.9999992
0
ARC
8
0
10
145.3063682
20
11.8872073
40
0.5
50
118.9999992
51
208.9999992
0
ARC
8
0
10
151.6088933
20
0.5171512
40
0.5
50
208.9999992
51
298.9999992
0
ARC
8
0
10
61.0008003
20
-68.0106655
40
0.5
50
212.0000016
51
302.0000016
0
ARC
8
0
10
72.0254256
20
-61.121715
40
0.5
50
302.0000016
51
32.0000016
0
ARC
8
0
10
65.1364751
20
-50.0970897
40
0.5
50
32.0000016
51
122.0000016
0
ARC
8
0
10
54.1118498
20
-56.9860402
40
0.5
50
122.0000016
51
212.0000016
0
ARC
8
0
10
150.351785
20
-56.9860402
40
0.5
50
327.9999984
51
57.9999984
0
ARC
8
0
10
139.3271597
20
-50.0970897
40
0.5
50
57.9999984
51
147.9999984
0
ARC
8
0
10
132.4382092
20
-61.121715
40
0.5
50
147.9999984
51
237.9999984
0
ARC
8
0
10
143.4628345
20
-68.0106655
40
0.5
50
237.9999984
51
327.9999984
0
ARC
8
0
10
50.9115674
20
-52.615272
40
0.5
50
223.0000017
51
313.0000017
0
ARC
8
0
10
60.4191654
20
-43.7492934
40
0.5
50
313.0000017
51
43.0000017
0
ARC
8
0
10
51.5531868
20
-34.2416954
40
0.5
50
43.0000017
51
133.0000017
0
ARC
8
0
10
42.0455888
20
-43.107674
40
0.5
50
133.0000017
51
223.0000017
0
ARC
8
0
10
162.418046
20
-43.107674
40
0.5
50
316.9999983
51
46.9999983
0
ARC
8
0
10
152.910448
20
-34.2416954
40
0.5
50
46.9999983
51
136.9999983
0
ARC
8
0
10
144.0444694
20
-43.7492934
40
0.5
50
136.9999983
51
226.9999983
0
ARC
8
0
10
153.5520674
20
-52.615272
40
0.5
50
226.9999983
51
316.9999983
0
ARC
8
0
10
3.8848711
20
-8.3311329
40
0.5
50
250.0000019
51
340.0000019
0
ARC
8
0
10
8.3311329
20
3.8848711
40
0.5
50
340.0000019
51
70.0000019
0
ARC
8
0
10
-3.8848711
20
8.3311329
40
0.5
50
70.0000019
51
160.0000019
0
ARC
8
0
10
-8.3311329
20
-3.8848711
40
0.5
50
160.0000019
51
250.0000019
0
ARC
8
0
10
212.7947677
20
-3.8848711
40
0.5
50
289.9999981
51
19.9999981
0
ARC
8
0
10
208.3485059
20
8.3311329
40
0.5
50
19.9999981
51
109.9999981
0
ARC
8
0
10
196.1325019
20
3.8848711
40
0.5
50
109.9999981
51
199.9999981
0
ARC
8
0
10
200.5787637
20
-8.3311329
40
0.5
50
199.9999981
51
289.9999981
0
LINE
8
0
10
93.3318174
20
-28.2481311
11
111.1318174
21
-28.2481311
0
LINE
8
0
10
111.1318174
20
-28.2481311
11
111.1318174
21
-7.2481311
0
LINE
8
0
10
111.1318174
20
-7.2481311
11
106.2318174
21
-7.2481311
0
LINE
8
0
10
98.2318174
20
-7.2481311
11
93.3318174
21
-7.2481311
0
LINE
8
0
10
93.3318174
20
-7.2481311
11
93.3318174
21
-28.2481311
0
LINE
8
0
10
106.2318174
20
-7.2481311
11
106.2318174
21
-4.2481311
0
LINE
8
0
10
106.2318174
20
-4.2481311
11
98.2318174
21
-4.2481311
0
LINE
8
0
10
98.2318174
20
-4.2481311
11
98.2318174
21
-7.2481311
0
ENDSEC
0
EOF