0
SECTION
2
HEADER
9
$INSUNITS
70
4
0
ENDSEC
0
SECTION
2
TABLES
0
TABLE
2
LTYPE
0
LTYPE
72
65
70
64
2
CONTINUOUS
3
______
73
0
40
0
0
ENDTAB
0
TABLE
2
LAYER
0
ENDTAB
0
ENDSEC
0
SECTION
2
ENTITIES
0
LINE
8
0
10
-8.25
20
-9.25
11
8.25
21
-9.25
0
LINE
8
0
10
9.75
20
-7.75
11
9.75
21
-2.9405425
0
LINE
8
0
10
7.6259567
20
9.25
11
-8.25
21
9.25
0
LINE
8
0
10
-9.75
20
7.75
11
-9.75
21
-7.75
0
LINE
8
0
10
11.4328039
20
-1.4517233
11
25.5612146
21
-3.186474
0
LINE
8
0
10
27.2328377
20
-1.8804587
11
27.4132919
21
-0.410777
0
LINE
8
0
10
9.1147759
20
10.5671961
11
11.899876
21
33.2500164
0
LINE
8
0
10
13.5714991
20
34.5560317
11
30.6117836
21
32.4637479
0
LINE
8
0
10
29.1883246
20
0.8788599
11
41.5883582
21
-1.5314625
0
LINE
8
0
10
51.5357349
20
30.5988162
11
51.7383733
21
31.6413003
0
LINE
8
0
10
50.552146
20
33.3999546
11
34.3552976
21
36.5483031
0
LINE
8
0
10
32.5966433
20
35.3620758
11
32.2670283
21
33.6663536
0
LINE
8
0
10
43.2504524
20
-6.1900741
11
58.548986
21
-12.3710828
0
LINE
8
0
10
60.5016717
20
-11.5422169
11
72.8636892
21
19.0548503
0
LINE
8
0
10
42.6929205
20
-3.5658132
11
42.4215865
21
-4.2373884
0
LINE
8
0
10
52.4462658
20
28.9218269
11
72.0348233
21
21.007536
0
LINE
8
0
10
206.090891
20
-9.25
11
222.590891
21
-9.25
0
LINE
8
0
10
224.090891
20
-7.75
11
224.090891
21
7.75
0
LINE
8
0
10
222.590891
20
9.25
11
206.7149343
21
9.25
0
LINE
8
0
10
204.590891
20
-2.9405425
11
204.590891
21
-7.75
0
LINE
8
0
10
188.7796764
20
-3.186474
11
202.9080871
21
-1.4517233
0
LINE
8
0
10
202.441015
20
33.2500164
11
205.2261151
21
10.5671961
0
LINE
8
0
10
186.9275991
20
-0.410777
11
187.1080533
21
-1.8804587
0
LINE
8
0
10
183.7291074
20
32.4637479
11
200.7693919
21
34.5560317
0
LINE
8
0
10
172.7525328
20
-1.5314625
11
185.1525664
21
0.8788599
0
LINE
8
0
10
182.0738627
20
33.6663536
11
181.7442477
21
35.3620758
0
LINE
8
0
10
179.9855934
20
36.5483031
11
163.788745
21
33.3999546
0
LINE
8
0
10
162.6025177
20
31.6413003
11
162.8051561
21
30.5988162
0
LINE
8
0
10
155.791905
20
-12.3710828
11
171.0904386
21
-6.1900741
0
LINE
8
0
10
171.9193045
20
-4.2373884
11
171.6479705
21
-3.5658132
0
LINE
8
0
10
141.4772018
20
19.0548503
11
153.8392193
21
-11.5422169
0
LINE
8
0
10
142.3060677
20
21.007536
11
161.8946252
21
28.9218269
0
LINE
8
0
10
45.8546582
20
-27.4711067
11
59.6927224
21
-36.4576507
0
LINE
8
0
10
61.7676869
20
-36.0166033
11
61.7827724
21
-35.9933737
0
LINE
8
0
10
69.3018812
20
-24.4149614
11
70.2095919
21
-23.0172095
0
LINE
8
0
10
69.7685444
20
-20.9422451
11
55.9304802
21
-11.9557011
0
LINE
8
0
10
53.8555157
20
-12.3967485
11
45.4136107
21
-25.3961423
0
LINE
8
0
10
61.7827724
20
-35.9933737
11
72.8359702
21
-46.6673228
0
LINE
8
0
10
74.9569675
20
-46.6303007
11
85.7241722
21
-35.4805338
0
LINE
8
0
10
85.6871501
20
-33.3595365
11
73.8180434
21
-21.8976734
0
LINE
8
0
10
71.6970461
20
-21.9346955
11
69.3018812
21
-24.4149614
0
LINE
8
0
10
154.6481686
20
-36.4576507
11
168.4862328
21
-27.4711067
0
LINE
8
0
10
168.9272803
20
-25.3961423
11
160.4853753
21
-12.3967485
0
LINE
8
0
10
158.4104108
20
-11.9557011
11
144.5723466
21
-20.9422451
0
LINE
8
0
10
144.1312991
20
-23.0172095
11
145.0390098
21
-24.4149614
0
LINE
8
0
10
152.5581186
20
-35.9933737
11
152.5732041
21
-36.0166033
0
LINE
8
0
10
141.5049208
20
-46.6673228
11
152.5581186
21
-35.9933737
0
LINE
8
0
10
145.0390098
20
-24.4149614
11
142.6438449
21
-21.9346955
0
LINE
8
0
10
140.5228476
20
-21.8976734
11
128.6537409
21
-33.3595365
0
LINE
8
0
10
128.6167188
20
-35.4805338
11
139.3839235
21
-46.6303007
0
ARC
8
0
10
222.590891
20
-7.75
40
1.5
50
270
51
0
0
ARC
8
0
10
222.590891
20
7.75
40
1.5
50
0
51
90
0
ARC
8
0
10
206.7149343
20
10.75
40
1.5
50
186.9999972
51
270
0
ARC
8
0
10
200.9521958
20
33.0672125
40
1.5
50
6.9999972
51
96.9999972
0
ARC
8
0
10
183.5463035
20
33.9525671
40
1.5
50
191.0000001
51
276.9999972
0
ARC
8
0
10
180.2718069
20
35.0758623
40
1.5
50
11.0000001
51
101.0000001
0
ARC
8
0
10
164.0749585
20
31.9275138
40
1.5
50
101.0000001
51
191.0000001
0
ARC
8
0
10
161.3327153
20
30.3126027
40
1.5
50
291.9999994
51
11.0000001
0
ARC
8
0
10
142.8679776
20
19.6167602
40
1.5
50
111.9999994
51
201.9999994
0
ARC
8
0
10
155.2299951
20
-10.980307
40
1.5
50
201.9999994
51
291.9999994
0
ARC
8
0
10
170.5285287
20
-4.7992983
40
1.5
50
291.9999994
51
21.9999994
0
ARC
8
0
10
173.0387463
20
-3.0039033
40
1.5
50
101.0000001
51
201.9999994
0
ARC
8
0
10
185.4387799
20
-0.5935809
40
1.5
50
6.9999972
51
101.0000001
0
ARC
8
0
10
188.5968725
20
-1.6976548
40
1.5
50
186.9999972
51
276.9999972
0
ARC
8
0
10
203.090891
20
-2.9405425
40
1.5
50
0
51
96.9999972
0
ARC
8
0
10
206.090891
20
-7.75
40
1.5
50
180
51
270
0
ARC
8
0
10
8.25
20
-7.75
40
1.5
50
270
51
0
0
ARC
8
0
10
11.25
20
-2.9405425
40
1.5
50
83.0000028
51
180
0
ARC
8
0
10
25.7440185
20
-1.6976548
40
1.5
50
263.0000028
51
353.0000028
0
ARC
8
0
10
28.9021111
20
-0.5935809
40
1.5
50
78.9999999
51
173.0000028
0
ARC
8
0
10
41.3021447
20
-3.0039033
40
1.5
50
338.0000006
51
78.9999999
0
ARC
8
0
10
43.8123623
20
-4.7992983
40
1.5
50
158.0000006
51
248.0000006
0
ARC
8
0
10
59.1108959
20
-10.980307
40
1.5
50
248.0000006
51
338.0000006
0
ARC
8
0
10
71.4729134
20
19.6167602
40
1.5
50
338.0000006
51
68.0000006
0
ARC
8
0
10
53.0081757
20
30.3126027
40
1.5
50
168.9999999
51
248.0000006
0
ARC
8
0
10
50.2659325
20
31.9275138
40
1.5
50
348.9999999
51
78.9999999
0
ARC
8
0
10
34.0690841
20
35.0758623
40
1.5
50
78.9999999
51
168.9999999
0
ARC
8
0
10
30.7945875
20
33.9525671
40
1.5
50
263.0000028
51
348.9999999
0
ARC
8
0
10
13.3886952
20
33.0672125
40
1.5
50
83.0000028
51
173.0000028
0
ARC
8
0
10
7.6259567
20
10.75
40
1.5
50
270
51
353.0000028
0
ARC
8
0
10
-8.25
20
7.75
40
1.5
50
90
51
180
0
ARC
8
0
10
-8.25
20
-7.75
40
1.5
50
180
51
270
0
ARC
8
0
10
60.5096809
20
-35.1996448
40
1.5
50
237.0000027
51
327.0000027
0
ARC
8
0
10
73.8779578
20
-45.5883131
40
1.5
50
225.9999988
51
315.9999988
0
ARC
8
0
10
84.6451625
20
-34.4385462
40
1.5
50
315.9999988
51
45.9999988
0
ARC
8
0
10
72.7760558
20
-22.9766831
40
1.5
50
45.9999988
51
135.9999988
0
ARC
8
0
10
68.9515859
20
-22.200251
40
1.5
50
327.0000027
51
57.0000027
0
ARC
8
0
10
55.1135217
20
-13.213707
40
1.5
50
57.0000027
51
147.0000027
0
ARC
8
0
10
46.6716167
20
-26.2131008
40
1.5
50
147.0000027
51
237.0000027
0
ARC
8
0
10
167.6692743
20
-26.2131008
40
1.5
50
302.9999973
51
32.9999973
0
ARC
8
0
10
159.2273693
20
-13.213707
40
1.5
50
32.9999973
51
122.9999973
0
ARC
8
0
10
145.3893051
20
-22.200251
40
1.5
50
122.9999973
51
212.9999973
0
ARC
8
0
10
141.5648352
20
-22.9766831
40
1.5
50
44.0000012
51
134.0000012
0
ARC
8
0
10
129.6957285
20
-34.4385462
40
1.5
50
134.0000012
51
224.0000012
0
ARC
8
0
10
140.4629332
20
-45.5883131
40
1.5
50
224.0000012
51
314.0000012
0
ARC
8
0
10
153.8312101
20
-35.1996448
40
1.5
50
212.9999973
51
302.9999973
0
LINE
8
0
10
-6.5
20
-7
11
6.5
21
-7
0
LINE
8
0
10
7
20
-6.5
11
7
21
6.5
0
LINE
8
0
10
6.5
20
7
11
-6.5
21
7
0
LINE
8
0
10
-7
20
6.5
11
-7
21
-6.5
0
LINE
8
0
10
11.1953647
20
0.8443276
11
24.0984647
21
-0.7399738
0
LINE
8
0
10
24.6556725
20
-0.3046354
11
26.2399739
21
12.5984646
0
LINE
8
0
10
25.8046355
20
13.1556724
11
12.9015355
21
14.7399738
0
LINE
8
0
10
12.3443277
20
14.3046354
11
10.7600263
21
1.4015354
0
LINE
8
0
10
13.3280782
20
18.2138853
11
26.2311782
21
16.6295839
0
LINE
8
0
10
26.788386
20
17.0649223
11
28.3726874
21
29.9680223
0
LINE
8
0
10
27.937349
20
30.5252301
11
15.034249
21
32.1095315
0
LINE
8
0
10
14.4770412
20
31.6741931
11
12.8927398
21
18.7710931
0
LINE
8
0
10
29.6333415
20
3.0844699
11
42.3944949
21
0.6039529
0
LINE
8
0
10
42.980713
20
0.999362
11
45.46123
21
13.7605154
0
LINE
8
0
10
45.0658209
20
14.3467335
11
32.3046675
21
16.8272505
0
LINE
8
0
10
31.7184494
20
16.4318414
11
29.2379324
21
3.670688
0
LINE
8
0
10
32.9724989
20
20.2629456
11
45.7336523
21
17.7824286
0
LINE
8
0
10
46.3198704
20
18.1778377
11
48.8003874
21
30.9389911
0
LINE
8
0
10
48.4049783
20
31.5252092
11
35.6438249
21
34.0057262
0
LINE
8
0
10
35.0576068
20
33.6103171
11
32.5770898
21
20.8491637
0
LINE
8
0
10
45.715889
20
-4.7594719
11
57.7692791
21
-9.6293576
0
LINE
8
0
10
58.4201743
20
-9.353069
11
63.29006
21
2.7003211
0
LINE
8
0
10
63.0137714
20
3.3512163
11
50.9603813
21
8.221102
0
LINE
8
0
10
50.3094861
20
7.9448134
11
45.4396004
21
-4.1085767
0
LINE
8
0
10
52.2715043
20
11.4662456
11
64.3248944
21
6.5963599
0
LINE
8
0
10
64.9757896
20
6.8726485
11
69.8456753
21
18.9260386
0
LINE
8
0
10
69.5693867
20
19.5769338
11
57.5159966
21
24.4468195
0
LINE
8
0
10
56.8651014
20
24.1705309
11
51.9952157
21
12.1171408
0
LINE
8
0
10
207.840891
20
-7
11
220.840891
21
-7
0
LINE
8
0
10
221.340891
20
-6.5
11
221.340891
21
6.5
0
LINE
8
0
10
220.840891
20
7
11
207.840891
21
7
0
LINE
8
0
10
207.340891
20
6.5
11
207.340891
21
-6.5
0
LINE
8
0
10
190.2424263
20
-0.7399738
11
203.1455263
21
0.8443276
0
LINE
8
0
10
203.5808647
20
1.4015354
11
201.9965633
21
14.3046354
0
LINE
8
0
10
201.4393555
20
14.7399738
11
188.5362555
21
13.1556724
0
LINE
8
0
10
188.1009171
20
12.5984646
11
189.6852185
21
-0.3046354
0
LINE
8
0
10
188.1097128
20
16.6295839
11
201.0128128
21
18.2138853
0
LINE
8
0
10
201.4481512
20
18.7710931
11
199.8638498
21
31.6741931
0
LINE
8
0
10
199.306642
20
32.1095315
11
186.403542
21
30.5252301
0
LINE
8
0
10
185.9682036
20
29.9680223
11
187.552505
21
17.0649223
0
LINE
8
0
10
171.9463961
20
0.6039529
11
184.7075495
21
3.0844699
0
LINE
8
0
10
185.1029586
20
3.670688
11
182.6224416
21
16.4318414
0
LINE
8
0
10
182.0362235
20
16.8272505
11
169.2750701
21
14.3467335
0
LINE
8
0
10
168.879661
20
13.7605154
11
171.360178
21
0.999362
0
LINE
8
0
10
168.6072387
20
17.7824286
11
181.3683921
21
20.2629456
0
LINE
8
0
10
181.7638012
20
20.8491637
11
179.2832842
21
33.6103171
0
LINE
8
0
10
178.6970661
20
34.0057262
11
165.9359127
21
31.5252092
0
LINE
8
0
10
165.5405036
20
30.9389911
11
168.0210206
21
18.1778377
0
LINE
8
0
10
156.5716119
20
-9.6293576
11
168.625002
21
-4.7594719
0
LINE
8
0
10
168.9012906
20
-4.1085767
11
164.0314049
21
7.9448134
0
LINE
8
0
10
163.3805097
20
8.221102
11
151.3271196
21
3.3512163
0
LINE
8
0
10
151.050831
20
2.7003211
11
155.9207167
21
-9.353069
0
LINE
8
0
10
150.0159966
20
6.5963599
11
162.0693867
21
11.4662456
0
LINE
8
0
10
162.3456753
20
12.1171408
11
157.4757896
21
24.1705309
0
LINE
8
0
10
156.8248944
20
24.4468195
11
144.7715043
21
19.5769338
0
LINE
8
0
10
144.4952157
20
18.9260386
11
149.3651014
21
6.8726485
0
LINE
8
0
10
48.5477694
20
-26.5372161
11
59.4504867
21
-33.6175236
0
LINE
8
0
10
60.1421415
20
-33.4705078
11
67.222449
21
-22.5677905
0
LINE
8
0
10
67.0754332
20
-21.8761357
11
56.1727159
21
-14.7958282
0
LINE
8
0
10
55.4810611
20
-14.942844
11
48.4007536
21
-25.8455613
0
LINE
8
0
10
63.7886895
20
-34.8025973
11
73.1401069
21
-43.8331561
0
LINE
8
0
10
73.847106
20
-43.8208154
11
82.8776648
21
-34.469398
0
LINE
8
0
10
82.8653241
20
-33.7623989
11
73.5139067
21
-24.7318401
0
LINE
8
0
10
72.8069076
20
-24.7441808
11
63.7763488
21
-34.0955982
0
LINE
8
0
10
154.8904043
20
-33.6175236
11
165.7931216
21
-26.5372161
0
LINE
8
0
10
165.9401374
20
-25.8455613
11
158.8598299
21
-14.942844
0
LINE
8
0
10
158.1681751
20
-14.7958282
11
147.2654578
21
-21.8761357
0
LINE
8
0
10
147.118442
20
-22.5677905
11
154.1987495
21
-33.4705078
0
LINE
8
0
10
141.2007841
20
-43.8331561
11
150.5522015
21
-34.8025973
0
LINE
8
0
10
150.5645422
20
-34.0955982
11
141.5339834
21
-24.7441808
0
LINE
8
0
10
140.8269843
20
-24.7318401
11
131.4755669
21
-33.7623989
0
LINE
8
0
10
131.4632262
20
-34.469398
11
140.493785
21
-43.8208154
0
ARC
8
0
10
24.1593994
20
-0.2437007
40
0.5
50
263.0000028
51
353.0000028
0
ARC
8
0
10
25.7437008
20
12.6593993
40
0.5
50
353.0000028
51
83.0000028
0
ARC
8
0
10
12.8406008
20
14.2437007
40
0.5
50
83.0000028
51
173.0000028
0
ARC
8
0
10
11.2562994
20
1.3406007
40
0.5
50
173.0000028
51
263.0000028
0
ARC
8
0
10
26.2921129
20
17.125857
40
0.5
50
263.0000028
51
353.0000028
0
ARC
8
0
10
27.8764143
20
30.028957
40
0.5
50
353.0000028
51
83.0000028
0
ARC
8
0
10
14.9733143
20
31.6132584
40
0.5
50
83.0000028
51
173.0000028
0
ARC
8
0
10
13.3890129
20
18.7101584
40
0.5
50
173.0000028
51
263.0000028
0
ARC
8
0
10
203.0845916
20
1.3406007
40
0.5
50
276.9999972
51
6.9999972
0
ARC
8
0
10
201.5002902
20
14.2437007
40
0.5
50
6.9999972
51
96.9999972
0
ARC
8
0
10
188.5971902
20
12.6593993
40
0.5
50
96.9999972
51
186.9999972
0
ARC
8
0
10
190.1814916
20
-0.2437007
40
0.5
50
186.9999972
51
276.9999972
0
ARC
8
0
10
200.9518781
20
18.7101584
40
0.5
50
276.9999972
51
6.9999972
0
ARC
8
0
10
199.3675767
20
31.6132584
40
0.5
50
6.9999972
51
96.9999972
0
ARC
8
0
10
186.4644767
20
30.028957
40
0.5
50
96.9999972
51
186.9999972
0
ARC
8
0
10
188.0487781
20
17.125857
40
0.5
50
186.9999972
51
276.9999972
0
ARC
8
0
10
184.612145
20
3.5752835
40
0.5
50
281.0000001
51
11.0000001
0
ARC
8
0
10
182.131628
20
16.3364369
40
0.5
50
11.0000001
51
101.0000001
0
ARC
8
0
10
169.3704746
20
13.8559199
40
0.5
50
101.0000001
51
191.0000001
0
ARC
8
0
10
171.8509916
20
1.0947665
40
0.5
50
191.0000001
51
281.0000001
0
ARC
8
0
10
181.2729876
20
20.7537592
40
0.5
50
281.0000001
51
11.0000001
0
ARC
8
0
10
178.7924706
20
33.5149126
40
0.5
50
11.0000001
51
101.0000001
0
ARC
8
0
10
166.0313172
20
31.0343956
40
0.5
50
101.0000001
51
191.0000001
0
ARC
8
0
10
168.5118342
20
18.2732422
40
0.5
50
191.0000001
51
281.0000001
0
ARC
8
0
10
42.4898994
20
1.0947665
40
0.5
50
258.9999999
51
348.9999999
0
ARC
8
0
10
44.9704164
20
13.8559199
40
0.5
50
348.9999999
51
78.9999999
0
ARC
8
0
10
32.209263
20
16.3364369
40
0.5
50
78.9999999
51
168.9999999
0
ARC
8
0
10
29.728746
20
3.5752835
40
0.5
50
168.9999999
51
258.9999999
0
ARC
8
0
10
45.8290568
20
18.2732422
40
0.5
50
258.9999999
51
348.9999999
0
ARC
8
0
10
48.3095738
20
31.0343956
40
0.5
50
348.9999999
51
78.9999999
0
ARC
8
0
10
35.5484204
20
33.5149126
40
0.5
50
78.9999999
51
168.9999999
0
ARC
8
0
10
33.0679034
20
20.7537592
40
0.5
50
168.9999999
51
258.9999999
0
ARC
8
0
10
73.4874361
20
-43.4734862
40
0.5
50
225.9999988
51
315.9999988
0
ARC
8
0
10
82.5179949
20
-34.1220688
40
0.5
50
315.9999988
51
45.9999988
0
ARC
8
0
10
73.1665775
20
-25.09151
40
0.5
50
45.9999988
51
135.9999988
0
ARC
8
0
10
64.1360187
20
-34.4429274
40
0.5
50
135.9999988
51
225.9999988
0
ARC
8
0
10
150.2048723
20
-34.4429274
40
0.5
50
314.0000012
51
44.0000012
0
ARC
8
0
10
141.1743135
20
-25.09151
40
0.5
50
44.0000012
51
134.0000012
0
ARC
8
0
10
131.8228961
20
-34.1220688
40
0.5
50
134.0000012
51
224.0000012
0
ARC
8
0
10
140.8534549
20
-43.4734862
40
0.5
50
224.0000012
51
314.0000012
0
ARC
8
0
10
6.5
20
-6.5
40
0.5
50
270
51
0
0
ARC
8
0
10
6.5
20
6.5
40
0.5
50
0
51
90
0
ARC
8
0
10
-6.5
20
6.5
40
0.5
50
90
51
180
0
ARC
8
0
10
-6.5
20
-6.5
40
0.5
50
180
51
270
0
ARC
8
0
10
220.840891
20
-6.5
40
0.5
50
270
51
0
0
ARC
8
0
10
220.840891
20
6.5
40
0.5
50
0
51
90
0
ARC
8
0
10
207.840891
20
6.5
40
0.5
50
90
51
180
0
ARC
8
0
10
207.840891
20
-6.5
40
0.5
50
180
51
270
0
ARC
8
0
10
165.5208021
20
-26.1178808
40
0.5
50
302.9999973
51
32.9999973
0
ARC
8
0
10
158.4404946
20
-15.2151635
40
0.5
50
32.9999973
51
122.9999973
0
ARC
8
0
10
147.5377773
20
-22.295471
40
0.5
50
122.9999973
51
212.9999973
0
ARC
8
0
10
154.6180848
20
-33.1981883
40
0.5
50
212.9999973
51
302.9999973
0
ARC
8
0
10
59.7228062
20
-33.1981883
40
0.5
50
237.0000027
51
327.0000027
0
ARC
8
0
10
66.8031137
20
-22.295471
40
0.5
50
327.0000027
51
57.0000027
0
ARC
8
0
10
55.9003964
20
-15.2151635
40
0.5
50
57.0000027
51
147.0000027
0
ARC
8
0
10
48.8200889
20
-26.1178808
40
0.5
50
147.0000027
51
237.0000027
0
ARC
8
0
10
64.5121977
20
7.0599518
40
0.5
50
248.0000006
51
338.0000006
0
ARC
8
0
10
69.3820834
20
19.1133419
40
0.5
50
338.0000006
51
68.0000006
0
ARC
8
0
10
57.3286933
20
23.9832276
40
0.5
50
68.0000006
51
158.0000006
0
ARC
8
0
10
52.4588076
20
11.9298375
40
0.5
50
158.0000006
51
248.0000006
0
ARC
8
0
10
57.9565824
20
-9.1657657
40
0.5
50
248.0000006
51
338.0000006
0
ARC
8
0
10
62.8264681
20
2.8876244
40
0.5
50
338.0000006
51
68.0000006
0
ARC
8
0
10
50.773078
20
7.7575101
40
0.5
50
68.0000006
51
158.0000006
0
ARC
8
0
10
45.9031923
20
-4.29588
40
0.5
50
158.0000006
51
248.0000006
0
ARC
8
0
10
168.4376987
20
-4.29588
40
0.5
50
291.9999994
51
21.9999994
0
ARC
8
0
10
163.567813
20
7.7575101
40
0.5
50
21.9999994
51
111.9999994
0
ARC
8
0
10
151.5144229
20
2.8876244
40
0.5
50
111.9999994
51
201.9999994
0
ARC
8
0
10
156.3843086
20
-9.1657657
40
0.5
50
201.9999994
51
291.9999994
0
ARC
8
0
10
161.8820834
20
11.9298375
40
0.5
50
291.9999994
51
21.9999994
0
ARC
8
0
10
157.0121977
20
23.9832276
40
0.5
50
21.9999994
51
111.9999994
0
ARC
8
0
10
144.9588076
20
19.1133419
40
0.5
50
111.9999994
51
201.9999994
0
ARC
8
0
10
149.8286933
20
7.0599518
40
0.5
50
201.9999994
51
291.9999994
0
ENDSEC
0
EOF