0
SECTION
2
HEADER
9
$INSUNITS
70
4
0
ENDSEC
0
SECTION
2
TABLES
0
TABLE
2
LTYPE
0
LTYPE
72
65
70
64
2
CONTINUOUS
3
______
73
0
40
0
0
ENDTAB
0
TABLE
2
LAYER
0
ENDTAB
0
ENDSEC
0
SECTION
2
ENTITIES
0
LINE
8
0
10
-11.1143778
20
-5.4859463
11
54.7156758
21
-32.0830143
0
LINE
8
0
10
10.1871939
20
5.8605528
11
-4.1841558
21
11.666955
0
LINE
8
0
10
-6.1368415
20
10.8380891
11
-11.9432437
21
-3.5332606
0
LINE
8
0
10
19.5243609
20
20.9624505
11
69.1286971
21
0.9209978
0
LINE
8
0
10
12.1398796
20
6.6894187
11
17.5716752
21
20.1335846
0
LINE
8
0
10
57.970152
20
-30.7015712
11
69.957563
21
-1.0316879
0
LINE
8
0
10
153.8129628
20
-32.0830143
11
219.6430164
21
-5.4859463
0
LINE
8
0
10
220.4718823
20
-3.5332606
11
214.6654801
21
10.8380891
0
LINE
8
0
10
212.7127944
20
11.666955
11
198.3414447
21
5.8605528
0
LINE
8
0
10
190.9569634
20
20.1335846
11
196.388759
21
6.6894187
0
LINE
8
0
10
139.3999415
20
0.9209978
11
189.0042777
21
20.9624505
0
LINE
8
0
10
138.5710756
20
-1.0316879
11
150.5584866
21
-30.7015712
0
LINE
8
0
10
50.941612
20
-49.4325516
11
83.3930469
21
-62.5437823
0
LINE
8
0
10
58.7990179
20
-32.6542569
11
90.3232689
21
-45.390881
0
LINE
8
0
10
55.5445417
20
-34.0357
11
50.1127461
21
-47.4798659
0
LINE
8
0
10
85.3457326
20
-61.7149164
11
91.1521348
21
-47.3435667
0
LINE
8
0
10
125.1355917
20
-62.5437823
11
157.5870266
21
-49.4325516
0
LINE
8
0
10
158.4158925
20
-47.4798659
11
152.9840969
21
-34.0357
0
LINE
8
0
10
118.2053697
20
-45.390881
11
149.7296207
21
-32.6542569
0
LINE
8
0
10
117.3765038
20
-47.3435667
11
123.182906
21
-61.7149164
0
ARC
8
0
10
54.1537659
20
-33.4737901
40
1.5
50
338.0000006
51
68.0000006
0
ARC
8
0
10
51.5035219
20
-48.0417758
40
1.5
50
158.0000006
51
248.0000006
0
ARC
8
0
10
83.9549568
20
-61.1530065
40
1.5
50
248.0000006
51
338.0000006
0
ARC
8
0
10
89.761359
20
-46.7816568
40
1.5
50
338.0000006
51
68.0000006
0
ARC
8
0
10
59.3609278
20
-31.2634811
40
1.5
50
158.0000006
51
248.0000006
0
ARC
8
0
10
68.5667872
20
-0.469778
40
1.5
50
338.0000006
51
68.0000006
0
ARC
8
0
10
18.962451
20
19.5716747
40
1.5
50
68.0000006
51
158.0000006
0
ARC
8
0
10
10.7491038
20
7.2513286
40
1.5
50
248.0000006
51
338.0000006
0
ARC
8
0
10
-4.7460657
20
10.2761792
40
1.5
50
68.0000006
51
158.0000006
0
ARC
8
0
10
-10.5524679
20
-4.0951705
40
1.5
50
158.0000006
51
248.0000006
0
ARC
8
0
10
219.0811065
20
-4.0951705
40
1.5
50
291.9999994
51
21.9999994
0
ARC
8
0
10
213.2747043
20
10.2761792
40
1.5
50
21.9999994
51
111.9999994
0
ARC
8
0
10
197.7795348
20
7.2513286
40
1.5
50
201.9999994
51
291.9999994
0
ARC
8
0
10
189.5661876
20
19.5716747
40
1.5
50
21.9999994
51
111.9999994
0
ARC
8
0
10
139.9618514
20
-0.469778
40
1.5
50
111.9999994
51
201.9999994
0
ARC
8
0
10
149.1677108
20
-31.2634811
40
1.5
50
291.9999994
51
21.9999994
0
ARC
8
0
10
118.7672796
20
-46.7816568
40
1.5
50
111.9999994
51
201.9999994
0
ARC
8
0
10
124.5736818
20
-61.1530065
40
1.5
50
201.9999994
51
291.9999994
0
ARC
8
0
10
157.0251167
20
-48.0417758
40
1.5
50
291.9999994
51
21.9999994
0
ARC
8
0
10
154.3748727
20
-33.4737901
40
1.5
50
111.9999994
51
201.9999994
0
LINE
8
0
10
-8.6489412
20
-4.0553441
11
3.4044489
21
-8.9252298
0
LINE
8
0
10
4.0553441
20
-8.6489412
11
8.9252298
21
3.4044489
0
LINE
8
0
10
8.6489412
20
4.0553441
11
-3.4044489
21
8.9252298
0
LINE
8
0
10
-4.0553441
20
8.6489412
11
-8.9252298
21
-3.4044489
0
LINE
8
0
10
8.5039601
20
-10.9855661
11
20.5573502
21
-15.8554518
0
LINE
8
0
10
21.2082454
20
-15.5791632
11
26.0781311
21
-3.5257731
0
LINE
8
0
10
25.8018425
20
-2.8748779
11
13.7484524
21
1.9950078
0
LINE
8
0
10
13.0975572
20
1.7187192
11
8.2276715
21
-10.3346709
0
LINE
8
0
10
15.0595755
20
5.2401514
11
27.1129656
21
0.3702657
0
LINE
8
0
10
27.7638608
20
0.6465543
11
32.6337465
21
12.6999444
0
LINE
8
0
10
32.3574579
20
13.3508396
11
20.3040678
21
18.2207253
0
LINE
8
0
10
19.6531726
20
17.9444367
11
14.7832869
21
5.8910466
0
LINE
8
0
10
25.6568614
20
-17.9157881
11
37.7102515
21
-22.7856738
0
LINE
8
0
10
38.3611467
20
-22.5093852
11
43.2310324
21
-10.4559951
0
LINE
8
0
10
42.9547438
20
-9.8050999
11
30.9013537
21
-4.9352142
0
LINE
8
0
10
30.2504585
20
-5.2115028
11
25.3805728
21
-17.2648929
0
LINE
8
0
10
32.2124768
20
-1.6900706
11
44.2658669
21
-6.5599563
0
LINE
8
0
10
44.9167621
20
-6.2836677
11
49.7866478
21
5.7697224
0
LINE
8
0
10
49.5103592
20
6.4206176
11
37.4569691
21
11.2905033
0
LINE
8
0
10
36.8060739
20
11.0142147
11
31.9361882
21
-1.0391754
0
LINE
8
0
10
42.8097627
20
-24.84601
11
54.8631528
21
-29.7158957
0
LINE
8
0
10
55.514048
20
-29.4396071
11
60.3839337
21
-17.386217
0
LINE
8
0
10
60.1076451
20
-16.7353218
11
48.054255
21
-11.8654361
0
LINE
8
0
10
47.4033598
20
-12.1417247
11
42.5334741
21
-24.1951148
0
LINE
8
0
10
49.3653781
20
-8.6202926
11
61.4187682
21
-13.4901783
0
LINE
8
0
10
62.0696634
20
-13.2138897
11
66.9395491
21
-1.1604996
0
LINE
8
0
10
66.6632605
20
-0.5096044
11
54.6098704
21
4.3602813
0
LINE
8
0
10
53.9589752
20
4.0839927
11
49.0890895
21
-7.9693974
0
LINE
8
0
10
205.1241897
20
-8.9252298
11
217.1775798
21
-4.0553441
0
LINE
8
0
10
217.4538684
20
-3.4044489
11
212.5839827
21
8.6489412
0
LINE
8
0
10
211.9330875
20
8.9252298
11
199.8796974
21
4.0553441
0
LINE
8
0
10
199.6034088
20
3.4044489
11
204.4732945
21
-8.6489412
0
LINE
8
0
10
187.9712884
20
-15.8554518
11
200.0246785
21
-10.9855661
0
LINE
8
0
10
200.3009671
20
-10.3346709
11
195.4310814
21
1.7187192
0
LINE
8
0
10
194.7801862
20
1.9950078
11
182.7267961
21
-2.8748779
0
LINE
8
0
10
182.4505075
20
-3.5257731
11
187.3203932
21
-15.5791632
0
LINE
8
0
10
181.415673
20
0.3702657
11
193.4690631
21
5.2401514
0
LINE
8
0
10
193.7453517
20
5.8910466
11
188.875466
21
17.9444367
0
LINE
8
0
10
188.2245708
20
18.2207253
11
176.1711807
21
13.3508396
0
LINE
8
0
10
175.8948921
20
12.6999444
11
180.7647778
21
0.6465543
0
LINE
8
0
10
170.8183871
20
-22.7856738
11
182.8717772
21
-17.9157881
0
LINE
8
0
10
183.1480658
20
-17.2648929
11
178.2781801
21
-5.2115028
0
LINE
8
0
10
177.6272849
20
-4.9352142
11
165.5738948
21
-9.8050999
0
LINE
8
0
10
165.2976062
20
-10.4559951
11
170.1674919
21
-22.5093852
0
LINE
8
0
10
164.2627717
20
-6.5599563
11
176.3161618
21
-1.6900706
0
LINE
8
0
10
176.5924504
20
-1.0391754
11
171.7225647
21
11.0142147
0
LINE
8
0
10
171.0716695
20
11.2905033
11
159.0182794
21
6.4206176
0
LINE
8
0
10
158.7419908
20
5.7697224
11
163.6118765
21
-6.2836677
0
LINE
8
0
10
153.6654858
20
-29.7158957
11
165.7188759
21
-24.84601
0
LINE
8
0
10
165.9951645
20
-24.1951148
11
161.1252788
21
-12.1417247
0
LINE
8
0
10
160.4743836
20
-11.8654361
11
148.4209935
21
-16.7353218
0
LINE
8
0
10
148.1447049
20
-17.386217
11
153.0145906
21
-29.4396071
0
LINE
8
0
10
147.1098704
20
-13.4901783
11
159.1632605
21
-8.6202926
0
LINE
8
0
10
159.4395491
20
-7.9693974
11
154.5696634
21
4.0839927
0
LINE
8
0
10
153.9187682
20
4.3602813
11
141.8653781
21
-0.5096044
0
LINE
8
0
10
141.5890895
20
-1.1604996
11
146.4589752
21
-13.2138897
0
LINE
8
0
10
53.4070486
20
-48.0019494
11
65.4604387
21
-52.8718351
0
LINE
8
0
10
66.1113339
20
-52.5955465
11
70.9812196
21
-40.5421564
0
LINE
8
0
10
70.704931
20
-39.8912612
11
58.6515409
21
-35.0213755
0
LINE
8
0
10
58.0006457
20
-35.2976641
11
53.13076
21
-47.3510542
0
LINE
8
0
10
70.5599499
20
-54.9321714
11
82.61334
21
-59.8020571
0
LINE
8
0
10
83.2642352
20
-59.5257685
11
88.1341209
21
-47.4723784
0
LINE
8
0
10
87.8578323
20
-46.8214832
11
75.8044422
21
-41.9515975
0
LINE
8
0
10
75.153547
20
-42.2278861
11
70.2836613
21
-54.2812762
0
LINE
8
0
10
143.0681999
20
-52.8718351
11
155.12159
21
-48.0019494
0
LINE
8
0
10
155.3978786
20
-47.3510542
11
150.5279929
21
-35.2976641
0
LINE
8
0
10
149.8770977
20
-35.0213755
11
137.8237076
21
-39.8912612
0
LINE
8
0
10
137.547419
20
-40.5421564
11
142.4173047
21
-52.5955465
0
LINE
8
0
10
125.9152986
20
-59.8020571
11
137.9686887
21
-54.9321714
0
LINE
8
0
10
138.2449773
20
-54.2812762
11
133.3750916
21
-42.2278861
0
LINE
8
0
10
132.7241964
20
-41.9515975
11
120.6708063
21
-46.8214832
0
LINE
8
0
10
120.3945177
20
-47.4723784
11
125.2644034
21
-59.5257685
0
ARC
8
0
10
137.7813854
20
-54.4685795
40
0.5
50
291.9999994
51
21.9999994
0
ARC
8
0
10
132.9114997
20
-42.4151894
40
0.5
50
21.9999994
51
111.9999994
0
ARC
8
0
10
120.8581096
20
-47.2850751
40
0.5
50
111.9999994
51
201.9999994
0
ARC
8
0
10
125.7279953
20
-59.3384652
40
0.5
50
201.9999994
51
291.9999994
0
ARC
8
0
10
154.9342867
20
-47.5383575
40
0.5
50
291.9999994
51
21.9999994
0
ARC
8
0
10
150.064401
20
-35.4849674
40
0.5
50
21.9999994
51
111.9999994
0
ARC
8
0
10
138.0110109
20
-40.3548531
40
0.5
50
111.9999994
51
201.9999994
0
ARC
8
0
10
142.8808966
20
-52.4082432
40
0.5
50
201.9999994
51
291.9999994
0
ARC
8
0
10
44.4531702
20
-6.0963644
40
0.5
50
248.0000006
51
338.0000006
0
ARC
8
0
10
49.3230559
20
5.9570257
40
0.5
50
338.0000006
51
68.0000006
0
ARC
8
0
10
37.2696658
20
10.8269114
40
0.5
50
68.0000006
51
158.0000006
0
ARC
8
0
10
32.3997801
20
-1.2264787
40
0.5
50
158.0000006
51
248.0000006
0
ARC
8
0
10
55.0504561
20
-29.2523038
40
0.5
50
248.0000006
51
338.0000006
0
ARC
8
0
10
59.9203418
20
-17.1989137
40
0.5
50
338.0000006
51
68.0000006
0
ARC
8
0
10
47.8669517
20
-12.329028
40
0.5
50
68.0000006
51
158.0000006
0
ARC
8
0
10
42.997066
20
-24.3824181
40
0.5
50
158.0000006
51
248.0000006
0
ARC
8
0
10
216.9902765
20
-3.5917522
40
0.5
50
291.9999994
51
21.9999994
0
ARC
8
0
10
212.1203908
20
8.4616379
40
0.5
50
21.9999994
51
111.9999994
0
ARC
8
0
10
200.0670007
20
3.5917522
40
0.5
50
111.9999994
51
201.9999994
0
ARC
8
0
10
204.9368864
20
-8.4616379
40
0.5
50
201.9999994
51
291.9999994
0
ARC
8
0
10
199.8373752
20
-10.5219742
40
0.5
50
291.9999994
51
21.9999994
0
ARC
8
0
10
194.9674895
20
1.5314159
40
0.5
50
21.9999994
51
111.9999994
0
ARC
8
0
10
182.9140994
20
-3.3384698
40
0.5
50
111.9999994
51
201.9999994
0
ARC
8
0
10
187.7839851
20
-15.3918599
40
0.5
50
201.9999994
51
291.9999994
0
ARC
8
0
10
193.2817598
20
5.7037433
40
0.5
50
291.9999994
51
21.9999994
0
ARC
8
0
10
188.4118741
20
17.7571334
40
0.5
50
21.9999994
51
111.9999994
0
ARC
8
0
10
176.358484
20
12.8872477
40
0.5
50
111.9999994
51
201.9999994
0
ARC
8
0
10
181.2283697
20
0.8338576
40
0.5
50
201.9999994
51
291.9999994
0
ARC
8
0
10
182.6844739
20
-17.4521962
40
0.5
50
291.9999994
51
21.9999994
0
ARC
8
0
10
177.8145882
20
-5.3988061
40
0.5
50
21.9999994
51
111.9999994
0
ARC
8
0
10
165.7611981
20
-10.2686918
40
0.5
50
111.9999994
51
201.9999994
0
ARC
8
0
10
170.6310838
20
-22.3220819
40
0.5
50
201.9999994
51
291.9999994
0
ARC
8
0
10
176.1288585
20
-1.2264787
40
0.5
50
291.9999994
51
21.9999994
0
ARC
8
0
10
171.2589728
20
10.8269114
40
0.5
50
21.9999994
51
111.9999994
0
ARC
8
0
10
159.2055827
20
5.9570257
40
0.5
50
111.9999994
51
201.9999994
0
ARC
8
0
10
164.0754684
20
-6.0963644
40
0.5
50
201.9999994
51
291.9999994
0
ARC
8
0
10
165.5315726
20
-24.3824181
40
0.5
50
291.9999994
51
21.9999994
0
ARC
8
0
10
160.6616869
20
-12.329028
40
0.5
50
21.9999994
51
111.9999994
0
ARC
8
0
10
148.6082968
20
-17.1989137
40
0.5
50
111.9999994
51
201.9999994
0
ARC
8
0
10
153.4781825
20
-29.2523038
40
0.5
50
201.9999994
51
291.9999994
0
ARC
8
0
10
158.9759572
20
-8.1567007
40
0.5
50
291.9999994
51
21.9999994
0
ARC
8
0
10
154.1060715
20
3.8966894
40
0.5
50
21.9999994
51
111.9999994
0
ARC
8
0
10
142.0526814
20
-0.9731963
40
0.5
50
111.9999994
51
201.9999994
0
ARC
8
0
10
146.9225671
20
-13.0265864
40
0.5
50
201.9999994
51
291.9999994
0
ARC
8
0
10
65.647742
20
-52.4082432
40
0.5
50
248.0000006
51
338.0000006
0
ARC
8
0
10
70.5176277
20
-40.3548531
40
0.5
50
338.0000006
51
68.0000006
0
ARC
8
0
10
58.4642376
20
-35.4849674
40
0.5
50
68.0000006
51
158.0000006
0
ARC
8
0
10
53.5943519
20
-47.5383575
40
0.5
50
158.0000006
51
248.0000006
0
ARC
8
0
10
3.5917522
20
-8.4616379
40
0.5
50
248.0000006
51
338.0000006
0
ARC
8
0
10
8.4616379
20
3.5917522
40
0.5
50
338.0000006
51
68.0000006
0
ARC
8
0
10
-3.5917522
20
8.4616379
40
0.5
50
68.0000006
51
158.0000006
0
ARC
8
0
10
-8.4616379
20
-3.5917522
40
0.5
50
158.0000006
51
248.0000006
0
ARC
8
0
10
20.7446535
20
-15.3918599
40
0.5
50
248.0000006
51
338.0000006
0
ARC
8
0
10
25.6145392
20
-3.3384698
40
0.5
50
338.0000006
51
68.0000006
0
ARC
8
0
10
13.5611491
20
1.5314159
40
0.5
50
68.0000006
51
158.0000006
0
ARC
8
0
10
8.6912634
20
-10.5219742
40
0.5
50
158.0000006
51
248.0000006
0
ARC
8
0
10
27.3002689
20
0.8338576
40
0.5
50
248.0000006
51
338.0000006
0
ARC
8
0
10
32.1701546
20
12.8872477
40
0.5
50
338.0000006
51
68.0000006
0
ARC
8
0
10
20.1167645
20
17.7571334
40
0.5
50
68.0000006
51
158.0000006
0
ARC
8
0
10
15.2468788
20
5.7037433
40
0.5
50
158.0000006
51
248.0000006
0
ARC
8
0
10
37.8975548
20
-22.3220819
40
0.5
50
248.0000006
51
338.0000006
0
ARC
8
0
10
42.7674405
20
-10.2686918
40
0.5
50
338.0000006
51
68.0000006
0
ARC
8
0
10
30.7140504
20
-5.3988061
40
0.5
50
68.0000006
51
158.0000006
0
ARC
8
0
10
25.8441647
20
-17.4521962
40
0.5
50
158.0000006
51
248.0000006
0
ARC
8
0
10
61.6060715
20
-13.0265864
40
0.5
50
248.0000006
51
338.0000006
0
ARC
8
0
10
66.4759572
20
-0.9731963
40
0.5
50
338.0000006
51
68.0000006
0
ARC
8
0
10
54.4225671
20
3.8966894
40
0.5
50
68.0000006
51
158.0000006
0
ARC
8
0
10
49.5526814
20
-8.1567007
40
0.5
50
158.0000006
51
248.0000006
0
ARC
8
0
10
82.8006433
20
-59.3384652
40
0.5
50
248.0000006
51
338.0000006
0
ARC
8
0
10
87.670529
20
-47.2850751
40
0.5
50
338.0000006
51
68.0000006
0
ARC
8
0
10
75.6171389
20
-42.4151894
40
0.5
50
68.0000006
51
158.0000006
0
ARC
8
0
10
70.7472532
20
-54.4685795
40
0.5
50
158.0000006
51
248.0000006
0
ENDSEC
0
EOF