0
SECTION
2
HEADER
9
$INSUNITS
70
4
0
ENDSEC
0
SECTION
2
TABLES
0
TABLE
2
LTYPE
0
LTYPE
72
65
70
64
2
CONTINUOUS
3
______
73
0
40
0
0
ENDTAB
0
TABLE
2
LAYER
0
ENDTAB
0
ENDSEC
0
SECTION
2
ENTITIES
0
LINE
8
0
10
-11.1143778
20
-5.4859463
11
4.1841558
21
-11.666955
0
LINE
8
0
10
6.1368415
20
-10.8380891
11
7.6352678
21
-7.1293538
0
LINE
8
0
10
10.187194
20
5.8605529
11
-4.1841558
21
11.666955
0
LINE
8
0
10
-6.1368415
20
10.8380891
11
-11.9432437
21
-3.5332606
0
LINE
8
0
10
9.5879535
20
-6.3004879
11
23.9593033
21
-12.10689
0
LINE
8
0
10
25.911989
20
-11.2780241
11
26.2865955
21
-10.3508404
0
LINE
8
0
10
12.1398797
20
6.6894188
11
20.1939213
21
26.6238716
0
LINE
8
0
10
36.5179568
20
21.6463354
11
22.146607
21
27.4527375
0
LINE
8
0
10
28.2392812
20
-9.5219745
11
41.6834471
21
-14.95377
0
LINE
8
0
10
55.8015144
20
13.3160049
11
56.9253342
21
16.0975565
0
LINE
8
0
10
56.0964683
20
18.0502422
11
40.7979347
21
24.2312509
0
LINE
8
0
10
38.845249
20
23.402385
11
38.4706425
21
22.4752013
0
LINE
8
0
10
42.2173591
20
-21.640693
11
56.5887088
21
-27.4470951
0
LINE
8
0
10
59.843185
20
-26.065652
11
71.830596
21
3.6042314
0
LINE
8
0
10
42.512313
20
-16.9064557
11
41.3884932
21
-19.6880073
0
LINE
8
0
10
71.0017301
20
5.5569171
11
56.6303803
21
11.3633192
0
LINE
8
0
10
208.0905488
20
-11.666955
11
223.3890824
21
-5.4859463
0
LINE
8
0
10
224.2179483
20
-3.5332606
11
218.4115461
21
10.8380891
0
LINE
8
0
10
216.4588604
20
11.666955
11
202.0875106
21
5.8605529
0
LINE
8
0
10
204.6394368
20
-7.1293538
11
206.1378631
21
-10.8380891
0
LINE
8
0
10
188.3154013
20
-12.10689
11
202.6867511
21
-6.3004879
0
LINE
8
0
10
192.0807833
20
26.6238716
11
200.1348249
21
6.6894188
0
LINE
8
0
10
185.9881091
20
-10.3508404
11
186.3627156
21
-11.2780241
0
LINE
8
0
10
190.1280976
20
27.4527375
11
175.7567478
21
21.6463354
0
LINE
8
0
10
170.5912575
20
-14.95377
11
184.0354234
21
-9.5219745
0
LINE
8
0
10
173.8040621
20
22.4752013
11
173.4294556
21
23.402385
0
LINE
8
0
10
171.4767699
20
24.2312509
11
156.1782363
21
18.0502422
0
LINE
8
0
10
155.3493704
20
16.0975565
11
156.4731902
21
13.3160049
0
LINE
8
0
10
155.6859958
20
-27.4470951
11
170.0573455
21
-21.640693
0
LINE
8
0
10
170.8862114
20
-19.6880073
11
169.7623916
21
-16.9064557
0
LINE
8
0
10
140.4441086
20
3.6042314
11
152.4315196
21
-26.065652
0
LINE
8
0
10
155.6443243
20
11.3633192
11
141.2729745
21
5.5569171
0
LINE
8
0
10
52.814645
20
-44.7966324
11
85.2660799
21
-57.9078631
0
LINE
8
0
10
60.6720509
20
-28.0183377
11
92.1963019
21
-40.7549618
0
LINE
8
0
10
57.4175747
20
-29.3997808
11
51.9857791
21
-42.8439467
0
LINE
8
0
10
87.2187656
20
-57.0789972
11
93.0251678
21
-42.7076475
0
LINE
8
0
10
127.0086247
20
-57.9078631
11
159.4600596
21
-44.7966324
0
LINE
8
0
10
160.2889255
20
-42.8439467
11
154.8571299
21
-29.3997808
0
LINE
8
0
10
120.0784027
20
-40.7549618
11
151.6026537
21
-28.0183377
0
LINE
8
0
10
119.2495368
20
-42.7076475
11
125.055939
21
-57.0789972
0
ARC
8
0
10
4.7460657
20
-10.2761792
40
1.5
50
248.0000006
51
338.0000006
0
ARC
8
0
10
9.0260436
20
-7.6912637
40
1.5
50
68.0000006
51
158.0000006
0
ARC
8
0
10
24.5212132
20
-10.7161142
40
1.5
50
248.0000006
51
338.0000006
0
ARC
8
0
10
27.6773713
20
-10.9127503
40
1.5
50
68.0000006
51
158.0000006
0
ARC
8
0
10
41.1215372
20
-16.3445458
40
1.5
50
338.0000006
51
68.0000006
0
ARC
8
0
10
42.779269
20
-20.2499172
40
1.5
50
158.0000006
51
248.0000006
0
ARC
8
0
10
56.0267989
20
-28.8378709
40
1.5
50
338.0000006
51
68.0000006
0
ARC
8
0
10
53.3765549
20
-43.4058566
40
1.5
50
158.0000006
51
248.0000006
0
ARC
8
0
10
85.8279898
20
-56.5170873
40
1.5
50
248.0000006
51
338.0000006
0
ARC
8
0
10
91.634392
20
-42.1457376
40
1.5
50
338.0000006
51
68.0000006
0
ARC
8
0
10
61.2339608
20
-26.6275619
40
1.5
50
158.0000006
51
248.0000006
0
ARC
8
0
10
70.4398202
20
4.1661413
40
1.5
50
338.0000006
51
68.0000006
0
ARC
8
0
10
57.1922902
20
12.754095
40
1.5
50
158.0000006
51
248.0000006
0
ARC
8
0
10
55.5345584
20
16.6594664
40
1.5
50
338.0000006
51
68.0000006
0
ARC
8
0
10
40.2360248
20
22.8404751
40
1.5
50
68.0000006
51
158.0000006
0
ARC
8
0
10
37.0798667
20
23.0371112
40
1.5
50
248.0000006
51
338.0000006
0
ARC
8
0
10
21.5846971
20
26.0619617
40
1.5
50
68.0000006
51
158.0000006
0
ARC
8
0
10
10.7491039
20
7.2513287
40
1.5
50
248.0000006
51
338.0000006
0
ARC
8
0
10
-4.7460657
20
10.2761792
40
1.5
50
68.0000006
51
158.0000006
0
ARC
8
0
10
-10.5524679
20
-4.0951705
40
1.5
50
158.0000006
51
248.0000006
0
ARC
8
0
10
222.8271725
20
-4.0951705
40
1.5
50
291.9999994
51
21.9999994
0
ARC
8
0
10
217.0207703
20
10.2761792
40
1.5
50
21.9999994
51
111.9999994
0
ARC
8
0
10
201.5256007
20
7.2513287
40
1.5
50
201.9999994
51
291.9999994
0
ARC
8
0
10
190.6900075
20
26.0619617
40
1.5
50
21.9999994
51
111.9999994
0
ARC
8
0
10
175.1948379
20
23.0371112
40
1.5
50
201.9999994
51
291.9999994
0
ARC
8
0
10
172.0386798
20
22.8404751
40
1.5
50
21.9999994
51
111.9999994
0
ARC
8
0
10
156.7401462
20
16.6594664
40
1.5
50
111.9999994
51
201.9999994
0
ARC
8
0
10
155.0824144
20
12.754095
40
1.5
50
291.9999994
51
21.9999994
0
ARC
8
0
10
141.8348844
20
4.1661413
40
1.5
50
111.9999994
51
201.9999994
0
ARC
8
0
10
151.0407438
20
-26.6275619
40
1.5
50
291.9999994
51
21.9999994
0
ARC
8
0
10
120.6403126
20
-42.1457376
40
1.5
50
111.9999994
51
201.9999994
0
ARC
8
0
10
126.4467148
20
-56.5170873
40
1.5
50
201.9999994
51
291.9999994
0
ARC
8
0
10
158.8981497
20
-43.4058566
40
1.5
50
291.9999994
51
21.9999994
0
ARC
8
0
10
156.2479057
20
-28.8378709
40
1.5
50
111.9999994
51
201.9999994
0
ARC
8
0
10
169.4954356
20
-20.2499172
40
1.5
50
291.9999994
51
21.9999994
0
ARC
8
0
10
171.1531674
20
-16.3445458
40
1.5
50
111.9999994
51
201.9999994
0
ARC
8
0
10
184.5973333
20
-10.9127503
40
1.5
50
21.9999994
51
111.9999994
0
ARC
8
0
10
187.7534914
20
-10.7161142
40
1.5
50
201.9999994
51
291.9999994
0
ARC
8
0
10
203.248661
20
-7.6912637
40
1.5
50
21.9999994
51
111.9999994
0
ARC
8
0
10
207.5286389
20
-10.2761792
40
1.5
50
201.9999994
51
291.9999994
0
LINE
8
0
10
-8.6489412
20
-4.0553441
11
3.4044489
21
-8.9252298
0
LINE
8
0
10
4.0553441
20
-8.6489412
11
8.9252298
21
3.4044489
0
LINE
8
0
10
8.6489412
20
4.0553441
11
-3.4044489
21
8.9252298
0
LINE
8
0
10
-4.0553441
20
8.6489412
11
-8.9252298
21
-3.4044489
0
LINE
8
0
10
11.1262063
20
-4.4952791
11
23.1795964
21
-9.3651648
0
LINE
8
0
10
23.8304916
20
-9.0888762
11
28.7003773
21
2.9645139
0
LINE
8
0
10
28.4240887
20
3.6154091
11
16.3706986
21
8.4852948
0
LINE
8
0
10
15.7198034
20
8.2090062
11
10.8499177
21
-3.8443839
0
LINE
8
0
10
17.6818216
20
11.7304384
11
29.7352117
21
6.8605527
0
LINE
8
0
10
30.3861069
20
7.1368413
11
35.2559926
21
19.1902314
0
LINE
8
0
10
34.979704
20
19.8411266
11
22.9263139
21
24.7110123
0
LINE
8
0
10
22.2754187
20
24.4347237
11
17.405533
21
12.3813336
0
LINE
8
0
10
29.7775339
20
-7.7167657
11
41.830924
21
-12.5866514
0
LINE
8
0
10
42.4818192
20
-12.3103628
11
47.3517049
21
-0.2569727
0
LINE
8
0
10
47.0754163
20
0.3939225
11
35.0220262
21
5.2638082
0
LINE
8
0
10
34.371131
20
4.9875196
11
29.5012453
21
-7.0658705
0
LINE
8
0
10
36.3331493
20
8.5089518
11
48.3865394
21
3.6390661
0
LINE
8
0
10
49.0374346
20
3.9153547
11
53.9073203
21
15.9687448
0
LINE
8
0
10
53.6310317
20
16.61964
11
41.5776416
21
21.4895257
0
LINE
8
0
10
40.9267464
20
21.2132371
11
36.0568607
21
9.159847
0
LINE
8
0
10
44.6827957
20
-20.2100908
11
56.7361858
21
-25.0799765
0
LINE
8
0
10
57.387081
20
-24.8036879
11
62.2569667
21
-12.7502978
0
LINE
8
0
10
61.9806781
20
-12.0994026
11
49.927288
21
-7.2295169
0
LINE
8
0
10
49.2763928
20
-7.5058055
11
44.4065071
21
-19.5591956
0
LINE
8
0
10
51.2384111
20
-3.9843733
11
63.2918012
21
-8.854259
0
LINE
8
0
10
63.9426964
20
-8.5779704
11
68.8125821
21
3.4754197
0
LINE
8
0
10
68.5362935
20
4.1263149
11
56.4829034
21
8.9962006
0
LINE
8
0
10
55.8320082
20
8.719912
11
50.9621225
21
-3.3334781
0
LINE
8
0
10
208.8702557
20
-8.9252298
11
220.9236458
21
-4.0553441
0
LINE
8
0
10
221.1999344
20
-3.4044489
11
216.3300487
21
8.6489412
0
LINE
8
0
10
215.6791535
20
8.9252298
11
203.6257634
21
4.0553441
0
LINE
8
0
10
203.3494748
20
3.4044489
11
208.2193605
21
-8.6489412
0
LINE
8
0
10
189.0951082
20
-9.3651648
11
201.1484983
21
-4.4952791
0
LINE
8
0
10
201.4247869
20
-3.8443839
11
196.5549012
21
8.2090062
0
LINE
8
0
10
195.904006
20
8.4852948
11
183.8506159
21
3.6154091
0
LINE
8
0
10
183.5743273
20
2.9645139
11
188.444213
21
-9.0888762
0
LINE
8
0
10
182.5394929
20
6.8605527
11
194.592883
21
11.7304384
0
LINE
8
0
10
194.8691716
20
12.3813336
11
189.9992859
21
24.4347237
0
LINE
8
0
10
189.3483907
20
24.7110123
11
177.2950006
21
19.8411266
0
LINE
8
0
10
177.018712
20
19.1902314
11
181.8885977
21
7.1368413
0
LINE
8
0
10
170.4437806
20
-12.5866514
11
182.4971707
21
-7.7167657
0
LINE
8
0
10
182.7734593
20
-7.0658705
11
177.9035736
21
4.9875196
0
LINE
8
0
10
177.2526784
20
5.2638082
11
165.1992883
21
0.3939225
0
LINE
8
0
10
164.9229997
20
-0.2569727
11
169.7928854
21
-12.3103628
0
LINE
8
0
10
163.8881652
20
3.6390661
11
175.9415553
21
8.5089518
0
LINE
8
0
10
176.2178439
20
9.159847
11
171.3479582
21
21.2132371
0
LINE
8
0
10
170.697063
20
21.4895257
11
158.6436729
21
16.61964
0
LINE
8
0
10
158.3673843
20
15.9687448
11
163.23727
21
3.9153547
0
LINE
8
0
10
155.5385188
20
-25.0799765
11
167.5919089
21
-20.2100908
0
LINE
8
0
10
167.8681975
20
-19.5591956
11
162.9983118
21
-7.5058055
0
LINE
8
0
10
162.3474166
20
-7.2295169
11
150.2940265
21
-12.0994026
0
LINE
8
0
10
150.0177379
20
-12.7502978
11
154.8876236
21
-24.8036879
0
LINE
8
0
10
148.9829034
20
-8.854259
11
161.0362935
21
-3.9843733
0
LINE
8
0
10
161.3125821
20
-3.3334781
11
156.4426964
21
8.719912
0
LINE
8
0
10
155.7918012
20
8.9962006
11
143.7384111
21
4.1263149
0
LINE
8
0
10
143.4621225
20
3.4754197
11
148.3320082
21
-8.5779704
0
LINE
8
0
10
55.2800816
20
-43.3660302
11
67.3334717
21
-48.2359159
0
LINE
8
0
10
67.9843669
20
-47.9596273
11
72.8542526
21
-35.9062372
0
LINE
8
0
10
72.577964
20
-35.255342
11
60.5245739
21
-30.3854563
0
LINE
8
0
10
59.8736787
20
-30.6617449
11
55.003793
21
-42.715135
0
LINE
8
0
10
72.4329829
20
-50.2962522
11
84.486373
21
-55.1661379
0
LINE
8
0
10
85.1372682
20
-54.8898493
11
90.0071539
21
-42.8364592
0
LINE
8
0
10
89.7308653
20
-42.185564
11
77.6774752
21
-37.3156783
0
LINE
8
0
10
77.02658
20
-37.5919669
11
72.1566943
21
-49.645357
0
LINE
8
0
10
144.9412329
20
-48.2359159
11
156.994623
21
-43.3660302
0
LINE
8
0
10
157.2709116
20
-42.715135
11
152.4010259
21
-30.6617449
0
LINE
8
0
10
151.7501307
20
-30.3854563
11
139.6967406
21
-35.255342
0
LINE
8
0
10
139.420452
20
-35.9062372
11
144.2903377
21
-47.9596273
0
LINE
8
0
10
127.7883316
20
-55.1661379
11
139.8417217
21
-50.2962522
0
LINE
8
0
10
140.1180103
20
-49.645357
11
135.2481246
21
-37.5919669
0
LINE
8
0
10
134.5972294
20
-37.3156783
11
122.5438393
21
-42.185564
0
LINE
8
0
10
122.2675507
20
-42.8364592
11
127.1374364
21
-54.8898493
0
ARC
8
0
10
139.6544184
20
-49.8326603
40
0.5
50
291.9999994
51
21.9999994
0
ARC
8
0
10
134.7845327
20
-37.7792702
40
0.5
50
21.9999994
51
111.9999994
0
ARC
8
0
10
122.7311426
20
-42.6491559
40
0.5
50
111.9999994
51
201.9999994
0
ARC
8
0
10
127.6010283
20
-54.702546
40
0.5
50
201.9999994
51
291.9999994
0
ARC
8
0
10
63.4791045
20
-8.3906671
40
0.5
50
248.0000006
51
338.0000006
0
ARC
8
0
10
68.3489902
20
3.662723
40
0.5
50
338.0000006
51
68.0000006
0
ARC
8
0
10
56.2956001
20
8.5326087
40
0.5
50
68.0000006
51
158.0000006
0
ARC
8
0
10
51.4257144
20
-3.5207814
40
0.5
50
158.0000006
51
248.0000006
0
ARC
8
0
10
156.8073197
20
-42.9024383
40
0.5
50
291.9999994
51
21.9999994
0
ARC
8
0
10
151.937434
20
-30.8490482
40
0.5
50
21.9999994
51
111.9999994
0
ARC
8
0
10
139.8840439
20
-35.7189339
40
0.5
50
111.9999994
51
201.9999994
0
ARC
8
0
10
144.7539296
20
-47.772324
40
0.5
50
201.9999994
51
291.9999994
0
ARC
8
0
10
48.5738427
20
4.102658
40
0.5
50
248.0000006
51
338.0000006
0
ARC
8
0
10
53.4437284
20
16.1560481
40
0.5
50
338.0000006
51
68.0000006
0
ARC
8
0
10
41.3903383
20
21.0259338
40
0.5
50
68.0000006
51
158.0000006
0
ARC
8
0
10
36.5204526
20
8.9725437
40
0.5
50
158.0000006
51
248.0000006
0
ARC
8
0
10
220.7363425
20
-3.5917522
40
0.5
50
291.9999994
51
21.9999994
0
ARC
8
0
10
215.8664568
20
8.4616379
40
0.5
50
21.9999994
51
111.9999994
0
ARC
8
0
10
203.8130667
20
3.5917522
40
0.5
50
111.9999994
51
201.9999994
0
ARC
8
0
10
208.6829524
20
-8.4616379
40
0.5
50
201.9999994
51
291.9999994
0
ARC
8
0
10
200.961195
20
-4.0316872
40
0.5
50
291.9999994
51
21.9999994
0
ARC
8
0
10
196.0913093
20
8.0217029
40
0.5
50
21.9999994
51
111.9999994
0
ARC
8
0
10
184.0379192
20
3.1518172
40
0.5
50
111.9999994
51
201.9999994
0
ARC
8
0
10
188.9078049
20
-8.9015729
40
0.5
50
201.9999994
51
291.9999994
0
ARC
8
0
10
194.4055797
20
12.1940303
40
0.5
50
291.9999994
51
21.9999994
0
ARC
8
0
10
189.535694
20
24.2474204
40
0.5
50
21.9999994
51
111.9999994
0
ARC
8
0
10
177.4823039
20
19.3775347
40
0.5
50
111.9999994
51
201.9999994
0
ARC
8
0
10
182.3521896
20
7.3241446
40
0.5
50
201.9999994
51
291.9999994
0
ARC
8
0
10
182.3098674
20
-7.2531738
40
0.5
50
291.9999994
51
21.9999994
0
ARC
8
0
10
177.4399817
20
4.8002163
40
0.5
50
21.9999994
51
111.9999994
0
ARC
8
0
10
165.3865916
20
-0.0696694
40
0.5
50
111.9999994
51
201.9999994
0
ARC
8
0
10
170.2564773
20
-12.1230595
40
0.5
50
201.9999994
51
291.9999994
0
ARC
8
0
10
175.754252
20
8.9725437
40
0.5
50
291.9999994
51
21.9999994
0
ARC
8
0
10
170.8843663
20
21.0259338
40
0.5
50
21.9999994
51
111.9999994
0
ARC
8
0
10
158.8309762
20
16.1560481
40
0.5
50
111.9999994
51
201.9999994
0
ARC
8
0
10
163.7008619
20
4.102658
40
0.5
50
201.9999994
51
291.9999994
0
ARC
8
0
10
167.4046056
20
-19.7464989
40
0.5
50
291.9999994
51
21.9999994
0
ARC
8
0
10
162.5347199
20
-7.6931088
40
0.5
50
21.9999994
51
111.9999994
0
ARC
8
0
10
150.4813298
20
-12.5629945
40
0.5
50
111.9999994
51
201.9999994
0
ARC
8
0
10
155.3512155
20
-24.6163846
40
0.5
50
201.9999994
51
291.9999994
0
ARC
8
0
10
160.8489902
20
-3.5207814
40
0.5
50
291.9999994
51
21.9999994
0
ARC
8
0
10
155.9791045
20
8.5326087
40
0.5
50
21.9999994
51
111.9999994
0
ARC
8
0
10
143.9257144
20
3.662723
40
0.5
50
111.9999994
51
201.9999994
0
ARC
8
0
10
148.7956001
20
-8.3906671
40
0.5
50
201.9999994
51
291.9999994
0
ARC
8
0
10
67.520775
20
-47.772324
40
0.5
50
248.0000006
51
338.0000006
0
ARC
8
0
10
72.3906607
20
-35.7189339
40
0.5
50
338.0000006
51
68.0000006
0
ARC
8
0
10
60.3372706
20
-30.8490482
40
0.5
50
68.0000006
51
158.0000006
0
ARC
8
0
10
55.4673849
20
-42.9024383
40
0.5
50
158.0000006
51
248.0000006
0
ARC
8
0
10
3.5917522
20
-8.4616379
40
0.5
50
248.0000006
51
338.0000006
0
ARC
8
0
10
8.4616379
20
3.5917522
40
0.5
50
338.0000006
51
68.0000006
0
ARC
8
0
10
-3.5917522
20
8.4616379
40
0.5
50
68.0000006
51
158.0000006
0
ARC
8
0
10
-8.4616379
20
-3.5917522
40
0.5
50
158.0000006
51
248.0000006
0
ARC
8
0
10
23.3668997
20
-8.9015729
40
0.5
50
248.0000006
51
338.0000006
0
ARC
8
0
10
28.2367854
20
3.1518172
40
0.5
50
338.0000006
51
68.0000006
0
ARC
8
0
10
16.1833953
20
8.0217029
40
0.5
50
68.0000006
51
158.0000006
0
ARC
8
0
10
11.3135096
20
-4.0316872
40
0.5
50
158.0000006
51
248.0000006
0
ARC
8
0
10
42.0182273
20
-12.1230595
40
0.5
50
248.0000006
51
338.0000006
0
ARC
8
0
10
46.888113
20
-0.0696694
40
0.5
50
338.0000006
51
68.0000006
0
ARC
8
0
10
34.8347229
20
4.8002163
40
0.5
50
68.0000006
51
158.0000006
0
ARC
8
0
10
29.9648372
20
-7.2531738
40
0.5
50
158.0000006
51
248.0000006
0
ARC
8
0
10
56.9234891
20
-24.6163846
40
0.5
50
248.0000006
51
338.0000006
0
ARC
8
0
10
61.7933748
20
-12.5629945
40
0.5
50
338.0000006
51
68.0000006
0
ARC
8
0
10
49.7399847
20
-7.6931088
40
0.5
50
68.0000006
51
158.0000006
0
ARC
8
0
10
44.870099
20
-19.7464989
40
0.5
50
158.0000006
51
248.0000006
0
ARC
8
0
10
29.922515
20
7.3241446
40
0.5
50
248.0000006
51
338.0000006
0
ARC
8
0
10
34.7924007
20
19.3775347
40
0.5
50
338.0000006
51
68.0000006
0
ARC
8
0
10
22.7390106
20
24.2474204
40
0.5
50
68.0000006
51
158.0000006
0
ARC
8
0
10
17.8691249
20
12.1940303
40
0.5
50
158.0000006
51
248.0000006
0
ARC
8
0
10
84.6736763
20
-54.702546
40
0.5
50
248.0000006
51
338.0000006
0
ARC
8
0
10
89.543562
20
-42.6491559
40
0.5
50
338.0000006
51
68.0000006
0
ARC
8
0
10
77.4901719
20
-37.7792702
40
0.5
50
68.0000006
51
158.0000006
0
ARC
8
0
10
72.6202862
20
-49.8326603
40
0.5
50
158.0000006
51
248.0000006
0
ENDSEC
0
EOF