0
SECTION
2
HEADER
9
$INSUNITS
70
4
0
ENDSEC
0
SECTION
2
TABLES
0
TABLE
2
LTYPE
0
LTYPE
72
65
70
64
2
CONTINUOUS
3
______
73
0
40
0
0
ENDTAB
0
TABLE
2
LAYER
0
ENDTAB
0
ENDSEC
0
SECTION
2
ENTITIES
0
LINE
8
0
10
-8.25
20
-9.25
11
63.75
21
-9.25
0
LINE
8
0
10
7.25
20
9.25
11
-8.25
21
9.25
0
LINE
8
0
10
-9.75
20
7.75
11
-9.75
21
-7.75
0
LINE
8
0
10
10.25
20
26.75
11
63.75
21
26.75
0
LINE
8
0
10
8.75
20
10.75
11
8.75
21
25.25
0
LINE
8
0
10
65.25
20
-7.75
11
65.25
21
25.25
0
ARC
8
0
10
63.75
20
-7.75
40
1.5
50
270
51
0
0
ARC
8
0
10
63.75
20
25.25
40
1.5
50
0
51
90
0
ARC
8
0
10
10.25
20
25.25
40
1.5
50
90
51
180
0
ARC
8
0
10
7.25
20
10.75
40
1.5
50
270
51
0
0
ARC
8
0
10
-8.25
20
7.75
40
1.5
50
90
51
180
0
ARC
8
0
10
-8.25
20
-7.75
40
1.5
50
180
51
270
0
LINE
8
0
10
-6.5
20
-7
11
6.5
21
-7
0
LINE
8
0
10
7
20
-6.5
11
7
21
6.5
0
LINE
8
0
10
6.5
20
7
11
-6.5
21
7
0
LINE
8
0
10
-7
20
6.5
11
-7
21
-6.5
0
LINE
8
0
10
12
20
-7
11
25
21
-7
0
LINE
8
0
10
25.5
20
-6.5
11
25.5
21
6.5
0
LINE
8
0
10
25
20
7
11
12
21
7
0
LINE
8
0
10
11.5
20
6.5
11
11.5
21
-6.5
0
LINE
8
0
10
12
20
10.5
11
25
21
10.5
0
LINE
8
0
10
25.5
20
11
11
25.5
21
24
0
LINE
8
0
10
25
20
24.5
11
12
21
24.5
0
LINE
8
0
10
11.5
20
24
11
11.5
21
11
0
LINE
8
0
10
30.5
20
-7
11
43.5
21
-7
0
LINE
8
0
10
44
20
-6.5
11
44
21
6.5
0
LINE
8
0
10
43.5
20
7
11
30.5
21
7
0
LINE
8
0
10
30
20
6.5
11
30
21
-6.5
0
LINE
8
0
10
30.5
20
10.5
11
43.5
21
10.5
0
LINE
8
0
10
44
20
11
11
44
21
24
0
LINE
8
0
10
43.5
20
24.5
11
30.5
21
24.5
0
LINE
8
0
10
30
20
24
11
30
21
11
0
LINE
8
0
10
49
20
-7
11
62
21
-7
0
LINE
8
0
10
62.5
20
-6.5
11
62.5
21
6.5
0
LINE
8
0
10
62
20
7
11
49
21
7
0
LINE
8
0
10
48.5
20
6.5
11
48.5
21
-6.5
0
LINE
8
0
10
49
20
10.5
11
62
21
10.5
0
LINE
8
0
10
62.5
20
11
11
62.5
21
24
0
LINE
8
0
10
62
20
24.5
11
49
21
24.5
0
LINE
8
0
10
48.5
20
24
11
48.5
21
11
0
ARC
8
0
10
6.5
20
-6.5
40
0.5
50
270
51
0
0
ARC
8
0
10
6.5
20
6.5
40
0.5
50
0
51
90
0
ARC
8
0
10
-6.5
20
6.5
40
0.5
50
90
51
180
0
ARC
8
0
10
-6.5
20
-6.5
40
0.5
50
180
51
270
0
ARC
8
0
10
25
20
-6.5
40
0.5
50
270
51
0
0
ARC
8
0
10
25
20
6.5
40
0.5
50
0
51
90
0
ARC
8
0
10
12
20
6.5
40
0.5
50
90
51
180
0
ARC
8
0
10
12
20
-6.5
40
0.5
50
180
51
270
0
ARC
8
0
10
25
20
11
40
0.5
50
270
51
0
0
ARC
8
0
10
25
20
24
40
0.5
50
0
51
90
0
ARC
8
0
10
12
20
24
40
0.5
50
90
51
180
0
ARC
8
0
10
12
20
11
40
0.5
50
180
51
270
0
ARC
8
0
10
43.5
20
-6.5
40
0.5
50
270
51
0
0
ARC
8
0
10
43.5
20
6.5
40
0.5
50
0
51
90
0
ARC
8
0
10
30.5
20
6.5
40
0.5
50
90
51
180
0
ARC
8
0
10
30.5
20
-6.5
40
0.5
50
180
51
270
0
ARC
8
0
10
43.5
20
11
40
0.5
50
270
51
0
0
ARC
8
0
10
43.5
20
24
40
0.5
50
0
51
90
0
ARC
8
0
10
30.5
20
24
40
0.5
50
90
51
180
0
ARC
8
0
10
30.5
20
11
40
0.5
50
180
51
270
0
ARC
8
0
10
62
20
-6.5
40
0.5
50
270
51
0
0
ARC
8
0
10
62
20
6.5
40
0.5
50
0
51
90
0
ARC
8
0
10
49
20
6.5
40
0.5
50
90
51
180
0
ARC
8
0
10
49
20
-6.5
40
0.5
50
180
51
270
0
ARC
8
0
10
62
20
11
40
0.5
50
270
51
0
0
ARC
8
0
10
62
20
24
40
0.5
50
0
51
90
0
ARC
8
0
10
49
20
24
40
0.5
50
90
51
180
0
ARC
8
0
10
49
20
11
40
0.5
50
180
51
270
0
ENDSEC
0
EOF