0
SECTION
2
HEADER
9
$INSUNITS
70
4
0
ENDSEC
0
SECTION
2
TABLES
0
TABLE
2
LTYPE
0
LTYPE
72
65
70
64
2
CONTINUOUS
3
______
73
0
40
0
0
ENDTAB
0
TABLE
2
LAYER
0
ENDTAB
0
ENDSEC
0
SECTION
2
ENTITIES
0
LINE
8
0
10
235.5663201
20
-226.463146
11
203.3460543
21
-226.463146
0
LINE
8
0
10
200.1665385
20
-227.3748575
11
182.1242121
21
-238.6489543
0
LINE
8
0
10
174.1486893
20
-237.1659836
11
155.1472621
21
-211.8891595
0
LINE
8
0
10
154.1900745
20
-210.8832447
11
111.3451648
21
-175.215152
0
LINE
8
0
10
109.5458284
20
-168.5517987
11
113.7081588
21
-157.1158901
0
LINE
8
0
10
116.2359739
20
-154.0371454
11
142.8392796
21
-137.91017
0
LINE
8
0
10
148.8584777
20
-137.7933173
11
193.4365449
21
-162.5033435
0
LINE
8
0
10
196.3454025
20
-163.2556253
11
242.5669719
21
-163.2556253
0
LINE
8
0
10
245.4758295
20
-162.5033435
11
290.0538967
21
-137.7933173
0
LINE
8
0
10
296.0730948
20
-137.91017
11
322.6764005
21
-154.0371454
0
LINE
8
0
10
325.2042156
20
-157.1158901
11
329.366546
21
-168.5517987
0
LINE
8
0
10
327.5672096
20
-175.215152
11
284.7222999
21
-210.8832447
0
LINE
8
0
10
283.7651123
20
-211.8891595
11
264.7636851
21
-237.1659836
0
LINE
8
0
10
256.7881623
20
-238.6489543
11
238.7458359
21
-227.3748575
0
ARC
8
0
10
203.3460543
20
-232.463146
40
6
50
90
51
122.0000016
0
ARC
8
0
10
178.9446963
20
-233.5606658
40
6
50
216.9334009
51
302.0000016
0
ARC
8
0
10
150.3512551
20
-215.4944773
40
6
50
36.9334009
51
50.2228514
0
ARC
8
0
10
115.1839842
20
-170.6039194
40
6
50
160.0000019
51
230.2228514
0
ARC
8
0
10
119.3463145
20
-159.1680109
40
6
50
121.224325
51
159.9999998
0
ARC
8
0
10
145.9496201
20
-143.0410356
40
6
50
61.0000008
51
121.2243232
0
ARC
8
0
10
196.3454025
20
-157.2556253
40
6
50
241.0000008
51
270
0
ARC
8
0
10
242.5669719
20
-157.2556253
40
6
50
270
51
298.9999992
0
ARC
8
0
10
292.9627543
20
-143.0410356
40
6
50
58.7756768
51
118.9999992
0
ARC
8
0
10
319.5660599
20
-159.1680109
40
6
50
20.0000002
51
58.775675
0
ARC
8
0
10
323.7283902
20
-170.6039194
40
6
50
309.7771486
51
19.9999981
0
ARC
8
0
10
288.5611193
20
-215.4944773
40
6
50
129.7771486
51
143.0665991
0
ARC
8
0
10
259.9676781
20
-233.5606658
40
6
50
237.9999984
51
323.0665991
0
ARC
8
0
10
235.5663201
20
-232.463146
40
6
50
57.9999984
51
90
0
LINE
8
0
10
112.5673651
20
-171.2144615
11
124.7833691
21
-175.6607233
0
LINE
8
0
10
125.4242255
20
-175.3618871
11
129.8704873
21
-163.1458831
0
LINE
8
0
10
129.5716511
20
-162.5050267
11
117.3556471
21
-158.0587649
0
LINE
8
0
10
116.7147907
20
-158.3576011
11
112.2685289
21
-170.5736051
0
LINE
8
0
10
131.7921189
20
-173.0564739
11
143.3752037
21
-178.9583503
0
LINE
8
0
10
144.0477023
20
-178.7398423
11
149.9495787
21
-167.1567575
0
LINE
8
0
10
149.7310707
20
-166.4842589
11
138.1479859
21
-160.5823825
0
LINE
8
0
10
137.4754873
20
-160.8008905
11
131.5736109
21
-172.3839753
0
LINE
8
0
10
139.7369526
20
-157.4638597
11
151.3200374
21
-163.3657361
0
LINE
8
0
10
151.992536
20
-163.1472281
11
157.8944124
21
-151.5641433
0
LINE
8
0
10
157.6759044
20
-150.8916447
11
146.0928196
21
-144.9897683
0
LINE
8
0
10
145.420321
20
-145.2082763
11
139.5184446
21
-156.7913611
0
LINE
8
0
10
149.9824821
20
-177.57624
11
161.3525382
21
-183.8787651
0
LINE
8
0
10
162.0322529
20
-183.68386
11
168.334778
21
-172.3138039
0
LINE
8
0
10
168.1398729
20
-171.6340892
11
156.7698168
21
-165.3315641
0
LINE
8
0
10
156.0901021
20
-165.5264692
11
149.787577
21
-176.8965253
0
LINE
8
0
10
158.4666504
20
-162.2703951
11
169.8367065
21
-168.5729202
0
LINE
8
0
10
170.5164212
20
-168.3780151
11
176.8189463
21
-157.007959
0
LINE
8
0
10
176.6240412
20
-156.3282443
11
165.2539851
21
-150.0257192
0
LINE
8
0
10
164.5742704
20
-150.2206243
11
158.2717453
21
-161.5906804
0
LINE
8
0
10
163.7286019
20
-190.4908621
11
173.6871797
21
-198.8471011
0
LINE
8
0
10
174.3915957
20
-198.7854727
11
182.7478347
21
-188.8268949
0
LINE
8
0
10
182.6862063
20
-188.1224789
11
172.7276285
21
-179.7662399
0
LINE
8
0
10
172.0232125
20
-179.8278683
11
163.6669735
21
-189.7864461
0
LINE
8
0
10
174.977385
20
-177.0850843
11
184.9359628
21
-185.4413233
0
LINE
8
0
10
185.6403788
20
-185.3796949
11
193.9966178
21
-175.4211171
0
LINE
8
0
10
193.9349894
20
-174.7167011
11
183.9764116
21
-166.3604621
0
LINE
8
0
10
183.2719956
20
-166.4220905
11
174.9157566
21
-176.3806683
0
LINE
8
0
10
314.1290053
20
-175.6607233
11
326.3450093
21
-171.2144615
0
LINE
8
0
10
326.6438455
20
-170.5736051
11
322.1975837
21
-158.3576011
0
LINE
8
0
10
321.5567273
20
-158.0587649
11
309.3407233
21
-162.5050267
0
LINE
8
0
10
309.0418871
20
-163.1458831
11
313.4881489
21
-175.3618871
0
LINE
8
0
10
295.5371707
20
-178.9583503
11
307.1202555
21
-173.0564739
0
LINE
8
0
10
307.3387635
20
-172.3839753
11
301.4368871
21
-160.8008905
0
LINE
8
0
10
300.7643885
20
-160.5823825
11
289.1813037
21
-166.4842589
0
LINE
8
0
10
288.9627957
20
-167.1567575
11
294.8646721
21
-178.7398423
0
LINE
8
0
10
287.592337
20
-163.3657361
11
299.1754218
21
-157.4638597
0
LINE
8
0
10
299.3939298
20
-156.7913611
11
293.4920534
21
-145.2082763
0
LINE
8
0
10
292.8195548
20
-144.9897683
11
281.23647
21
-150.8916447
0
LINE
8
0
10
281.017962
20
-151.5641433
11
286.9198384
21
-163.1472281
0
LINE
8
0
10
277.5598362
20
-183.8787651
11
288.9298923
21
-177.57624
0
LINE
8
0
10
289.1247974
20
-176.8965253
11
282.8222723
21
-165.5264692
0
LINE
8
0
10
282.1425576
20
-165.3315641
11
270.7725015
21
-171.6340892
0
LINE
8
0
10
270.5775964
20
-172.3138039
11
276.8801215
21
-183.68386
0
LINE
8
0
10
269.0756679
20
-168.5729202
11
280.445724
21
-162.2703951
0
LINE
8
0
10
280.6406291
20
-161.5906804
11
274.338104
21
-150.2206243
0
LINE
8
0
10
273.6583893
20
-150.0257192
11
262.2883332
21
-156.3282443
0
LINE
8
0
10
262.0934281
20
-157.007959
11
268.3959532
21
-168.3780151
0
LINE
8
0
10
265.2251947
20
-198.8471011
11
275.1837725
21
-190.4908621
0
LINE
8
0
10
275.2454009
20
-189.7864461
11
266.8891619
21
-179.8278683
0
LINE
8
0
10
266.1847459
20
-179.7662399
11
256.2261681
21
-188.1224789
0
LINE
8
0
10
256.1645397
20
-188.8268949
11
264.5207787
21
-198.7854727
0
LINE
8
0
10
253.9764116
20
-185.4413233
11
263.9349894
21
-177.0850843
0
LINE
8
0
10
263.9966178
20
-176.3806683
11
255.6403788
21
-166.4220905
0
LINE
8
0
10
254.9359628
20
-166.3604621
11
244.977385
21
-174.7167011
0
LINE
8
0
10
244.9157566
20
-175.4211171
11
253.2719956
21
-185.3796949
0
LINE
8
0
10
158.9042818
20
-212.1014348
11
167.7702604
21
-221.6090328
0
LINE
8
0
10
168.4769365
20
-221.6337105
11
177.9845345
21
-212.7677319
0
LINE
8
0
10
178.0092122
20
-212.0610558
11
169.1432336
21
-202.5534578
0
LINE
8
0
10
168.4365575
20
-202.5287801
11
158.9289595
21
-211.3947587
0
LINE
8
0
10
170.9121957
20
-225.9037614
11
177.8011462
21
-236.9283867
0
LINE
8
0
10
178.4901298
20
-237.0874511
11
189.5147551
21
-230.1985006
0
LINE
8
0
10
189.6738195
20
-229.509517
11
182.784869
21
-218.4848917
0
LINE
8
0
10
182.0958854
20
-218.3258273
11
171.0712601
21
-225.2147778
0
LINE
8
0
10
271.142114
20
-221.6090328
11
280.0080926
21
-212.1014348
0
LINE
8
0
10
279.9834149
20
-211.3947587
11
270.4758169
21
-202.5287801
0
LINE
8
0
10
269.7691408
20
-202.5534578
11
260.9031622
21
-212.0610558
0
LINE
8
0
10
260.9278399
20
-212.7677319
11
270.4354379
21
-221.6337105
0
LINE
8
0
10
261.1112282
20
-236.9283867
11
268.0001787
21
-225.9037614
0
LINE
8
0
10
267.8411143
20
-225.2147778
11
256.816489
21
-218.3258273
0
LINE
8
0
10
256.1275054
20
-218.4848917
11
249.2385549
21
-229.509517
0
LINE
8
0
10
249.3976193
20
-230.1985006
11
260.4222446
21
-237.0874511
0
ARC
8
0
10
153.8701729
20
-211.2675141
40
0.5
50
50.2228514
51
50.2228543
0
ARC
8
0
10
111.6650664
20
-174.8308826
40
0.5
50
230.2228514
51
230.2228543
0
ARC
8
0
10
114.1780051
20
-157.2869001
40
0.5
50
159.9999998
51
160.0000019
0
ARC
8
0
10
116.4951689
20
-154.4647175
40
0.5
50
121.2243232
51
121.224325
0
ARC
8
0
10
322.4172055
20
-154.4647175
40
0.5
50
58.775675
51
58.7756768
0
ARC
8
0
10
324.7343693
20
-157.2869001
40
0.5
50
19.9999981
51
20.0000002
0
ARC
8
0
10
327.247308
20
-174.8308826
40
0.5
50
309.7771457
51
309.7771486
0
ARC
8
0
10
285.0422015
20
-211.2675141
40
0.5
50
129.7771457
51
129.7771486
0
ARC
8
0
10
306.8932603
20
-172.6109706
40
0.5
50
297.0000006
51
27.0000006
0
ARC
8
0
10
300.9913838
20
-161.0278857
40
0.5
50
27.0000006
51
117.0000006
0
ARC
8
0
10
289.4082989
20
-166.9297622
40
0.5
50
117.0000006
51
207.0000006
0
ARC
8
0
10
295.3101754
20
-178.5128471
40
0.5
50
207.0000006
51
297.0000006
0
ARC
8
0
10
298.9484266
20
-157.0183564
40
0.5
50
297.0000006
51
27.0000006
0
ARC
8
0
10
293.0465501
20
-145.4352715
40
0.5
50
27.0000006
51
117.0000006
0
ARC
8
0
10
281.4634652
20
-151.337148
40
0.5
50
117.0000006
51
207.0000006
0
ARC
8
0
10
287.3653417
20
-162.9202329
40
0.5
50
207.0000006
51
297.0000006
0
ARC
8
0
10
143.602199
20
-178.5128471
40
0.5
50
242.9999994
51
332.9999994
0
ARC
8
0
10
149.5040755
20
-166.9297622
40
0.5
50
332.9999994
51
62.9999994
0
ARC
8
0
10
137.9209906
20
-161.0278857
40
0.5
50
62.9999994
51
152.9999994
0
ARC
8
0
10
132.0191141
20
-172.6109706
40
0.5
50
152.9999994
51
242.9999994
0
ARC
8
0
10
151.5470327
20
-162.9202329
40
0.5
50
242.9999994
51
332.9999994
0
ARC
8
0
10
157.4489092
20
-151.337148
40
0.5
50
332.9999994
51
62.9999994
0
ARC
8
0
10
145.8658243
20
-145.4352715
40
0.5
50
62.9999994
51
152.9999994
0
ARC
8
0
10
139.9639478
20
-157.0183564
40
0.5
50
152.9999994
51
242.9999994
0
ARC
8
0
10
174.0085735
20
-198.4640789
40
0.5
50
229.9999988
51
319.9999988
0
ARC
8
0
10
182.3648125
20
-188.5055011
40
0.5
50
319.9999988
51
49.9999988
0
ARC
8
0
10
172.4062347
20
-180.1492621
40
0.5
50
49.9999988
51
139.9999988
0
ARC
8
0
10
164.0499957
20
-190.1078399
40
0.5
50
139.9999988
51
229.9999988
0
ARC
8
0
10
185.2573566
20
-185.0583011
40
0.5
50
229.9999988
51
319.9999988
0
ARC
8
0
10
193.6135956
20
-175.0997233
40
0.5
50
319.9999988
51
49.9999988
0
ARC
8
0
10
183.6550178
20
-166.7434843
40
0.5
50
49.9999988
51
139.9999988
0
ARC
8
0
10
175.2987788
20
-176.7020621
40
0.5
50
139.9999988
51
229.9999988
0
ARC
8
0
10
274.8623787
20
-190.1078399
40
0.5
50
310.0000012
51
40.0000012
0
ARC
8
0
10
266.5061397
20
-180.1492621
40
0.5
50
40.0000012
51
130.0000012
0
ARC
8
0
10
256.5475619
20
-188.5055011
40
0.5
50
130.0000012
51
220.0000012
0
ARC
8
0
10
264.9038009
20
-198.4640789
40
0.5
50
220.0000012
51
310.0000012
0
ARC
8
0
10
263.6135956
20
-176.7020621
40
0.5
50
310.0000012
51
40.0000012
0
ARC
8
0
10
255.2573566
20
-166.7434843
40
0.5
50
40.0000012
51
130.0000012
0
ARC
8
0
10
245.2987788
20
-175.0997233
40
0.5
50
130.0000012
51
220.0000012
0
ARC
8
0
10
253.6550178
20
-185.0583011
40
0.5
50
220.0000012
51
310.0000012
0
ARC
8
0
10
288.6874875
20
-177.1389301
40
0.5
50
298.9999992
51
28.9999992
0
ARC
8
0
10
282.3849624
20
-165.768874
40
0.5
50
28.9999992
51
118.9999992
0
ARC
8
0
10
271.0149063
20
-172.0713991
40
0.5
50
118.9999992
51
208.9999992
0
ARC
8
0
10
277.3174314
20
-183.4414552
40
0.5
50
208.9999992
51
298.9999992
0
ARC
8
0
10
280.2033192
20
-161.8330852
40
0.5
50
298.9999992
51
28.9999992
0
ARC
8
0
10
273.9007941
20
-150.4630291
40
0.5
50
28.9999992
51
118.9999992
0
ARC
8
0
10
262.530738
20
-156.7655542
40
0.5
50
118.9999992
51
208.9999992
0
ARC
8
0
10
268.8332631
20
-168.1356103
40
0.5
50
208.9999992
51
298.9999992
0
ARC
8
0
10
161.594943
20
-183.4414552
40
0.5
50
241.0000008
51
331.0000008
0
ARC
8
0
10
167.8974681
20
-172.0713991
40
0.5
50
331.0000008
51
61.0000008
0
ARC
8
0
10
156.527412
20
-165.768874
40
0.5
50
61.0000008
51
151.0000008
0
ARC
8
0
10
150.2248869
20
-177.1389301
40
0.5
50
151.0000008
51
241.0000008
0
ARC
8
0
10
170.0791113
20
-168.1356103
40
0.5
50
241.0000008
51
331.0000008
0
ARC
8
0
10
176.3816364
20
-156.7655542
40
0.5
50
331.0000008
51
61.0000008
0
ARC
8
0
10
165.0115803
20
-150.4630291
40
0.5
50
61.0000008
51
151.0000008
0
ARC
8
0
10
158.7090552
20
-161.8330852
40
0.5
50
151.0000008
51
241.0000008
0
ARC
8
0
10
267.5761547
20
-225.6388018
40
0.5
50
327.9999984
51
57.9999984
0
ARC
8
0
10
256.5515294
20
-218.7498513
40
0.5
50
57.9999984
51
147.9999984
0
ARC
8
0
10
249.6625789
20
-229.7744766
40
0.5
50
147.9999984
51
237.9999984
0
ARC
8
0
10
260.6872042
20
-236.6634271
40
0.5
50
237.9999984
51
327.9999984
0
ARC
8
0
10
178.2251702
20
-236.6634271
40
0.5
50
212.0000016
51
302.0000016
0
ARC
8
0
10
189.2497955
20
-229.7744766
40
0.5
50
302.0000016
51
32.0000016
0
ARC
8
0
10
182.360845
20
-218.7498513
40
0.5
50
32.0000016
51
122.0000016
0
ARC
8
0
10
171.3362197
20
-225.6388018
40
0.5
50
122.0000016
51
212.0000016
0
ARC
8
0
10
168.1359373
20
-221.2680336
40
0.5
50
223.0000017
51
313.0000017
0
ARC
8
0
10
177.6435353
20
-212.402055
40
0.5
50
313.0000017
51
43.0000017
0
ARC
8
0
10
168.7775567
20
-202.894457
40
0.5
50
43.0000017
51
133.0000017
0
ARC
8
0
10
159.2699587
20
-211.7604356
40
0.5
50
133.0000017
51
223.0000017
0
ARC
8
0
10
279.6424157
20
-211.7604356
40
0.5
50
316.9999983
51
46.9999983
0
ARC
8
0
10
270.1348177
20
-202.894457
40
0.5
50
46.9999983
51
136.9999983
0
ARC
8
0
10
261.2688391
20
-212.402055
40
0.5
50
136.9999983
51
226.9999983
0
ARC
8
0
10
270.7764371
20
-221.2680336
40
0.5
50
226.9999983
51
316.9999983
0
ARC
8
0
10
326.1739992
20
-170.7446152
40
0.5
50
289.9999981
51
19.9999981
0
ARC
8
0
10
321.7277374
20
-158.5286112
40
0.5
50
19.9999981
51
109.9999981
0
ARC
8
0
10
309.5117334
20
-162.974873
40
0.5
50
109.9999981
51
199.9999981
0
ARC
8
0
10
313.9579952
20
-175.190877
40
0.5
50
199.9999981
51
289.9999981
0
ARC
8
0
10
124.9543792
20
-175.190877
40
0.5
50
250.0000019
51
340.0000019
0
ARC
8
0
10
129.400641
20
-162.974873
40
0.5
50
340.0000019
51
70.0000019
0
ARC
8
0
10
117.184637
20
-158.5286112
40
0.5
50
70.0000019
51
160.0000019
0
ARC
8
0
10
112.7383752
20
-170.7446152
40
0.5
50
160.0000019
51
250.0000019
0
LINE
8
0
10
210.5561872
20
-196.9008927
11
228.3561872
21
-196.9008927
0
LINE
8
0
10
228.3561872
20
-196.9008927
11
228.3561872
21
-175.9008927
0
LINE
8
0
10
228.3561872
20
-175.9008927
11
223.4561872
21
-175.9008927
0
LINE
8
0
10
215.4561872
20
-175.9008927
11
210.5561872
21
-175.9008927
0
LINE
8
0
10
210.5561872
20
-175.9008927
11
210.5561872
21
-196.9008927
0
LINE
8
0
10
223.4561872
20
-175.9008927
11
223.4561872
21
-172.9008927
0
LINE
8
0
10
223.4561872
20
-172.9008927
11
215.4561872
21
-172.9008927
0
LINE
8
0
10
215.4561872
20
-172.9008927
11
215.4561872
21
-175.9008927
0
ENDSEC
0
EOF